<svg width="216" height="216" viewBox="0 0 216 216" fill="none" xmlns="http://www.w3.org/2000/svg">
<g clip-path="url(#clip0_50055_80255)">
<mask id="mask0_50055_80255" style="mask-type:luminance" maskUnits="userSpaceOnUse" x="0" y="0" width="216" height="216">
<path d="M216 0H0V216H216V0Z" fill="white"/>
</mask>
<g mask="url(#mask0_50055_80255)">
<path d="M177.984 50.112C177.984 51.048 177.48 51.984 176.616 52.416L172.44 54.648C172.44 54.648 172.368 54.648 172.296 54.792L170.064 58.968C169.632 59.832 168.696 60.336 167.76 60.336C166.824 60.336 165.888 59.832 165.456 58.968L163.224 54.792C163.224 54.792 163.224 54.72 163.08 54.648L158.904 52.416C158.04 51.984 157.536 51.048 157.536 50.112C157.536 49.176 158.04 48.24 158.904 47.808L163.152 45.576C163.152 45.576 163.224 45.576 163.296 45.432L165.528 41.256C165.96 40.392 166.896 39.888 167.832 39.888C168.768 39.888 169.704 40.392 170.136 41.256L172.368 45.432C172.368 45.432 172.368 45.504 172.512 45.576L176.688 47.808C177.552 48.24 178.056 49.104 178.056 50.112H177.984Z" fill="white"/>
<path d="M177.984 50.112C177.984 51.048 177.48 51.984 176.616 52.416L172.44 54.648C172.44 54.648 172.368 54.648 172.296 54.792L170.064 58.968C169.632 59.832 168.696 60.336 167.76 60.336C166.824 60.336 165.888 59.832 165.456 58.968L163.224 54.792C163.224 54.792 163.224 54.72 163.08 54.648L158.904 52.416C158.04 51.984 157.536 51.048 157.536 50.112C157.536 49.176 158.04 48.24 158.904 47.808L163.152 45.576C163.152 45.576 163.224 45.576 163.296 45.432L165.528 41.256C165.96 40.392 166.896 39.888 167.832 39.888C168.768 39.888 169.704 40.392 170.136 41.256L172.368 45.432C172.368 45.432 172.368 45.504 172.512 45.576L176.688 47.808C177.552 48.24 178.056 49.104 178.056 50.112H177.984Z" stroke="#00396A" stroke-width="1.5" stroke-miterlimit="10"/>
<path d="M36.3599 122.472C36.3599 123.12 35.9999 123.696 35.4239 123.984L32.6159 125.496C32.6159 125.496 32.6159 125.496 32.5439 125.568L31.0319 128.376C30.7439 128.952 30.1679 129.312 29.5199 129.312C28.8719 129.312 28.2959 128.952 28.0079 128.376L26.4959 125.568C26.4959 125.568 26.4959 125.568 26.4239 125.496L23.6159 123.984C23.0399 123.696 22.6799 123.12 22.6799 122.472C22.6799 121.824 23.0399 121.248 23.6159 120.96L26.4239 119.448C26.4239 119.448 26.4239 119.448 26.4959 119.376L28.0079 116.568C28.2959 115.992 28.8719 115.632 29.5199 115.632C30.1679 115.632 30.7439 115.992 31.0319 116.568L32.5439 119.376C32.5439 119.376 32.5439 119.376 32.6159 119.448L35.4239 120.96C35.9999 121.248 36.3599 121.824 36.3599 122.472Z" fill="#FE9D2C"/>
<path d="M36.3599 122.472C36.3599 123.12 35.9999 123.696 35.4239 123.984L32.6159 125.496C32.6159 125.496 32.6159 125.496 32.5439 125.568L31.0319 128.376C30.7439 128.952 30.1679 129.312 29.5199 129.312C28.8719 129.312 28.2959 128.952 28.0079 128.376L26.4959 125.568C26.4959 125.568 26.4959 125.568 26.4239 125.496L23.6159 123.984C23.0399 123.696 22.6799 123.12 22.6799 122.472C22.6799 121.824 23.0399 121.248 23.6159 120.96L26.4239 119.448C26.4239 119.448 26.4239 119.448 26.4959 119.376L28.0079 116.568C28.2959 115.992 28.8719 115.632 29.5199 115.632C30.1679 115.632 30.7439 115.992 31.0319 116.568L32.5439 119.376C32.5439 119.376 32.5439 119.376 32.6159 119.448L35.4239 120.96C35.9999 121.248 36.3599 121.824 36.3599 122.472Z" stroke="#00396A" stroke-width="1.5" stroke-miterlimit="10"/>
<path d="M197.928 165.312C197.928 165.96 197.568 166.536 196.992 166.824L194.184 168.336C194.184 168.336 194.184 168.336 194.112 168.408L192.6 171.216C192.312 171.792 191.736 172.152 191.088 172.152C190.44 172.152 189.864 171.792 189.576 171.216L188.064 168.408C188.064 168.408 188.064 168.408 187.992 168.336L185.184 166.824C184.608 166.536 184.248 165.96 184.248 165.312C184.248 164.664 184.608 164.088 185.184 163.8L187.992 162.288C187.992 162.288 187.992 162.288 188.064 162.216L189.576 159.408C189.864 158.832 190.44 158.472 191.088 158.472C191.736 158.472 192.312 158.832 192.6 159.408L194.112 162.216C194.112 162.216 194.112 162.216 194.184 162.288L196.992 163.8C197.568 164.088 197.928 164.664 197.928 165.312Z" fill="#FE9D2C"/>
<path d="M197.928 165.312C197.928 165.96 197.568 166.536 196.992 166.824L194.184 168.336C194.184 168.336 194.184 168.336 194.112 168.408L192.6 171.216C192.312 171.792 191.736 172.152 191.088 172.152C190.44 172.152 189.864 171.792 189.576 171.216L188.064 168.408C188.064 168.408 188.064 168.408 187.992 168.336L185.184 166.824C184.608 166.536 184.248 165.96 184.248 165.312C184.248 164.664 184.608 164.088 185.184 163.8L187.992 162.288C187.992 162.288 187.992 162.288 188.064 162.216L189.576 159.408C189.864 158.832 190.44 158.472 191.088 158.472C191.736 158.472 192.312 158.832 192.6 159.408L194.112 162.216C194.112 162.216 194.112 162.216 194.184 162.288L196.992 163.8C197.568 164.088 197.928 164.664 197.928 165.312Z" stroke="#00396A" stroke-width="1.5" stroke-miterlimit="10"/>
<path d="M44.7839 92.88C44.7839 92.592 44.8559 92.304 44.9279 91.944C44.8559 92.232 44.7839 92.592 44.7839 92.88Z" fill="#005493"/>
<path d="M44.4961 178.92C44.4961 178.56 44.4241 178.272 44.4241 177.912C44.4241 178.272 44.4241 178.632 44.4961 178.92Z" fill="#005493"/>
<path d="M172.224 94.464C173.448 93.528 174.6 91.944 175.32 90.288C174.6 88.632 173.448 87.048 172.224 86.112L168.624 83.376V97.272L172.152 94.536L172.224 94.464Z" fill="#005493"/>
<path d="M114.768 41.76C112.536 40.032 108.864 40.032 106.632 41.76L83.0879 59.616L138.168 59.832L114.768 41.76Z" fill="#005493"/>
<path d="M175.32 90.36C175.464 90.72 175.608 91.008 175.68 91.368C175.536 91.008 175.464 90.72 175.32 90.36Z" fill="#005493"/>
<path d="M176.04 92.448C176.112 92.736 176.184 93.096 176.184 93.384C176.184 93.096 176.112 92.808 176.04 92.448Z" fill="#005493"/>
<path d="M175.752 91.368C175.824 91.656 175.968 92.016 176.04 92.304C175.968 92.016 175.896 91.656 175.752 91.368Z" fill="#005493"/>
<path d="M48.7441 94.032L52.8481 97.2V82.512L48.7441 85.68C47.2321 86.832 45.9361 88.776 45.2161 90.864C45.3601 90.504 45.4321 90.216 45.5761 89.856C46.2961 91.512 47.4481 93.096 48.6721 94.032H48.7441Z" fill="#005493"/>
<path d="M175.968 178.416C175.968 178.776 175.968 179.136 175.824 179.424C175.824 179.064 175.896 178.776 175.968 178.416Z" fill="#005493"/>
<path d="M168.624 80.64C168.624 80.64 167.184 80.64 165.096 80.64C161.28 80.64 155.376 80.568 152.208 80.424C148.104 80.28 148.176 76.392 148.176 76.392V67.608V59.904H138.096L83.0159 59.688H56.4479C54.5039 59.616 52.9199 61.128 52.9199 63.072V82.584L52.7759 97.272L68.3279 109.296L71.6399 111.888L85.9679 122.904L91.5119 127.224L103.104 136.152L106.2 133.776C108.432 132.048 112.104 132.12 114.336 133.776L117.36 136.152L129.024 127.296L134.64 123.048L149.04 112.104L152.352 109.584L168.48 97.272V83.376V80.64H168.624Z" fill="white"/>
<path d="M70.7141 73.5169C69.5212 73.5128 68.5508 74.4765 68.5466 75.6694C68.5424 76.8623 69.5061 77.8327 70.699 77.8369L96.0429 77.9254C97.2358 77.9295 98.2063 76.9659 98.2104 75.7729C98.2146 74.58 97.2509 73.6096 96.058 73.6054L70.7141 73.5169Z" fill="#FFD276"/>
<path d="M71.9659 86.4361C70.0573 86.4295 68.5046 87.9714 68.4979 89.8801C68.4912 91.7887 70.0331 93.3414 71.9418 93.3481L149.269 93.618C151.178 93.6247 152.731 92.0828 152.737 90.1741C152.744 88.2654 151.202 86.7127 149.293 86.7061L71.9659 86.4361Z" fill="#63A0FF"/>
<path d="M71.9659 99.8749C70.0573 99.8682 68.5046 101.41 68.4979 103.319C68.4912 105.227 70.0331 106.78 71.9418 106.787L149.269 107.057C151.178 107.063 152.731 105.522 152.737 103.613C152.744 101.704 151.202 100.151 149.293 100.145L71.9659 99.8749Z" fill="#63A0FF"/>
<path d="M71.9659 113.242C70.0573 113.235 68.5046 114.777 68.4979 116.686C68.4912 118.594 70.0331 120.147 71.9418 120.154L149.269 120.424C151.178 120.43 152.731 118.889 152.737 116.98C152.744 115.071 151.202 113.518 149.293 113.512L71.9659 113.242Z" fill="#63A0FF"/>
<path d="M71.9659 86.4361C70.0573 86.4295 68.5046 87.9714 68.4979 89.8801C68.4912 91.7887 70.0331 93.3414 71.9418 93.3481L149.269 93.618C151.178 93.6247 152.731 92.0828 152.737 90.1741C152.744 88.2654 151.202 86.7127 149.293 86.7061L71.9659 86.4361Z" stroke="#00396A" stroke-width="1.5" stroke-miterlimit="10"/>
<path d="M71.9659 99.8749C70.0573 99.8682 68.5046 101.41 68.4979 103.319C68.4912 105.227 70.0331 106.78 71.9418 106.787L149.269 107.057C151.178 107.063 152.731 105.522 152.737 103.613C152.744 101.704 151.202 100.151 149.293 100.145L71.9659 99.8749Z" stroke="#00396A" stroke-width="1.5" stroke-miterlimit="10"/>
<path d="M71.9659 113.242C70.0573 113.235 68.5046 114.777 68.4979 116.686C68.4912 118.594 70.0331 120.147 71.9418 120.154L149.269 120.424C151.178 120.43 152.731 118.889 152.737 116.98C152.744 115.071 151.202 113.518 149.293 113.512L71.9659 113.242Z" stroke="#00396A" stroke-width="1.5" stroke-miterlimit="10"/>
<path d="M172.944 183.096C172.8 183.096 172.728 183.168 172.584 183.24C172.728 183.24 172.8 183.168 172.944 183.096Z" fill="#9DD5FF"/>
<path d="M172.44 183.24C172.296 183.24 172.224 183.24 172.08 183.312C172.224 183.312 172.296 183.312 172.44 183.24Z" fill="#9DD5FF"/>
<path d="M174.672 181.728C174.528 181.872 174.456 182.016 174.312 182.088C174.456 181.944 174.528 181.872 174.672 181.728Z" fill="#9DD5FF"/>
<path d="M173.376 182.808C173.232 182.808 173.16 182.952 173.016 183.024C173.16 183.024 173.232 182.88 173.376 182.808Z" fill="#9DD5FF"/>
<path d="M47.736 182.736C47.592 182.736 47.52 182.664 47.376 182.592C47.52 182.592 47.592 182.664 47.736 182.736Z" fill="#9DD5FF"/>
<path d="M46.0079 181.656C45.8639 181.512 45.7919 181.44 45.6479 181.296C45.7919 181.44 45.8639 181.584 46.0079 181.656Z" fill="#9DD5FF"/>
<path d="M48.2399 182.88C48.0959 182.88 48.0239 182.88 47.8799 182.808C48.0239 182.808 48.0959 182.808 48.2399 182.88Z" fill="#9DD5FF"/>
<path d="M47.2321 182.52C47.0881 182.52 47.0161 182.376 46.8721 182.304C47.0161 182.304 47.0881 182.448 47.2321 182.52Z" fill="#9DD5FF"/>
<path d="M125.712 142.488L122.544 140.04L125.712 142.488Z" fill="#9DD5FF"/>
<path d="M94.896 142.416L98.064 139.968L94.896 142.416Z" fill="#9DD5FF"/>
<path d="M103.176 136.08L100.44 138.168L97.9921 140.04L94.8241 142.488L58.4641 170.136L48.3841 177.768C47.3041 178.632 46.2961 179.928 45.5761 181.368H45.5041C45.0721 180.792 44.7841 180.216 44.5681 179.496C44.5681 179.352 44.4961 179.208 44.4241 178.992C44.3521 178.632 44.2801 178.344 44.3521 177.984L44.6401 93.96C44.6401 93.672 44.6401 93.384 44.6401 93.024C44.6401 93.024 44.6401 93.024 44.6401 92.952C44.6401 92.664 44.7841 92.304 44.8561 92.016C44.8561 92.016 44.8561 92.016 44.8561 91.944C44.9281 91.656 45.0721 91.296 45.1441 91.008C45.1441 91.008 45.1441 91.008 45.1441 90.936C45.2161 90.648 45.3601 90.288 45.5761 89.928C46.2961 91.584 47.3761 93.168 48.6721 94.104L52.7761 97.272L68.3281 109.296L71.6401 111.888L85.9681 122.904L91.5121 127.224L103.104 136.152L103.176 136.08Z" fill="#F46F28"/>
<path d="M175.752 91.368C175.896 91.656 175.968 92.016 176.04 92.304C176.112 92.736 176.184 93.024 176.184 93.384C176.184 93.384 176.184 93.384 176.184 93.456C176.184 93.744 176.184 94.104 176.184 94.392L175.896 178.416C175.896 178.776 175.896 179.136 175.752 179.424C175.752 179.568 175.68 179.784 175.608 179.928C175.392 180.576 175.104 181.152 174.672 181.656H174.6C173.88 180.288 172.872 178.992 171.792 178.128L161.784 170.352L117.36 136.08L129.024 127.224L134.64 122.976L148.968 112.032L152.28 109.512L168.408 97.2L172.008 94.464C173.232 93.528 174.384 91.944 175.104 90.288C175.248 90.648 175.392 90.936 175.464 91.296C175.464 91.296 175.464 91.296 175.464 91.368H175.752Z" fill="#F46F28"/>
<path d="M122.544 140.04L120.168 138.24L122.544 140.04Z" fill="#0068A4"/>
<path d="M100.44 138.168L98.064 139.968L100.44 138.168Z" fill="#0068A4"/>
<path d="M171.864 178.128L161.856 170.352L125.712 142.488L122.544 140.04L120.168 138.168L117.432 136.08L114.408 133.704C112.176 131.976 108.504 131.976 106.272 133.704L103.176 136.008L100.44 138.096L97.9919 139.968L94.8239 142.416L58.4639 170.064L48.3839 177.696C47.3039 178.56 46.2959 179.856 45.5759 181.296C45.7199 181.44 45.7919 181.584 45.9359 181.656C46.0799 181.728 46.1519 181.872 46.2959 181.944C46.4399 182.016 46.5119 182.088 46.6559 182.16C46.6559 182.16 46.6559 182.16 46.7279 182.16C46.8719 182.16 46.9439 182.304 47.0879 182.376C47.0879 182.376 47.1599 182.376 47.2319 182.376C47.3759 182.376 47.4479 182.448 47.5919 182.52C47.5919 182.52 47.6639 182.52 47.7359 182.52C47.8799 182.52 47.9519 182.52 48.0959 182.592H48.2399C48.3839 182.592 48.4559 182.592 48.5999 182.592C48.5999 182.592 48.6719 182.592 48.7439 182.592C48.9599 182.592 49.1039 182.592 49.3199 182.592L170.64 183.024C170.856 183.024 171 183.024 171.216 183.024C171.216 183.024 171.288 183.024 171.36 183.024C171.504 183.024 171.648 183.024 171.72 183.024H171.864C172.008 183.024 172.08 183.024 172.224 182.952C172.224 182.952 172.296 182.952 172.368 182.952C172.512 182.952 172.584 182.88 172.728 182.808C172.728 182.808 172.8 182.808 172.872 182.808C173.016 182.808 173.088 182.664 173.232 182.592C173.232 182.592 173.232 182.592 173.304 182.592C173.448 182.52 173.52 182.448 173.664 182.376C173.808 182.304 173.88 182.16 174.024 182.088C174.168 181.944 174.24 181.872 174.384 181.728C173.664 180.288 172.656 178.992 171.576 178.128H171.864Z" fill="#FFA05C"/>
<path d="M149.4 61.056C148.968 60.624 148.248 60.912 148.248 61.56V67.608V76.392C148.248 76.392 148.176 80.28 152.28 80.424C155.448 80.568 161.352 80.568 165.168 80.64C165.888 80.64 166.536 80.64 167.112 80.64C167.688 80.64 168.048 79.92 167.616 79.488L149.472 61.056H149.4Z" fill="#63A0FF"/>
<path d="M44.7839 92.88C44.7839 92.592 44.8559 92.304 44.9279 91.944C44.8559 92.232 44.7839 92.592 44.7839 92.88Z" stroke="#00396A" stroke-width="1.5" stroke-miterlimit="10"/>
<path d="M44.7119 93.888C44.7119 93.6 44.7119 93.312 44.7119 92.952C44.7119 93.24 44.7119 93.6 44.7119 93.888Z" stroke="#00396A" stroke-width="1.5" stroke-miterlimit="10"/>
<path d="M44.4961 178.92C44.4961 178.56 44.4241 178.272 44.4241 177.912C44.4241 178.272 44.4241 178.632 44.4961 178.92Z" stroke="#00396A" stroke-width="1.5" stroke-miterlimit="10"/>
<path d="M45.5041 181.152C45.0721 180.648 44.7841 180.072 44.5681 179.424" stroke="#00396A" stroke-width="1.5" stroke-miterlimit="10"/>
<path d="M172.224 94.464C173.448 93.528 174.6 91.944 175.32 90.288C174.6 88.632 173.448 87.048 172.224 86.112L168.624 83.376V97.272L172.152 94.536L172.224 94.464Z" stroke="#00396A" stroke-width="1.5" stroke-miterlimit="10"/>
<path d="M176.184 93.456C176.184 93.744 176.184 94.104 176.184 94.392C176.184 94.104 176.184 93.816 176.184 93.456Z" stroke="#00396A" stroke-width="1.5" stroke-miterlimit="10"/>
<path d="M114.768 41.76C112.536 40.032 108.864 40.032 106.632 41.76L83.0879 59.616L138.168 59.832L114.768 41.76Z" stroke="#00396A" stroke-width="1.5" stroke-miterlimit="10"/>
<path d="M175.32 90.36C175.464 90.72 175.608 91.008 175.68 91.368C175.536 91.008 175.464 90.72 175.32 90.36Z" stroke="#00396A" stroke-width="1.5" stroke-miterlimit="10"/>
<path d="M176.04 92.448C176.112 92.736 176.184 93.096 176.184 93.384C176.184 93.096 176.112 92.808 176.04 92.448Z" stroke="#00396A" stroke-width="1.5" stroke-miterlimit="10"/>
<path d="M175.752 91.368C175.824 91.656 175.968 92.016 176.04 92.304C175.968 92.016 175.896 91.656 175.752 91.368Z" stroke="#00396A" stroke-width="1.5" stroke-miterlimit="10"/>
<path d="M45 91.872C45.072 91.584 45.144 91.224 45.288 90.936" stroke="#00396A" stroke-width="1.5" stroke-miterlimit="10"/>
<path d="M175.752 179.928C175.536 180.576 175.248 181.152 174.816 181.656" stroke="#00396A" stroke-width="1.5" stroke-miterlimit="10"/>
<path d="M48.7441 94.032L52.8481 97.2V82.512L48.7441 85.68C47.2321 86.832 45.9361 88.776 45.2161 90.864C45.3601 90.504 45.4321 90.216 45.5761 89.856C46.2961 91.512 47.4481 93.096 48.6721 94.032H48.7441Z" stroke="#00396A" stroke-width="1.5" stroke-miterlimit="10"/>
<path d="M175.968 178.416C175.968 178.776 175.968 179.136 175.824 179.424C175.824 179.064 175.896 178.776 175.968 178.416Z" stroke="#00396A" stroke-width="1.5" stroke-miterlimit="10"/>
<path d="M165.096 80.64C161.28 80.64 155.376 80.568 152.208 80.424C148.104 80.28 148.176 76.392 148.176 76.392V67.608V61.992C148.176 60.84 147.24 59.832 146.016 59.832H138.096L83.0159 59.616H56.4479C54.5039 59.544 52.9199 61.056 52.9199 63V82.512L52.7759 96.12C52.7759 96.768 53.0639 97.416 53.6399 97.848L68.3279 109.224L71.6399 111.816L85.9679 122.832L91.5119 127.152L101.808 135.072C102.6 135.648 103.68 135.648 104.4 135.072L106.128 133.704C108.36 131.976 112.032 132.048 114.264 133.704L115.992 135.072C116.784 135.648 117.792 135.648 118.584 135.072L128.952 127.224L134.568 122.976L148.896 112.032L152.208 109.512L167.544 97.848C168.048 97.416 168.408 96.84 168.408 96.12V83.304V82.728C168.408 81.576 167.472 80.568 166.32 80.568C165.168 80.568 165.384 80.568 164.88 80.568L165.096 80.64ZM70.7039 73.584H96.0479C97.1999 73.656 98.2079 74.664 98.2079 75.816C98.2079 76.968 97.2719 77.976 96.0479 77.976H70.7039C69.5519 77.904 68.5439 76.896 68.5439 75.744C68.5439 74.592 69.4799 73.584 70.7039 73.584Z" stroke="#00396A" stroke-width="1.5" stroke-miterlimit="10"/>
<path d="M44.928 91.944C44.928 91.944 44.928 91.872 44.928 91.8C44.928 91.8 44.928 91.872 44.928 91.944Z" stroke="#00396A" stroke-width="1.5" stroke-miterlimit="10"/>
<path d="M176.04 92.376C176.04 92.376 176.04 92.448 176.04 92.52C176.04 92.52 176.04 92.448 176.04 92.376Z" stroke="#00396A" stroke-width="1.5" stroke-miterlimit="10"/>
<path d="M45.2881 90.864C45.2881 90.864 45.2881 90.864 45.2881 90.792C45.2881 90.792 45.2881 90.792 45.2881 90.864Z" stroke="#00396A" stroke-width="1.5" stroke-miterlimit="10"/>
<path d="M44.7839 92.952C44.7839 92.952 44.7839 92.952 44.7839 92.88C44.7839 92.88 44.7839 92.88 44.7839 92.952Z" stroke="#00396A" stroke-width="1.5" stroke-miterlimit="10"/>
<path d="M175.68 91.296C175.68 91.296 175.68 91.296 175.68 91.368C175.68 91.368 175.68 91.368 175.68 91.296Z" stroke="#00396A" stroke-width="1.5" stroke-miterlimit="10"/>
<path d="M176.184 93.384C176.184 93.384 176.184 93.384 176.184 93.456C176.184 93.456 176.184 93.456 176.184 93.384Z" stroke="#00396A" stroke-width="1.5" stroke-miterlimit="10"/>
<path d="M172.944 183.096C172.8 183.096 172.728 183.168 172.584 183.24C172.728 183.24 172.8 183.168 172.944 183.096Z" stroke="#00396A" stroke-width="1.5" stroke-miterlimit="10"/>
<path d="M172.44 183.24C172.296 183.24 172.224 183.24 172.08 183.312C172.224 183.312 172.296 183.312 172.44 183.24Z" stroke="#00396A" stroke-width="1.5" stroke-miterlimit="10"/>
<path d="M174.672 181.728C174.528 181.872 174.456 182.016 174.312 182.088C174.456 181.944 174.528 181.872 174.672 181.728Z" stroke="#00396A" stroke-width="1.5" stroke-miterlimit="10"/>
<path d="M173.376 182.808C173.232 182.808 173.16 182.952 173.016 183.024C173.16 183.024 173.232 182.88 173.376 182.808Z" stroke="#00396A" stroke-width="1.5" stroke-miterlimit="10"/>
<path d="M173.88 182.52C173.736 182.592 173.664 182.664 173.52 182.736" stroke="#00396A" stroke-width="1.5" stroke-miterlimit="10"/>
<path d="M47.736 182.736C47.592 182.736 47.52 182.664 47.376 182.592C47.52 182.592 47.592 182.664 47.736 182.736Z" stroke="#00396A" stroke-width="1.5" stroke-miterlimit="10"/>
<path d="M46.0079 181.656C45.8639 181.512 45.7919 181.44 45.6479 181.296C45.7919 181.44 45.8639 181.584 46.0079 181.656Z" stroke="#00396A" stroke-width="1.5" stroke-miterlimit="10"/>
<path d="M48.2399 182.88C48.0959 182.88 48.0239 182.88 47.8799 182.808C48.0239 182.808 48.0959 182.808 48.2399 182.88Z" stroke="#00396A" stroke-width="1.5" stroke-miterlimit="10"/>
<path d="M46.3681 182.016C46.2241 181.944 46.1521 181.8 46.0081 181.728" stroke="#00396A" stroke-width="1.5" stroke-miterlimit="10"/>
<path d="M46.7999 182.304C46.6559 182.232 46.5839 182.16 46.4399 182.088" stroke="#00396A" stroke-width="1.5" stroke-miterlimit="10"/>
<path d="M49.4639 183.096C49.2479 183.096 49.1039 183.096 48.8879 183.096" stroke="#00396A" stroke-width="1.5" stroke-miterlimit="10"/>
<path d="M170.784 183.528C171 183.528 171.144 183.528 171.36 183.528" stroke="#00396A" stroke-width="1.5" stroke-miterlimit="10"/>
<path d="M174.312 182.16C174.168 182.232 174.096 182.376 173.952 182.448" stroke="#00396A" stroke-width="1.5" stroke-miterlimit="10"/>
<path d="M47.2321 182.52C47.0881 182.52 47.0161 182.376 46.8721 182.304C47.0161 182.304 47.0881 182.448 47.2321 182.52Z" stroke="#00396A" stroke-width="1.5" stroke-miterlimit="10"/>
<path d="M48.744 183.024C48.6 183.024 48.528 183.024 48.384 183.024" stroke="#00396A" stroke-width="1.5" stroke-miterlimit="10"/>
<path d="M171.864 183.384C171.72 183.384 171.648 183.384 171.504 183.384C171.648 183.384 171.792 183.384 171.864 183.384Z" stroke="#00396A" stroke-width="1.5" stroke-miterlimit="10"/>
<path d="M125.712 142.488L122.544 140.04L125.712 142.488Z" stroke="#00396A" stroke-width="1.5" stroke-miterlimit="10"/>
<path d="M94.896 142.416L98.064 139.968L94.896 142.416Z" stroke="#00396A" stroke-width="1.5" stroke-miterlimit="10"/>
<path d="M103.176 136.08L100.44 138.168L97.9921 140.04L94.8241 142.488L58.4641 170.136L48.3841 177.768C47.3041 178.632 46.2961 179.928 45.5761 181.368H45.5041C45.0721 180.792 44.7841 180.216 44.5681 179.496C44.5681 179.352 44.4961 179.208 44.4241 178.992C44.3521 178.632 44.2801 178.344 44.3521 177.984L44.6401 93.96C44.6401 93.672 44.6401 93.384 44.6401 93.024C44.6401 93.024 44.6401 93.024 44.6401 92.952C44.6401 92.664 44.7841 92.304 44.8561 92.016C44.8561 92.016 44.8561 92.016 44.8561 91.944C44.9281 91.656 45.0721 91.296 45.1441 91.008C45.1441 91.008 45.1441 91.008 45.1441 90.936C45.2161 90.648 45.3601 90.288 45.5761 89.928C46.2961 91.584 47.3761 93.168 48.6721 94.104L52.7761 97.272L68.3281 109.296L71.6401 111.888L85.9681 122.904L91.5121 127.224L103.104 136.152L103.176 136.08Z" stroke="#00396A" stroke-width="1.5" stroke-miterlimit="10"/>
<path d="M175.752 91.368C175.896 91.656 175.968 92.016 176.04 92.304C176.112 92.736 176.184 93.024 176.184 93.384C176.184 93.384 176.184 93.384 176.184 93.456C176.184 93.744 176.184 94.104 176.184 94.392L175.896 178.416C175.896 178.776 175.896 179.136 175.752 179.424C175.752 179.568 175.68 179.784 175.608 179.928C175.392 180.576 175.104 181.152 174.672 181.656H174.6C173.88 180.288 172.872 178.992 171.792 178.128L161.784 170.352L117.36 136.08L129.024 127.224L134.64 122.976L148.968 112.032L152.28 109.512L168.408 97.2L172.008 94.464C173.232 93.528 174.384 91.944 175.104 90.288C175.248 90.648 175.392 90.936 175.464 91.296C175.464 91.296 175.464 91.296 175.464 91.368H175.752Z" stroke="#00396A" stroke-width="1.5" stroke-miterlimit="10"/>
<path d="M172.584 183.24C172.584 183.24 172.512 183.24 172.44 183.24C172.44 183.24 172.512 183.24 172.584 183.24Z" stroke="#00396A" stroke-width="1.5" stroke-miterlimit="10"/>
<path d="M171.504 183.456C171.504 183.456 171.432 183.456 171.36 183.456C171.36 183.456 171.432 183.456 171.504 183.456Z" stroke="#00396A" stroke-width="1.5" stroke-miterlimit="10"/>
<path d="M48.9599 183.024C48.9599 183.024 48.8879 183.024 48.8159 183.024C48.8159 183.024 48.8879 183.024 48.9599 183.024Z" stroke="#00396A" stroke-width="1.5" stroke-miterlimit="10"/>
<path d="M173.016 183.024C173.016 183.024 172.944 183.024 172.872 183.024C172.872 183.024 172.944 183.024 173.016 183.024Z" stroke="#00396A" stroke-width="1.5" stroke-miterlimit="10"/>
<path d="M172.08 183.384H171.936" stroke="#00396A" stroke-width="1.5" stroke-miterlimit="10"/>
<path d="M173.52 182.736C173.52 182.736 173.52 182.736 173.448 182.736C173.448 182.736 173.448 182.736 173.52 182.736Z" stroke="#00396A" stroke-width="1.5" stroke-miterlimit="10"/>
<path d="M47.8801 182.808C47.8801 182.808 47.8081 182.808 47.7361 182.808C47.7361 182.808 47.8081 182.808 47.8801 182.808Z" stroke="#00396A" stroke-width="1.5" stroke-miterlimit="10"/>
<path d="M46.872 182.376C46.872 182.376 46.872 182.376 46.8 182.376C46.8 182.376 46.8 182.376 46.872 182.376Z" stroke="#00396A" stroke-width="1.5" stroke-miterlimit="10"/>
<path d="M47.3759 182.592C47.3759 182.592 47.3039 182.592 47.2319 182.592C47.2319 182.592 47.3039 182.592 47.3759 182.592Z" stroke="#00396A" stroke-width="1.5" stroke-miterlimit="10"/>
<path d="M48.384 182.952H48.24" stroke="#00396A" stroke-width="1.5" stroke-miterlimit="10"/>
<path d="M103.176 136.008L106.272 133.704C108.504 131.976 112.176 131.976 114.408 133.704L117.432 136.08" stroke="#00396A" stroke-width="1.5" stroke-miterlimit="10"/>
<path d="M122.544 140.04L120.168 138.24L122.544 140.04Z" stroke="#00396A" stroke-width="1.5" stroke-miterlimit="10"/>
<path d="M100.44 138.168L98.064 139.968L100.44 138.168Z" stroke="#00396A" stroke-width="1.5" stroke-miterlimit="10"/>
<path d="M171.864 178.128L161.856 170.352L125.712 142.488L122.544 140.04L120.168 138.168L117.432 136.08L114.408 133.704C112.176 131.976 108.504 131.976 106.272 133.704L103.176 136.008L100.44 138.096L97.9919 139.968L94.8239 142.416L58.4639 170.064L48.3839 177.696C47.3039 178.56 46.2959 179.856 45.5759 181.296C45.7199 181.44 45.7919 181.584 45.9359 181.656C46.0799 181.728 46.1519 181.872 46.2959 181.944C46.4399 182.016 46.5119 182.088 46.6559 182.16C46.6559 182.16 46.6559 182.16 46.7279 182.16C46.8719 182.16 46.9439 182.304 47.0879 182.376C47.0879 182.376 47.1599 182.376 47.2319 182.376C47.3759 182.376 47.4479 182.448 47.5919 182.52C47.5919 182.52 47.6639 182.52 47.7359 182.52C47.8799 182.52 47.9519 182.52 48.0959 182.592H48.2399C48.3839 182.592 48.4559 182.592 48.5999 182.592C48.5999 182.592 48.6719 182.592 48.7439 182.592C48.9599 182.592 49.1039 182.592 49.3199 182.592L170.64 183.024C170.856 183.024 171 183.024 171.216 183.024C171.216 183.024 171.288 183.024 171.36 183.024C171.504 183.024 171.648 183.024 171.72 183.024H171.864C172.008 183.024 172.08 183.024 172.224 182.952C172.224 182.952 172.296 182.952 172.368 182.952C172.512 182.952 172.584 182.88 172.728 182.808C172.728 182.808 172.8 182.808 172.872 182.808C173.016 182.808 173.088 182.664 173.232 182.592C173.232 182.592 173.232 182.592 173.304 182.592C173.448 182.52 173.52 182.448 173.664 182.376C173.808 182.304 173.88 182.16 174.024 182.088C174.168 181.944 174.24 181.872 174.384 181.728C173.664 180.288 172.656 178.992 171.576 178.128H171.864Z" stroke="#00396A" stroke-width="1.5" stroke-miterlimit="10"/>
<path d="M150.048 61.632C149.4 60.984 148.248 61.416 148.248 62.352V67.536V76.32C148.248 76.32 148.176 80.208 152.28 80.352C155.448 80.496 161.352 80.496 165.168 80.568C166.464 80.568 167.544 80.568 168.12 80.568C168.696 80.568 168.408 80.28 168.264 80.136L150.048 61.56V61.632Z" stroke="#00396A" stroke-width="1.5" stroke-miterlimit="10"/>
<path d="M103.968 185.256H17.928C17.928 185.256 17.928 180.648 23.472 179.928C29.016 179.28 31.896 167.976 38.304 167.544C44.712 167.112 46.08 173.952 54.288 170.64C62.496 167.328 65.448 166.824 69.696 167.976C74.88 169.416 75.456 172.224 78.048 176.112C80.568 180 86.04 180.648 89.352 179.64C92.664 178.632 101.304 175.68 103.968 185.184V185.256Z" fill="#3ACEE3"/>
<path d="M103.968 185.256H17.928C17.928 185.256 17.928 180.648 23.472 179.928C29.016 179.28 31.896 167.976 38.304 167.544C44.712 167.112 46.08 173.952 54.288 170.64C62.496 167.328 65.448 166.824 69.696 167.976C74.88 169.416 75.456 172.224 78.048 176.112C80.568 180 86.04 180.648 89.352 179.64C92.664 178.632 101.304 175.68 103.968 185.184V185.256Z" stroke="#00396A" stroke-width="1.5" stroke-miterlimit="10"/>
</g>
</g>
<defs>
<clipPath id="clip0_50055_80255">
<rect width="216" height="216" fill="white"/>
</clipPath>
</defs>
</svg>
