<svg width="216" height="216" viewBox="0 0 216 216" fill="none" xmlns="http://www.w3.org/2000/svg">
<g clip-path="url(#clip0_50071_6003)">
<mask id="mask0_50071_6003" style="mask-type:luminance" maskUnits="userSpaceOnUse" x="0" y="0" width="216" height="216">
<path d="M216 0H0V216H216V0Z" fill="white"/>
</mask>
<g mask="url(#mask0_50071_6003)">
<path d="M57.096 51.84C57.096 52.776 56.5919 53.64 55.7279 54.144L51.5519 56.376C51.5519 56.376 51.4799 56.376 51.4079 56.52L49.176 60.696C48.744 61.56 47.8799 62.064 46.8719 62.064C45.9359 62.064 44.9999 61.56 44.5679 60.696L42.3359 56.52C42.3359 56.52 42.3359 56.448 42.1919 56.376L38.0159 54.144C37.1519 53.712 36.6479 52.848 36.6479 51.84C36.6479 50.832 37.1519 50.04 38.0159 49.536L42.1919 47.304C42.1919 47.304 42.2639 47.304 42.3359 47.16L44.5679 42.984C44.9999 42.12 45.8639 41.616 46.8719 41.616C47.8799 41.616 48.744 42.12 49.176 42.984L51.4079 47.16C51.4079 47.16 51.4079 47.232 51.5519 47.304L55.7279 49.536C56.5919 49.968 57.096 50.832 57.096 51.768V51.84Z" fill="white"/>
<path d="M197.424 113.832H158.904C158.904 113.832 158.904 111.744 161.352 111.456C163.8 111.168 165.096 106.128 167.976 105.912C170.856 105.696 171.432 108.792 175.104 107.28C178.776 105.768 180.072 105.552 182.016 106.128C184.32 106.776 184.608 108 185.76 109.8C186.912 111.528 189.36 111.816 190.8 111.384C192.312 110.952 196.128 109.656 197.352 113.904L197.424 113.832Z" fill="#FFD276"/>
<path d="M197.424 113.832H158.904C158.904 113.832 158.904 111.744 161.352 111.456C163.8 111.168 165.096 106.128 167.976 105.912C170.856 105.696 171.432 108.792 175.104 107.28C178.776 105.768 180.072 105.552 182.016 106.128C184.32 106.776 184.608 108 185.76 109.8C186.912 111.528 189.36 111.816 190.8 111.384C192.312 110.952 196.128 109.656 197.352 113.904L197.424 113.832Z" stroke="#00396A" stroke-width="1.5" stroke-miterlimit="10"/>
<path d="M65.3042 190.152C70.4882 186.552 70.3442 177.48 65.0162 169.992C59.6882 162.432 51.1922 159.264 46.0802 162.864C40.8962 166.464 41.0402 175.536 46.3682 183.024C51.6962 190.584 60.1922 193.752 65.3042 190.152Z" fill="#F46F28"/>
<path d="M67.6081 188.568C72.7921 184.968 72.6481 175.896 67.3201 168.408C61.9921 160.848 53.4961 157.68 48.3841 161.28C43.2001 164.88 43.3441 173.952 48.6721 181.44C54.0001 189 62.4961 192.168 67.6081 188.568Z" fill="#FFA05C"/>
<path d="M65.5922 186.48C69.7682 183.456 69.6242 175.968 65.3762 169.704C61.0562 163.44 54.2162 160.776 50.0402 163.8C45.8642 166.824 46.0082 174.312 50.2562 180.576C54.5762 186.84 61.4162 189.504 65.5922 186.48Z" fill="#F46F28"/>
<path d="M49.2482 164.88C53.1362 162.144 59.8322 165.024 64.2962 171.288C67.7522 176.112 68.7602 181.584 67.1762 185.112C69.6962 181.8 68.9042 175.536 65.0162 169.992C60.6242 163.728 53.8562 160.92 49.9682 163.584C49.1042 164.16 48.4562 165.024 48.0242 166.032C48.3842 165.6 48.7442 165.24 49.1762 164.88H49.2482Z" fill="#B9471C"/>
<path d="M66.3842 189.216C66.0962 189.504 65.7362 189.864 65.3042 190.08C60.1202 193.68 51.6962 190.512 46.3682 182.952C41.0402 175.392 40.8962 166.392 46.0802 162.792C46.4402 162.504 46.8722 162.288 47.3042 162.072C43.2722 166.104 43.7042 174.384 48.6722 181.368C53.5682 188.352 61.2002 191.592 66.3842 189.144V189.216Z" stroke="#00396A" stroke-width="1.5" stroke-miterlimit="10"/>
<path d="M67.6083 188.568C67.2483 188.856 66.8163 189.072 66.3843 189.288C61.2003 191.736 53.5683 188.424 48.6723 181.512C43.7763 174.528 43.2723 166.248 47.3043 162.216C47.5923 161.856 47.9523 161.568 48.3843 161.352C53.4963 157.752 61.9923 160.92 67.3203 168.48C72.6483 176.04 72.7923 185.04 67.6083 188.64V188.568Z" stroke="#00396A" stroke-width="1.5" stroke-miterlimit="10"/>
<path d="M65.5922 186.48C69.7682 183.456 69.6242 175.968 65.3762 169.704C61.0562 163.44 54.2162 160.776 50.0402 163.8C45.8642 166.824 46.0082 174.312 50.2562 180.576C54.5762 186.84 61.4162 189.504 65.5922 186.48Z" stroke="#00396A" stroke-width="1.5" stroke-miterlimit="10"/>
<path d="M162.792 32.256V187.416C162.792 193.68 157.68 198.792 151.416 198.792H72.3601C70.9201 198.792 69.5521 198.504 68.3281 198.072C64.0081 196.416 60.9841 192.312 60.9841 187.488V32.256C60.9841 27.432 64.0081 23.256 68.3281 21.672C69.6241 21.168 70.9921 20.952 72.3601 20.952H151.416C157.68 20.952 162.792 26.064 162.792 32.328V32.256Z" fill="#00396A"/>
<path d="M149.544 43.128V187.416C149.544 193.248 144.792 198 138.888 198H72.0002C66.3122 198 61.4162 193.68 61.1282 187.992C61.1282 187.776 61.1282 187.56 61.1282 187.416V32.256C61.1282 32.04 61.1282 31.824 61.1282 31.68C61.4162 25.992 66.3122 21.672 72.0002 21.672H127.944C139.824 21.672 149.472 31.32 149.472 43.128H149.544Z" fill="#005297"/>
<path d="M134.568 37.08C136.296 37.08 137.736 35.64 137.736 33.912C137.736 32.184 136.296 30.744 134.568 30.744C132.84 30.744 131.4 32.184 131.4 33.912C131.4 35.64 132.84 37.08 134.568 37.08Z" fill="#00396A"/>
<path d="M160.992 57.096V167.112C160.992 173.016 156.168 177.84 150.192 177.84H73.5122C72.1442 177.84 70.8482 177.624 69.6962 177.12C65.6642 175.608 62.7842 171.648 62.7842 167.112V57.096C62.7842 52.488 65.6642 48.6 69.6962 47.088C70.9202 46.656 72.2162 46.368 73.5122 46.368H150.192C156.096 46.368 160.992 51.192 160.992 57.096Z" fill="white"/>
<path d="M122.904 182.808H101.736C99.4321 182.808 97.6321 184.608 97.6321 186.912V187.992C97.6321 190.224 99.5041 192.096 101.736 192.096H122.904C125.208 192.096 127.008 190.296 127.008 187.992V186.912C127.008 184.68 125.136 182.808 122.904 182.808Z" fill="#F46F28"/>
<path d="M162.792 32.256V187.416C162.792 193.68 157.68 198.792 151.416 198.792H72.3601C70.9201 198.792 69.5521 198.504 68.3281 198.072C64.0081 196.416 60.9841 192.312 60.9841 187.488V32.256C60.9841 27.432 64.0081 23.256 68.3281 21.672C69.6241 21.168 70.9921 20.952 72.3601 20.952H151.416C157.68 20.952 162.792 26.064 162.792 32.328V32.256Z" stroke="#00396A" stroke-width="1.5" stroke-miterlimit="10"/>
<path d="M134.568 37.08C136.296 37.08 137.736 35.64 137.736 33.912C137.736 32.184 136.296 30.744 134.568 30.744C132.84 30.744 131.4 32.184 131.4 33.912C131.4 35.64 132.84 37.08 134.568 37.08Z" stroke="#00396A" stroke-width="1.5" stroke-miterlimit="10"/>
<path d="M160.992 57.096V167.112C160.992 173.016 156.168 177.84 150.192 177.84H73.5122C72.1442 177.84 70.8482 177.624 69.6962 177.12C65.6642 175.608 62.7842 171.648 62.7842 167.112V57.096C62.7842 52.488 65.6642 48.6 69.6962 47.088C70.9202 46.656 72.2162 46.368 73.5122 46.368H150.192C156.096 46.368 160.992 51.192 160.992 57.096Z" stroke="#00396A" stroke-width="1.5" stroke-miterlimit="10"/>
<path d="M122.904 182.808H101.736C99.4321 182.808 97.6321 184.608 97.6321 186.912V187.992C97.6321 190.224 99.5041 192.096 101.736 192.096H122.904C125.208 192.096 127.008 190.296 127.008 187.992V186.912C127.008 184.68 125.136 182.808 122.904 182.808Z" stroke="#00396A" stroke-width="1.5" stroke-miterlimit="10"/>
<path d="M130.32 79.344H93.3122C85.4388 79.344 79.0562 85.7266 79.0562 93.6V130.608C79.0562 138.481 85.4388 144.864 93.3122 144.864H130.32C138.194 144.864 144.576 138.481 144.576 130.608V93.6C144.576 85.7266 138.194 79.344 130.32 79.344Z" fill="#0054A3"/>
<path d="M89.7121 93.24H99.4321C101.52 93.24 103.248 93.744 104.472 94.824C105.696 95.904 106.344 97.272 106.344 99.072C106.344 100.872 106.128 100.8 105.768 101.52C105.408 102.24 104.832 102.816 104.04 103.248C104.976 103.608 105.624 104.184 106.128 104.976C106.632 105.768 106.848 106.776 106.848 107.928C106.848 109.08 106.56 110.376 105.912 111.312C105.264 112.248 104.4 113.04 103.248 113.544C102.096 114.048 100.728 114.336 99.1441 114.336H89.5681V93.168L89.7121 93.24ZM95.3281 97.848V101.304H98.7841C99.3601 101.304 99.8641 101.16 100.224 100.8C100.584 100.512 100.728 100.08 100.728 99.504C100.728 98.424 100.08 97.848 98.7841 97.848H95.3281ZM95.3281 105.84V109.8H99.0001C99.7201 109.8 100.296 109.656 100.728 109.296C101.16 108.936 101.304 108.432 101.304 107.856C101.304 107.28 101.088 106.776 100.728 106.416C100.296 106.056 99.7921 105.912 99.0001 105.912H95.3281V105.84Z" fill="#F7F7F7"/>
<path d="M127.944 93.24H133.56V114.408H127.944V93.24Z" fill="#F7F7F7"/>
<path d="M124.2 101.736C124.632 101.16 124.992 100.368 125.064 99.288C125.064 99.288 125.064 99.144 125.064 99.072C125.064 99 125.064 98.928 125.064 98.784C125.064 98.64 125.064 98.496 125.064 98.424C124.992 96.624 124.344 95.4 123.48 94.608C122.4 93.672 120.888 93.312 119.16 93.312H108.072V114.48H113.688V105.696C113.688 105.696 115.128 105.408 116.28 105.912C117.504 106.416 119.232 109.728 120.528 114.336H126V114.12C125.568 112.968 124.128 108.216 123.12 105.984C121.968 103.536 121.32 103.536 121.248 103.536C121.392 103.536 121.968 103.392 122.688 103.032C123.264 102.672 124.056 101.88 124.056 101.88L124.2 101.736ZM118.872 101.016C118.44 101.376 117.432 101.736 116.712 101.736H113.688V97.056H116.712C117.432 97.056 118.296 97.416 118.728 97.776C119.16 98.136 119.448 98.856 119.448 99.432C119.448 100.008 119.232 100.656 118.8 101.016H118.872Z" fill="#F7F7F7"/>
<path d="M114.12 117.648C112.176 117.648 110.448 118.368 109.296 119.592C108.072 118.368 106.344 117.648 104.472 117.648C100.8 117.648 97.8481 120.384 97.8481 123.696V130.464H101.376V123.696C101.376 122.328 102.744 121.176 104.472 121.176C106.2 121.176 107.568 122.328 107.568 123.696V130.464H111.096V123.696C111.096 122.328 112.464 121.176 114.192 121.176C115.92 121.176 117.288 122.328 117.288 123.696V130.464H120.816V123.696C120.816 120.384 117.864 117.648 114.192 117.648H114.12Z" fill="#FF6500"/>
<path d="M128.88 117.648C125.208 117.648 122.256 120.6 122.256 124.272C122.256 127.944 125.208 130.896 128.88 130.896C132.552 130.896 135.504 127.944 135.504 124.272C135.504 120.6 132.552 117.648 128.88 117.648ZM128.88 127.44C127.152 127.44 125.784 126.072 125.784 124.344C125.784 122.616 127.152 121.248 128.88 121.248C130.608 121.248 131.976 122.616 131.976 124.344C131.976 126.072 130.608 127.44 128.88 127.44Z" fill="#FF6500"/>
<path d="M57.096 51.84C57.096 52.776 56.592 53.64 55.7279 54.144L51.5519 56.376C51.5519 56.376 51.4799 56.376 51.4079 56.52L49.176 60.696C48.744 61.56 47.8799 62.064 46.8719 62.064C45.9359 62.064 44.9999 61.56 44.5679 60.696L42.3359 56.52C42.3359 56.52 42.3359 56.448 42.1919 56.376L38.0159 54.144C37.1519 53.712 36.6479 52.848 36.6479 51.84C36.6479 50.832 37.1519 50.04 38.0159 49.536L42.1919 47.304C42.1919 47.304 42.2639 47.304 42.3359 47.16L44.5679 42.984C44.9999 42.12 45.8639 41.616 46.8719 41.616C47.8799 41.616 48.744 42.12 49.176 42.984L51.4079 47.16C51.4079 47.16 51.4079 47.232 51.5519 47.304L55.7279 49.536C56.592 49.968 57.096 50.832 57.096 51.768V51.84Z" stroke="#00396A" stroke-width="1.5" stroke-miterlimit="10"/>
<path d="M184.824 95.4C184.824 96.048 184.464 96.624 183.888 96.912L181.152 98.352C181.152 98.352 181.152 98.352 181.08 98.424L179.64 101.16C179.352 101.736 178.776 102.096 178.128 102.096C177.48 102.096 176.904 101.736 176.616 101.232L175.176 98.496C175.176 98.496 175.176 98.496 175.104 98.424L172.368 96.984C171.792 96.696 171.432 96.12 171.432 95.472C171.432 94.824 171.792 94.248 172.368 93.96L175.104 92.52C175.104 92.52 175.104 92.52 175.176 92.448L176.616 89.712C176.904 89.136 177.48 88.776 178.128 88.776C178.776 88.776 179.352 89.136 179.64 89.712L181.08 92.448C181.08 92.448 181.08 92.448 181.152 92.52L183.888 93.96C184.464 94.248 184.824 94.824 184.824 95.472V95.4Z" fill="#FE9D2C"/>
<path d="M184.824 95.4C184.824 96.048 184.464 96.624 183.888 96.912L181.152 98.352C181.152 98.352 181.152 98.352 181.08 98.424L179.64 101.16C179.352 101.736 178.776 102.096 178.128 102.096C177.48 102.096 176.904 101.736 176.616 101.232L175.176 98.496C175.176 98.496 175.176 98.496 175.104 98.424L172.368 96.984C171.792 96.696 171.432 96.12 171.432 95.472C171.432 94.824 171.792 94.248 172.368 93.96L175.104 92.52C175.104 92.52 175.104 92.52 175.176 92.448L176.616 89.712C176.904 89.136 177.48 88.776 178.128 88.776C178.776 88.776 179.352 89.136 179.64 89.712L181.08 92.448C181.08 92.448 181.08 92.448 181.152 92.52L183.888 93.96C184.464 94.248 184.824 94.824 184.824 95.472V95.4Z" stroke="#00396A" stroke-width="1.5" stroke-miterlimit="10"/>
<path d="M56.7361 138.312C56.7361 138.744 56.4481 139.176 56.0881 139.392L54.0721 140.472L52.9921 142.488C52.7761 142.92 52.3441 143.136 51.9121 143.136C51.4801 143.136 51.0481 142.92 50.8321 142.488L49.7521 140.472L47.7361 139.392C47.3041 139.176 47.0881 138.744 47.0881 138.312C47.0881 137.88 47.3761 137.448 47.7361 137.232L49.7521 136.152L50.8321 134.136C51.0481 133.704 51.4801 133.488 51.9121 133.488C52.3441 133.488 52.7761 133.776 52.9921 134.136L54.0721 136.152L56.0881 137.232C56.5201 137.448 56.7361 137.88 56.7361 138.312Z" fill="#63A0FF"/>
<path d="M56.7361 138.312C56.7361 138.744 56.4481 139.176 56.0881 139.392L54.0721 140.472L52.9921 142.488C52.7761 142.92 52.3441 143.136 51.9121 143.136C51.4801 143.136 51.0481 142.92 50.8321 142.488L49.7521 140.472L47.7361 139.392C47.3041 139.176 47.0881 138.744 47.0881 138.312C47.0881 137.88 47.3761 137.448 47.7361 137.232L49.7521 136.152L50.8321 134.136C51.0481 133.704 51.4801 133.488 51.9121 133.488C52.3441 133.488 52.7761 133.776 52.9921 134.136L54.0721 136.152L56.0881 137.232C56.5201 137.448 56.7361 137.88 56.7361 138.312Z" stroke="#00396A" stroke-width="1.5" stroke-miterlimit="10"/>
<path d="M112.32 200.88H27.2161C27.2161 200.88 27.2161 196.272 32.6881 195.624C38.1601 194.976 41.0401 183.816 47.3761 183.384C53.7121 182.952 55.0801 189.72 63.1441 186.408C71.2801 183.096 74.1601 182.664 78.4081 183.816C83.5201 185.256 84.0961 187.992 86.6161 191.88C89.1361 195.696 94.5361 196.344 97.7761 195.408C101.088 194.4 109.584 191.52 112.248 200.952L112.32 200.88Z" fill="#3ACEE3"/>
<path d="M112.32 200.88H27.2161C27.2161 200.88 27.2161 196.272 32.6881 195.624C38.1601 194.976 41.0401 183.816 47.3761 183.384C53.7121 182.952 55.0801 189.72 63.1441 186.408C71.2801 183.096 74.1601 182.664 78.4081 183.816C83.5201 185.256 84.0961 187.992 86.6161 191.88C89.1361 195.696 94.5361 196.344 97.7761 195.408C101.088 194.4 109.584 191.52 112.248 200.952L112.32 200.88Z" stroke="#00396A" stroke-width="1.5" stroke-miterlimit="10"/>
</g>
</g>
<defs>
<clipPath id="clip0_50071_6003">
<rect width="216" height="216" fill="white"/>
</clipPath>
</defs>
</svg>
