<svg width="216" height="216" viewBox="0 0 216 216" fill="none" xmlns="http://www.w3.org/2000/svg">
<g clip-path="url(#clip0_50063_81425)">
<mask id="mask0_50063_81425" style="mask-type:luminance" maskUnits="userSpaceOnUse" x="0" y="0" width="216" height="216">
<path d="M216 0H0V216H216V0Z" fill="white"/>
</mask>
<g mask="url(#mask0_50063_81425)">
<path d="M178.056 50.112C178.056 51.048 177.552 51.984 176.688 52.416L172.512 54.648C172.512 54.648 172.44 54.648 172.368 54.792L170.136 58.968C169.704 59.832 168.768 60.336 167.832 60.336C166.896 60.336 165.96 59.832 165.528 58.968L163.296 54.792C163.296 54.792 163.296 54.72 163.152 54.648L158.976 52.416C158.112 51.984 157.608 51.048 157.608 50.112C157.608 49.176 158.112 48.24 158.976 47.808L163.224 45.576C163.224 45.576 163.296 45.576 163.368 45.432L165.6 41.256C166.032 40.392 166.968 39.888 167.904 39.888C168.84 39.888 169.776 40.392 170.208 41.256L172.44 45.432C172.44 45.432 172.44 45.504 172.584 45.576L176.76 47.808C177.624 48.24 178.128 49.104 178.128 50.112H178.056Z" fill="white"/>
<path d="M76.464 54.864H37.512C37.512 54.864 37.512 52.776 40.032 52.488C42.552 52.2 43.848 47.088 46.728 46.872C49.608 46.656 50.256 49.752 53.928 48.24C57.672 46.728 58.968 46.512 60.912 47.016C63.288 47.664 63.504 48.96 64.656 50.688C65.808 52.416 68.256 52.704 69.768 52.272C71.28 51.84 75.168 50.472 76.392 54.792L76.464 54.864Z" fill="#FFD276"/>
<path d="M76.464 54.864H37.512C37.512 54.864 37.512 52.776 40.032 52.488C42.552 52.2 43.848 47.088 46.728 46.872C49.608 46.656 50.256 49.752 53.928 48.24C57.672 46.728 58.968 46.512 60.912 47.016C63.288 47.664 63.504 48.96 64.656 50.688C65.808 52.416 68.256 52.704 69.768 52.272C71.28 51.84 75.168 50.472 76.392 54.792L76.464 54.864Z" stroke="#00396A" stroke-width="1.5" stroke-miterlimit="10"/>
<path d="M178.056 50.112C178.056 51.048 177.552 51.984 176.688 52.416L172.512 54.648C172.512 54.648 172.44 54.648 172.368 54.792L170.136 58.968C169.704 59.832 168.768 60.336 167.832 60.336C166.896 60.336 165.96 59.832 165.528 58.968L163.296 54.792C163.296 54.792 163.296 54.72 163.152 54.648L158.976 52.416C158.112 51.984 157.608 51.048 157.608 50.112C157.608 49.176 158.112 48.24 158.976 47.808L163.224 45.576C163.224 45.576 163.296 45.576 163.368 45.432L165.6 41.256C166.032 40.392 166.968 39.888 167.904 39.888C168.84 39.888 169.776 40.392 170.208 41.256L172.44 45.432C172.44 45.432 172.44 45.504 172.584 45.576L176.76 47.808C177.624 48.24 178.128 49.104 178.128 50.112H178.056Z" stroke="#00396A" stroke-width="1.5" stroke-miterlimit="10"/>
<path d="M36.432 122.472C36.432 123.12 36.072 123.696 35.496 123.984L32.688 125.496C32.688 125.496 32.688 125.496 32.616 125.568L31.104 128.376C30.816 128.952 30.24 129.312 29.592 129.312C28.944 129.312 28.368 128.952 28.08 128.376L26.568 125.568C26.568 125.568 26.568 125.568 26.496 125.496L23.688 123.984C23.112 123.696 22.752 123.12 22.752 122.472C22.752 121.824 23.112 121.248 23.688 120.96L26.496 119.448C26.496 119.448 26.496 119.448 26.568 119.376L28.08 116.568C28.368 115.992 28.944 115.632 29.592 115.632C30.24 115.632 30.816 115.992 31.104 116.568L32.616 119.376C32.616 119.376 32.616 119.376 32.688 119.448L35.496 120.96C36.072 121.248 36.432 121.824 36.432 122.472Z" fill="#FE9D2C"/>
<path d="M36.432 122.472C36.432 123.12 36.072 123.696 35.496 123.984L32.688 125.496C32.688 125.496 32.688 125.496 32.616 125.568L31.104 128.376C30.816 128.952 30.24 129.312 29.592 129.312C28.944 129.312 28.368 128.952 28.08 128.376L26.568 125.568C26.568 125.568 26.568 125.568 26.496 125.496L23.688 123.984C23.112 123.696 22.752 123.12 22.752 122.472C22.752 121.824 23.112 121.248 23.688 120.96L26.496 119.448C26.496 119.448 26.496 119.448 26.568 119.376L28.08 116.568C28.368 115.992 28.944 115.632 29.592 115.632C30.24 115.632 30.816 115.992 31.104 116.568L32.616 119.376C32.616 119.376 32.616 119.376 32.688 119.448L35.496 120.96C36.072 121.248 36.432 121.824 36.432 122.472Z" stroke="#00396A" stroke-width="1.5" stroke-miterlimit="10"/>
<path d="M198 165.312C198 165.96 197.64 166.536 197.064 166.824L194.256 168.336C194.256 168.336 194.256 168.336 194.184 168.408L192.672 171.216C192.384 171.792 191.808 172.152 191.16 172.152C190.512 172.152 189.936 171.792 189.648 171.216L188.136 168.408C188.136 168.408 188.136 168.408 188.064 168.336L185.256 166.824C184.68 166.536 184.32 165.96 184.32 165.312C184.32 164.664 184.68 164.088 185.256 163.8L188.064 162.288C188.064 162.288 188.064 162.288 188.136 162.216L189.648 159.408C189.936 158.832 190.512 158.472 191.16 158.472C191.808 158.472 192.384 158.832 192.672 159.408L194.184 162.216C194.184 162.216 194.184 162.216 194.256 162.288L197.064 163.8C197.64 164.088 198 164.664 198 165.312Z" fill="#FE9D2C"/>
<path d="M198 165.312C198 165.96 197.64 166.536 197.064 166.824L194.256 168.336C194.256 168.336 194.256 168.336 194.184 168.408L192.672 171.216C192.384 171.792 191.808 172.152 191.16 172.152C190.512 172.152 189.936 171.792 189.648 171.216L188.136 168.408C188.136 168.408 188.136 168.408 188.064 168.336L185.256 166.824C184.68 166.536 184.32 165.96 184.32 165.312C184.32 164.664 184.68 164.088 185.256 163.8L188.064 162.288C188.064 162.288 188.064 162.288 188.136 162.216L189.648 159.408C189.936 158.832 190.512 158.472 191.16 158.472C191.808 158.472 192.384 158.832 192.672 159.408L194.184 162.216C194.184 162.216 194.184 162.216 194.256 162.288L197.064 163.8C197.64 164.088 198 164.664 198 165.312Z" stroke="#00396A" stroke-width="1.5" stroke-miterlimit="10"/>
<path d="M44.856 92.88C44.856 92.592 44.928 92.304 45 91.944C44.928 92.232 44.856 92.592 44.856 92.88Z" fill="#005493"/>
<path d="M44.5681 178.92C44.5681 178.56 44.4961 178.272 44.4961 177.912C44.4961 178.272 44.4961 178.632 44.5681 178.92Z" fill="#005493"/>
<path d="M172.296 94.464C173.52 93.528 174.672 91.944 175.392 90.288C174.672 88.632 173.52 87.048 172.296 86.112L168.696 83.376V97.272L172.224 94.536L172.296 94.464Z" fill="#005493"/>
<path d="M114.84 41.76C112.608 40.032 108.936 40.032 106.704 41.76L83.1599 59.616L138.24 59.832L114.84 41.76Z" fill="#005493"/>
<path d="M175.392 90.36C175.536 90.72 175.68 91.008 175.752 91.368C175.608 91.008 175.536 90.72 175.392 90.36Z" fill="#005493"/>
<path d="M176.112 92.448C176.184 92.736 176.256 93.096 176.256 93.384C176.256 93.096 176.184 92.808 176.112 92.448Z" fill="#005493"/>
<path d="M175.824 91.368C175.896 91.656 176.04 92.016 176.112 92.304C176.04 92.016 175.968 91.656 175.824 91.368Z" fill="#005493"/>
<path d="M48.8161 94.032L52.9201 97.2V82.512L48.8161 85.68C47.3041 86.832 46.0081 88.776 45.2881 90.864C45.4321 90.504 45.5041 90.216 45.6481 89.856C46.3681 91.512 47.5201 93.096 48.7441 94.032H48.8161Z" fill="#005493"/>
<path d="M176.04 178.416C176.04 178.776 176.04 179.136 175.896 179.424C175.896 179.064 175.968 178.776 176.04 178.416Z" fill="#005493"/>
<path d="M168.768 83.376C168.768 81.864 167.544 80.64 166.032 80.64C164.52 80.64 165.456 80.64 165.168 80.64C161.352 80.64 155.448 80.568 152.28 80.424C148.176 80.28 148.248 76.392 148.248 76.392V67.608V62.64C148.248 61.128 147.024 59.904 145.512 59.904H138.168L83.0879 59.688H56.5199C54.5759 59.616 52.9919 61.128 52.9919 63.072V82.584L52.8479 97.272L68.3999 109.296L71.7119 111.888L86.0399 122.904L91.5839 127.224L103.176 136.152L106.272 133.776C108.504 132.048 112.176 132.12 114.408 133.776L117.432 136.152L129.096 127.296L134.712 123.048L149.112 112.104L152.424 109.584L168.552 97.272V83.376H168.768Z" fill="white"/>
<path d="M168.768 83.376C168.768 81.864 167.544 80.64 166.032 80.64C164.52 80.64 165.456 80.64 165.168 80.64C161.352 80.64 155.448 80.568 152.28 80.424C148.176 80.28 148.248 76.392 148.248 76.392V67.608V62.64C148.248 61.128 147.024 59.904 145.512 59.904H138.168L83.0879 59.688H56.5199C54.5759 59.616 52.9919 61.128 52.9919 63.072V82.584L52.8479 97.272L68.3999 109.296L71.7119 111.888L86.0399 122.904L91.5839 127.224L103.176 136.152L106.272 133.776C108.504 132.048 112.176 132.12 114.408 133.776L117.432 136.152L129.096 127.296L134.712 123.048L149.112 112.104L152.424 109.584L168.552 97.272V83.376H168.768Z" stroke="#00396A" stroke-width="1.5" stroke-miterlimit="10"/>
<path d="M173.016 183.096C172.872 183.096 172.8 183.168 172.656 183.24C172.8 183.24 172.872 183.168 173.016 183.096Z" fill="#9DD5FF"/>
<path d="M172.512 183.24C172.368 183.24 172.296 183.24 172.152 183.312C172.296 183.312 172.368 183.312 172.512 183.24Z" fill="#9DD5FF"/>
<path d="M174.744 181.728C174.6 181.872 174.528 182.016 174.384 182.088C174.528 181.944 174.6 181.872 174.744 181.728Z" fill="#9DD5FF"/>
<path d="M173.448 182.808C173.304 182.808 173.232 182.952 173.088 183.024C173.232 183.024 173.304 182.88 173.448 182.808Z" fill="#9DD5FF"/>
<path d="M47.808 182.736C47.664 182.736 47.592 182.664 47.448 182.592C47.592 182.592 47.664 182.664 47.808 182.736Z" fill="#9DD5FF"/>
<path d="M46.08 181.656C45.936 181.512 45.864 181.44 45.72 181.296C45.864 181.44 45.936 181.584 46.08 181.656Z" fill="#9DD5FF"/>
<path d="M48.3119 182.88C48.1679 182.88 48.0959 182.88 47.9519 182.808C48.0959 182.808 48.1679 182.808 48.3119 182.88Z" fill="#9DD5FF"/>
<path d="M47.3041 182.52C47.1601 182.52 47.0881 182.376 46.9441 182.304C47.0881 182.304 47.1601 182.448 47.3041 182.52Z" fill="#9DD5FF"/>
<path d="M125.856 142.488L122.616 140.04L125.856 142.488Z" fill="#9DD5FF"/>
<path d="M94.968 142.416L98.136 139.968L94.968 142.416Z" fill="#9DD5FF"/>
<path d="M103.248 136.08L100.512 138.168L98.0641 140.04L94.8961 142.488L58.5361 170.136L48.4561 177.768C47.3761 178.632 46.3681 179.928 45.6481 181.368H45.5761C45.1441 180.792 44.8561 180.216 44.6401 179.496C44.6401 179.352 44.5681 179.208 44.4961 178.992C44.4241 178.632 44.3521 178.344 44.4241 177.984L44.7121 93.96C44.7121 93.672 44.7121 93.384 44.7121 93.024C44.7121 93.024 44.7121 93.024 44.7121 92.952C44.7121 92.664 44.8561 92.304 44.9281 92.016C44.9281 92.016 44.9281 92.016 44.9281 91.944C45.0001 91.656 45.1441 91.296 45.2161 91.008C45.2161 91.008 45.2161 91.008 45.2161 90.936C45.2881 90.648 45.4321 90.288 45.6481 89.928C46.3681 91.584 47.4481 93.168 48.7441 94.104L52.8481 97.272L68.4001 109.296L71.7121 111.888L86.0401 122.904L91.5841 127.224L103.176 136.152L103.248 136.08Z" fill="#F46F28"/>
<path d="M175.824 91.368C175.968 91.656 176.04 92.016 176.112 92.304C176.184 92.736 176.256 93.024 176.256 93.384C176.256 93.384 176.256 93.384 176.256 93.456C176.256 93.744 176.256 94.104 176.256 94.392L175.968 178.416C175.968 178.776 175.968 179.136 175.824 179.424C175.824 179.568 175.752 179.784 175.68 179.928C175.464 180.576 175.176 181.152 174.744 181.656H174.672C173.952 180.288 172.944 178.992 171.864 178.128L161.856 170.352L117.432 136.08L129.096 127.224L134.712 122.976L149.04 112.032L152.352 109.512L168.48 97.2L172.08 94.464C173.304 93.528 174.456 91.944 175.176 90.288C175.32 90.648 175.464 90.936 175.536 91.296C175.536 91.296 175.536 91.296 175.536 91.368H175.824Z" fill="#F46F28"/>
<path d="M122.616 140.04L120.24 138.24L122.616 140.04Z" fill="#0068A4"/>
<path d="M100.584 138.168L98.136 139.968L100.584 138.168Z" fill="#0068A4"/>
<path d="M171.936 178.128L161.928 170.352L125.784 142.488L122.616 140.04L120.24 138.168L117.504 136.08L114.48 133.704C112.248 131.976 108.576 131.976 106.344 133.704L103.248 136.008L100.512 138.096L98.0639 139.968L94.896 142.416L58.536 170.064L48.456 177.696C47.376 178.56 46.3679 179.856 45.6479 181.296C45.7919 181.44 45.8639 181.584 46.0079 181.656C46.1519 181.728 46.2239 181.872 46.3679 181.944C46.5119 182.016 46.5839 182.088 46.7279 182.16C46.7279 182.16 46.7279 182.16 46.7999 182.16C46.9439 182.16 47.0159 182.304 47.1599 182.376C47.1599 182.376 47.2319 182.376 47.3039 182.376C47.4479 182.376 47.5199 182.448 47.6639 182.52C47.6639 182.52 47.7359 182.52 47.8079 182.52C47.9519 182.52 48.0239 182.52 48.1679 182.592H48.3119C48.4559 182.592 48.5279 182.592 48.6719 182.592C48.6719 182.592 48.744 182.592 48.816 182.592C49.032 182.592 49.1759 182.592 49.3919 182.592L170.712 183.024C170.928 183.024 171.072 183.024 171.288 183.024C171.288 183.024 171.36 183.024 171.432 183.024C171.576 183.024 171.72 183.024 171.792 183.024H171.936C172.08 183.024 172.152 183.024 172.296 182.952C172.296 182.952 172.368 182.952 172.44 182.952C172.584 182.952 172.656 182.88 172.8 182.808C172.8 182.808 172.872 182.808 172.944 182.808C173.088 182.808 173.16 182.664 173.304 182.592C173.304 182.592 173.304 182.592 173.376 182.592C173.52 182.52 173.592 182.448 173.736 182.376C173.88 182.304 173.952 182.16 174.096 182.088C174.24 181.944 174.312 181.872 174.456 181.728C173.736 180.288 172.728 178.992 171.648 178.128H171.936Z" fill="#FFA05C"/>
<path d="M149.472 61.056C149.04 60.624 148.32 60.912 148.32 61.56V67.608V76.392C148.32 76.392 148.248 80.28 152.352 80.424C155.52 80.568 161.424 80.568 165.24 80.64C165.96 80.64 166.608 80.64 167.184 80.64C167.76 80.64 168.12 79.92 167.688 79.488L149.544 61.056H149.472Z" fill="#63A0FF"/>
<path d="M44.856 92.88C44.856 92.592 44.928 92.304 45 91.944C44.928 92.232 44.856 92.592 44.856 92.88Z" stroke="#00396A" stroke-width="1.5" stroke-miterlimit="10"/>
<path d="M44.7839 93.888C44.7839 93.6 44.7839 93.312 44.7839 92.952C44.7839 93.24 44.7839 93.6 44.7839 93.888Z" stroke="#00396A" stroke-width="1.5" stroke-miterlimit="10"/>
<path d="M44.5681 178.92C44.5681 178.56 44.4961 178.272 44.4961 177.912C44.4961 178.272 44.4961 178.632 44.5681 178.92Z" stroke="#00396A" stroke-width="1.5" stroke-miterlimit="10"/>
<path d="M45.6479 181.152C45.2159 180.648 44.9279 180.072 44.7119 179.424" stroke="#00396A" stroke-width="1.5" stroke-miterlimit="10"/>
<path d="M172.296 94.464C173.52 93.528 174.672 91.944 175.392 90.288C174.672 88.632 173.52 87.048 172.296 86.112L168.696 83.376V97.272L172.224 94.536L172.296 94.464Z" stroke="#00396A" stroke-width="1.5" stroke-miterlimit="10"/>
<path d="M176.328 93.456C176.328 93.744 176.328 94.104 176.328 94.392C176.328 94.104 176.328 93.816 176.328 93.456Z" stroke="#00396A" stroke-width="1.5" stroke-miterlimit="10"/>
<path d="M114.84 41.76C112.608 40.032 108.936 40.032 106.704 41.76L83.1599 59.616L138.24 59.832L114.84 41.76Z" stroke="#00396A" stroke-width="1.5" stroke-miterlimit="10"/>
<path d="M175.392 90.36C175.536 90.72 175.68 91.008 175.752 91.368C175.608 91.008 175.536 90.72 175.392 90.36Z" stroke="#00396A" stroke-width="1.5" stroke-miterlimit="10"/>
<path d="M176.112 92.448C176.184 92.736 176.256 93.096 176.256 93.384C176.256 93.096 176.184 92.808 176.112 92.448Z" stroke="#00396A" stroke-width="1.5" stroke-miterlimit="10"/>
<path d="M175.824 91.368C175.896 91.656 176.04 92.016 176.112 92.304C176.04 92.016 175.968 91.656 175.824 91.368Z" stroke="#00396A" stroke-width="1.5" stroke-miterlimit="10"/>
<path d="M45.072 91.872C45.144 91.584 45.216 91.224 45.36 90.936" stroke="#00396A" stroke-width="1.5" stroke-miterlimit="10"/>
<path d="M175.824 179.928C175.608 180.576 175.32 181.152 174.888 181.656" stroke="#00396A" stroke-width="1.5" stroke-miterlimit="10"/>
<path d="M48.8161 94.032L52.9201 97.2V82.512L48.8161 85.68C47.3041 86.832 46.0081 88.776 45.2881 90.864C45.4321 90.504 45.5041 90.216 45.6481 89.856C46.3681 91.512 47.5201 93.096 48.7441 94.032H48.8161Z" stroke="#00396A" stroke-width="1.5" stroke-miterlimit="10"/>
<path d="M176.04 178.416C176.04 178.776 176.04 179.136 175.896 179.424C175.896 179.064 175.968 178.776 176.04 178.416Z" stroke="#00396A" stroke-width="1.5" stroke-miterlimit="10"/>
<path d="M45 91.944C45 91.944 45 91.872 45 91.8C45 91.8 45 91.872 45 91.944Z" stroke="#00396A" stroke-width="1.5" stroke-miterlimit="10"/>
<path d="M176.112 92.376C176.112 92.376 176.112 92.448 176.112 92.52C176.112 92.52 176.112 92.448 176.112 92.376Z" stroke="#00396A" stroke-width="1.5" stroke-miterlimit="10"/>
<path d="M45.3601 90.864C45.3601 90.864 45.3601 90.864 45.3601 90.792C45.3601 90.792 45.3601 90.792 45.3601 90.864Z" stroke="#00396A" stroke-width="1.5" stroke-miterlimit="10"/>
<path d="M44.856 92.952C44.856 92.952 44.856 92.952 44.856 92.88C44.856 92.88 44.856 92.88 44.856 92.952Z" stroke="#00396A" stroke-width="1.5" stroke-miterlimit="10"/>
<path d="M175.752 91.296C175.752 91.296 175.752 91.296 175.752 91.368C175.752 91.368 175.752 91.368 175.752 91.296Z" stroke="#00396A" stroke-width="1.5" stroke-miterlimit="10"/>
<path d="M176.256 93.384C176.256 93.384 176.256 93.384 176.256 93.456C176.256 93.456 176.256 93.456 176.256 93.384Z" stroke="#00396A" stroke-width="1.5" stroke-miterlimit="10"/>
<path d="M173.016 183.096C172.872 183.096 172.8 183.168 172.656 183.24C172.8 183.24 172.872 183.168 173.016 183.096Z" stroke="#00396A" stroke-width="1.5" stroke-miterlimit="10"/>
<path d="M172.512 183.24C172.368 183.24 172.296 183.24 172.152 183.312C172.296 183.312 172.368 183.312 172.512 183.24Z" stroke="#00396A" stroke-width="1.5" stroke-miterlimit="10"/>
<path d="M174.744 181.728C174.6 181.872 174.528 182.016 174.384 182.088C174.528 181.944 174.6 181.872 174.744 181.728Z" stroke="#00396A" stroke-width="1.5" stroke-miterlimit="10"/>
<path d="M173.448 182.808C173.304 182.808 173.232 182.952 173.088 183.024C173.232 183.024 173.304 182.88 173.448 182.808Z" stroke="#00396A" stroke-width="1.5" stroke-miterlimit="10"/>
<path d="M173.952 182.52C173.808 182.592 173.736 182.664 173.592 182.736" stroke="#00396A" stroke-width="1.5" stroke-miterlimit="10"/>
<path d="M47.808 182.736C47.664 182.736 47.592 182.664 47.448 182.592C47.592 182.592 47.664 182.664 47.808 182.736Z" stroke="#00396A" stroke-width="1.5" stroke-miterlimit="10"/>
<path d="M46.08 181.656C45.936 181.512 45.864 181.44 45.72 181.296C45.864 181.44 45.936 181.584 46.08 181.656Z" stroke="#00396A" stroke-width="1.5" stroke-miterlimit="10"/>
<path d="M48.3119 182.88C48.1679 182.88 48.0959 182.88 47.9519 182.808C48.0959 182.808 48.1679 182.808 48.3119 182.88Z" stroke="#00396A" stroke-width="1.5" stroke-miterlimit="10"/>
<path d="M46.4401 182.016C46.2961 181.944 46.2241 181.8 46.0801 181.728" stroke="#00396A" stroke-width="1.5" stroke-miterlimit="10"/>
<path d="M46.872 182.304C46.728 182.232 46.656 182.16 46.512 182.088" stroke="#00396A" stroke-width="1.5" stroke-miterlimit="10"/>
<path d="M49.536 183.096C49.32 183.096 49.176 183.096 48.96 183.096" stroke="#00396A" stroke-width="1.5" stroke-miterlimit="10"/>
<path d="M170.856 183.528C171.072 183.528 171.216 183.528 171.432 183.528" stroke="#00396A" stroke-width="1.5" stroke-miterlimit="10"/>
<path d="M174.384 182.16C174.24 182.232 174.168 182.376 174.024 182.448" stroke="#00396A" stroke-width="1.5" stroke-miterlimit="10"/>
<path d="M47.3041 182.52C47.1601 182.52 47.0881 182.376 46.9441 182.304C47.0881 182.304 47.1601 182.448 47.3041 182.52Z" stroke="#00396A" stroke-width="1.5" stroke-miterlimit="10"/>
<path d="M48.8161 183.024C48.6721 183.024 48.6001 183.024 48.4561 183.024" stroke="#00396A" stroke-width="1.5" stroke-miterlimit="10"/>
<path d="M172.008 183.384C171.864 183.384 171.792 183.384 171.648 183.384C171.792 183.384 171.936 183.384 172.008 183.384Z" stroke="#00396A" stroke-width="1.5" stroke-miterlimit="10"/>
<path d="M125.856 142.488L122.616 140.04L125.856 142.488Z" stroke="#00396A" stroke-width="1.5" stroke-miterlimit="10"/>
<path d="M94.968 142.416L98.136 139.968L94.968 142.416Z" stroke="#00396A" stroke-width="1.5" stroke-miterlimit="10"/>
<path d="M103.248 136.08L100.512 138.168L98.0641 140.04L94.8961 142.488L58.5361 170.136L48.4561 177.768C47.3761 178.632 46.3681 179.928 45.6481 181.368H45.5761C45.1441 180.792 44.8561 180.216 44.6401 179.496C44.6401 179.352 44.5681 179.208 44.4961 178.992C44.4241 178.632 44.3521 178.344 44.4241 177.984L44.7121 93.96C44.7121 93.672 44.7121 93.384 44.7121 93.024C44.7121 93.024 44.7121 93.024 44.7121 92.952C44.7121 92.664 44.8561 92.304 44.9281 92.016C44.9281 92.016 44.9281 92.016 44.9281 91.944C45.0001 91.656 45.1441 91.296 45.2161 91.008C45.2161 91.008 45.2161 91.008 45.2161 90.936C45.2881 90.648 45.4321 90.288 45.6481 89.928C46.3681 91.584 47.4481 93.168 48.7441 94.104L52.8481 97.272L68.4001 109.296L71.7121 111.888L86.0401 122.904L91.5841 127.224L103.176 136.152L103.248 136.08Z" stroke="#00396A" stroke-width="1.5" stroke-miterlimit="10"/>
<path d="M175.824 91.368C175.968 91.656 176.04 92.016 176.112 92.304C176.184 92.736 176.256 93.024 176.256 93.384C176.256 93.384 176.256 93.384 176.256 93.456C176.256 93.744 176.256 94.104 176.256 94.392L175.968 178.416C175.968 178.776 175.968 179.136 175.824 179.424C175.824 179.568 175.752 179.784 175.68 179.928C175.464 180.576 175.176 181.152 174.744 181.656H174.672C173.952 180.288 172.944 178.992 171.864 178.128L161.856 170.352L117.432 136.08L129.096 127.224L134.712 122.976L149.04 112.032L152.352 109.512L168.48 97.2L172.08 94.464C173.304 93.528 174.456 91.944 175.176 90.288C175.32 90.648 175.464 90.936 175.536 91.296C175.536 91.296 175.536 91.296 175.536 91.368H175.824Z" stroke="#00396A" stroke-width="1.5" stroke-miterlimit="10"/>
<path d="M172.656 183.24C172.656 183.24 172.584 183.24 172.512 183.24C172.512 183.24 172.584 183.24 172.656 183.24Z" stroke="#00396A" stroke-width="1.5" stroke-miterlimit="10"/>
<path d="M171.576 183.456C171.576 183.456 171.504 183.456 171.432 183.456C171.432 183.456 171.504 183.456 171.576 183.456Z" stroke="#00396A" stroke-width="1.5" stroke-miterlimit="10"/>
<path d="M49.0319 183.024C49.0319 183.024 48.9599 183.024 48.8879 183.024C48.8879 183.024 48.9599 183.024 49.0319 183.024Z" stroke="#00396A" stroke-width="1.5" stroke-miterlimit="10"/>
<path d="M173.16 183.024C173.16 183.024 173.088 183.024 173.016 183.024C173.016 183.024 173.088 183.024 173.16 183.024Z" stroke="#00396A" stroke-width="1.5" stroke-miterlimit="10"/>
<path d="M172.152 183.384H172.008" stroke="#00396A" stroke-width="1.5" stroke-miterlimit="10"/>
<path d="M173.592 182.736C173.592 182.736 173.592 182.736 173.52 182.736C173.52 182.736 173.52 182.736 173.592 182.736Z" stroke="#00396A" stroke-width="1.5" stroke-miterlimit="10"/>
<path d="M47.9521 182.808C47.9521 182.808 47.8801 182.808 47.8081 182.808C47.8081 182.808 47.8801 182.808 47.9521 182.808Z" stroke="#00396A" stroke-width="1.5" stroke-miterlimit="10"/>
<path d="M46.9441 182.376C46.9441 182.376 46.9441 182.376 46.8721 182.376C46.8721 182.376 46.8721 182.376 46.9441 182.376Z" stroke="#00396A" stroke-width="1.5" stroke-miterlimit="10"/>
<path d="M47.448 182.592C47.448 182.592 47.376 182.592 47.304 182.592C47.304 182.592 47.376 182.592 47.448 182.592Z" stroke="#00396A" stroke-width="1.5" stroke-miterlimit="10"/>
<path d="M48.456 182.952H48.312" stroke="#00396A" stroke-width="1.5" stroke-miterlimit="10"/>
<path d="M103.248 136.008L106.344 133.704C108.576 131.976 112.248 131.976 114.48 133.704L117.504 136.08" stroke="#00396A" stroke-width="1.5" stroke-miterlimit="10"/>
<path d="M122.616 140.04L120.24 138.24L122.616 140.04Z" stroke="#00396A" stroke-width="1.5" stroke-miterlimit="10"/>
<path d="M100.584 138.168L98.136 139.968L100.584 138.168Z" stroke="#00396A" stroke-width="1.5" stroke-miterlimit="10"/>
<path d="M171.936 178.128L161.928 170.352L125.784 142.488L122.616 140.04L120.24 138.168L117.504 136.08L114.48 133.704C112.248 131.976 108.576 131.976 106.344 133.704L103.248 136.008L100.512 138.096L98.0639 139.968L94.896 142.416L58.536 170.064L48.456 177.696C47.376 178.56 46.3679 179.856 45.6479 181.296C45.7919 181.44 45.8639 181.584 46.0079 181.656C46.1519 181.728 46.2239 181.872 46.3679 181.944C46.5119 182.016 46.5839 182.088 46.7279 182.16C46.7279 182.16 46.7279 182.16 46.7999 182.16C46.9439 182.16 47.0159 182.304 47.1599 182.376C47.1599 182.376 47.2319 182.376 47.3039 182.376C47.4479 182.376 47.5199 182.448 47.6639 182.52C47.6639 182.52 47.7359 182.52 47.8079 182.52C47.9519 182.52 48.0239 182.52 48.1679 182.592H48.3119C48.4559 182.592 48.5279 182.592 48.6719 182.592C48.6719 182.592 48.744 182.592 48.816 182.592C49.032 182.592 49.1759 182.592 49.3919 182.592L170.712 183.024C170.928 183.024 171.072 183.024 171.288 183.024C171.288 183.024 171.36 183.024 171.432 183.024C171.576 183.024 171.72 183.024 171.792 183.024H171.936C172.08 183.024 172.152 183.024 172.296 182.952C172.296 182.952 172.368 182.952 172.44 182.952C172.584 182.952 172.656 182.88 172.8 182.808C172.8 182.808 172.872 182.808 172.944 182.808C173.088 182.808 173.16 182.664 173.304 182.592C173.304 182.592 173.304 182.592 173.376 182.592C173.52 182.52 173.592 182.448 173.736 182.376C173.88 182.304 173.952 182.16 174.096 182.088C174.24 181.944 174.312 181.872 174.456 181.728C173.736 180.288 172.728 178.992 171.648 178.128H171.936Z" stroke="#00396A" stroke-width="1.5" stroke-miterlimit="10"/>
<path d="M150.12 61.632C149.472 60.984 148.32 61.416 148.32 62.352V67.536V76.32C148.32 76.32 148.248 80.208 152.352 80.352C155.52 80.496 161.424 80.496 165.24 80.568C166.536 80.568 167.616 80.568 168.192 80.568C168.768 80.568 168.48 80.28 168.336 80.136L150.12 61.56V61.632Z" stroke="#00396A" stroke-width="1.5" stroke-miterlimit="10"/>
<path d="M104.04 185.256H18C18 185.256 18 180.648 23.544 179.928C29.088 179.28 31.968 167.976 38.376 167.544C44.784 167.112 46.152 173.952 54.36 170.64C62.568 167.328 65.52 166.824 69.768 167.976C74.952 169.416 75.528 172.224 78.12 176.112C80.64 180 86.112 180.648 89.424 179.64C92.736 178.632 101.376 175.68 104.04 185.184V185.256Z" fill="#FFD276"/>
<path d="M104.04 185.256H18C18 185.256 18 180.648 23.544 179.928C29.088 179.28 31.968 167.976 38.376 167.544C44.784 167.112 46.152 173.952 54.36 170.64C62.568 167.328 65.52 166.824 69.768 167.976C74.952 169.416 75.528 172.224 78.12 176.112C80.64 180 86.112 180.648 89.424 179.64C92.736 178.632 101.376 175.68 104.04 185.184V185.256Z" stroke="#00396A" stroke-width="1.5" stroke-miterlimit="10"/>
<path d="M98.208 84.168V90.648C98.208 91.8 99.072 92.808 100.152 92.808C101.232 92.808 102.096 91.872 102.096 90.648V84.168C102.096 79.272 105.768 75.312 110.232 75.312C114.696 75.312 118.368 79.272 118.368 84.168V90.648C118.368 91.8 119.232 92.808 120.312 92.808C121.392 92.808 122.256 91.872 122.256 90.648V84.168C122.256 76.896 116.856 71.064 110.232 71.064C103.608 71.064 98.208 76.968 98.208 84.168Z" fill="#005493"/>
<path d="M97.92 89.424C95.472 89.424 93.384 91.296 93.384 93.6V113.328C93.384 115.632 95.4 117.504 97.92 117.504H122.544C124.992 117.504 127.08 115.632 127.08 113.328V93.6C127.08 91.296 125.064 89.424 122.544 89.424H97.92Z" fill="#009DEE"/>
<mask id="mask1_50063_81425" style="mask-type:luminance" maskUnits="userSpaceOnUse" x="93" y="89" width="35" height="29">
<path d="M97.92 89.424C95.472 89.424 93.384 91.296 93.384 93.6V113.328C93.384 115.632 95.4 117.504 97.92 117.504H122.544C124.992 117.504 127.08 115.632 127.08 113.328V93.6C127.08 91.296 125.064 89.424 122.544 89.424H97.92Z" fill="white"/>
</mask>
<g mask="url(#mask1_50063_81425)">
<path d="M127.08 89.424H93.384V117.504H127.08V89.424Z" fill="#3ACEE3"/>
</g>
<path d="M114.264 100.872C114.264 98.64 112.464 96.84 110.232 96.84C108 96.84 106.2 98.64 106.2 100.872C106.2 103.104 106.992 103.68 108.216 104.328V108C108.216 109.08 109.08 109.944 110.16 109.944C111.24 109.944 112.104 109.08 112.104 108V104.328C113.328 103.608 114.12 102.312 114.12 100.872H114.264Z" fill="#005493"/>
<path d="M122.256 84.168V89.424H118.296V84.168C118.296 79.272 114.624 75.312 110.16 75.312C105.696 75.312 102.024 79.272 102.024 84.168V89.424H98.064V84.168C98.064 76.896 103.464 71.064 110.088 71.064C116.712 71.064 122.112 76.968 122.112 84.168H122.256Z" stroke="#00396A" stroke-width="1.5" stroke-miterlimit="10"/>
<path d="M127.08 93.6V113.328C127.08 115.632 125.064 117.504 122.544 117.504H97.92C95.4 117.504 93.384 115.632 93.384 113.328V93.6C93.384 91.296 95.4 89.424 97.92 89.424H122.544C125.064 89.424 127.08 91.296 127.08 93.6Z" stroke="#00396A" stroke-width="1.5" stroke-miterlimit="10"/>
<path d="M114.264 100.872C114.264 98.64 112.464 96.84 110.232 96.84C108 96.84 106.2 98.64 106.2 100.872C106.2 103.104 106.992 103.68 108.216 104.328V108C108.216 109.08 109.08 109.944 110.16 109.944C111.24 109.944 112.104 109.08 112.104 108V104.328C113.328 103.608 114.12 102.312 114.12 100.872H114.264Z" stroke="#00396A" stroke-width="1.5" stroke-miterlimit="10"/>
</g>
</g>
<defs>
<clipPath id="clip0_50063_81425">
<rect width="216" height="216" fill="white"/>
</clipPath>
</defs>
</svg>
