<svg width="32" height="32" viewBox="0 0 32 32" fill="none" xmlns="http://www.w3.org/2000/svg">
<path d="M16 2.5C8.556 2.5 2.5 8.556 2.5 16C2.5 23.444 8.556 29.5 16 29.5C23.444 29.5 29.5 23.444 29.5 16C29.5 8.556 23.444 2.5 16 2.5Z" fill="#E6EEF5"/>
<path d="M21.1853 10.8147C20.4749 10.1119 19.5272 9.70044 18.5288 9.66128C17.5303 9.62212 16.5533 9.95809 15.7901 10.6031C15.0269 11.2481 14.5327 12.1554 14.4049 13.1464C14.277 14.1375 14.5247 15.1405 15.0993 15.958L13.1713 17.886L12.2286 18.8287L10.3433 20.714L11.2859 21.6567L11.7573 21.1854L13.1713 22.6L14.1139 21.6574L12.6999 20.2427L13.1713 19.7714L14.1146 20.714L15.0573 19.7714L14.1146 18.8287L16.0419 16.9007C16.8595 17.4752 17.8625 17.7229 18.8535 17.5951C19.8446 17.4672 20.7519 16.9731 21.3969 16.2099C22.0419 15.4467 22.3778 14.4697 22.3387 13.4712C22.2995 12.4727 21.8881 11.525 21.1853 10.8147ZM20.2426 15.5287C19.8696 15.9016 19.3945 16.1556 18.8772 16.2585C18.3599 16.3613 17.8238 16.3085 17.3365 16.1067C16.8492 15.9049 16.4328 15.5631 16.1398 15.1245C15.8468 14.686 15.6904 14.1704 15.6904 13.643C15.6904 13.1156 15.8468 12.6 16.1398 12.1615C16.4328 11.723 16.8492 11.3812 17.3365 11.1794C17.8238 10.9775 18.3599 10.9247 18.8772 11.0276C19.3945 11.1305 19.8696 11.3844 20.2426 11.7574C20.4902 12.005 20.6867 12.299 20.8207 12.6225C20.9547 12.946 21.0237 13.2928 21.0237 13.643C21.0237 13.9932 20.9547 14.34 20.8207 14.6635C20.6867 14.9871 20.4902 15.2811 20.2426 15.5287Z" fill="#00529C"/>
</svg>
