<svg width="32" height="32" viewBox="0 0 32 32" fill="none" xmlns="http://www.w3.org/2000/svg">
<path d="M16 2.5C8.556 2.5 2.5 8.556 2.5 16C2.5 23.444 8.556 29.5 16 29.5C23.444 29.5 29.5 23.444 29.5 16C29.5 8.556 23.444 2.5 16 2.5Z" fill="#E6EEF5"/>
<path d="M20 12.6666V10.6666C20 10.313 19.8595 9.97389 19.6095 9.72384C19.3594 9.47379 19.0203 9.33331 18.6667 9.33331H13.3333C12.9797 9.33331 12.6406 9.47379 12.3905 9.72384C12.1405 9.97389 12 10.313 12 10.6666V12.6666H10V22H22V12.6666H20ZM13.3333 10.6666H18.6667V12.6666H13.3333V10.6666ZM20.6667 20.6666H11.3333V14H20.6667V20.6666Z" fill="#00529C"/>
<path d="M15.3334 17.8146V19.3333H16.6667V17.8146C16.9209 17.6679 17.1196 17.4413 17.2319 17.1702C17.3442 16.899 17.3639 16.5984 17.288 16.3148C17.212 16.0313 17.0446 15.7808 16.8118 15.6021C16.5789 15.4234 16.2936 15.3266 16.0001 15.3266C15.7066 15.3266 15.4213 15.4234 15.1884 15.6021C14.9555 15.7808 14.7881 16.0313 14.7122 16.3148C14.6362 16.5984 14.6559 16.899 14.7682 17.1702C14.8806 17.4413 15.0792 17.6679 15.3334 17.8146Z" fill="#00529C"/>
</svg>
