<svg width="48" height="48" viewBox="0 0 48 48" fill="none" xmlns="http://www.w3.org/2000/svg">
<rect width="48" height="48" rx="24" fill="#E6EEF5"/>
<g clip-path="url(#clip0_50114_40796)">
<path d="M31.8333 28.6667C34.5 29.5 37 28.3333 37.6666 27.8333C37.1666 26.3333 36.5 24.6667 36 23.1667C34.3333 22.8333 32.6666 22.6667 30.8333 22.3333C29.8333 18.6667 28.8333 15.1667 27.8333 11.5C27.6666 11.5 27.4999 11.5 27.3333 11.5C26.8333 12.8333 24.4999 18.6667 27.1666 24C27.9999 25.3333 29.1666 27.8333 31.8333 28.6667Z" fill="#FF904D"/>
<path d="M9.49992 25.5C10.9999 26 13.6666 27 16.1666 29.3333C18.1666 31.1667 19.3333 33.1667 19.9999 34.5C15.6666 34.5 11.1666 34.5 6.83325 34.5C7.66659 31.6667 8.66659 28.5 9.49992 25.5Z" fill="#FF904D"/>
<path d="M18.8331 12.3334L15.8331 22.3334H30.3331L27.3331 12.3334H18.8331ZM18.3331 10.6667H28.1665C28.4998 10.6667 28.8331 10.8333 28.9998 11.3333L32.4998 23C32.6665 23.5 32.3331 24 31.6665 24H14.9998C14.4998 24 13.9998 23.5 14.1665 23L17.6665 11.3333C17.6665 10.8333 17.9998 10.6667 18.3331 10.6667Z" fill="#00396D"/>
<path d="M10.4999 24L7.4999 34H21.9999L18.9999 24H10.4999ZM23.1666 31.8334L25.8332 22.8333C25.9999 22.5 26.3332 22.1667 26.6666 22.1667H36.4999C36.8332 22.1667 37.1666 22.3333 37.3332 22.8333L40.8332 34.5C40.9999 35 40.6666 35.5 39.9999 35.5H6.66656C6.16656 35.5 5.66656 35 5.83323 34.5L9.33323 22.8333C9.4999 22.5 9.83323 22.1667 10.1666 22.1667H19.9999C20.3332 22.1667 20.6666 22.3333 20.8332 22.8333L23.1666 31.8334ZM24.3332 34H38.8332L35.8332 24H27.3332L24.3332 34Z" fill="#00396D"/>
</g>
<defs>
<clipPath id="clip0_50114_40796">
<rect width="40" height="40" fill="white" transform="translate(4 4)"/>
</clipPath>
</defs>
</svg>
