<svg width="48" height="48" viewBox="0 0 48 48" fill="none" xmlns="http://www.w3.org/2000/svg">
<rect width="48" height="48" rx="24" fill="#E6EEF5"/>
<path d="M34.192 36.3632H12.445C11.7481 36.3632 11.1826 35.7977 11.1826 35.1008V8.24044C11.1826 7.54358 11.7481 6.97806 12.445 6.97806H34.192C34.8888 6.97806 35.4562 7.54358 35.4562 8.24044V35.0972C35.458 35.7977 34.8888 36.3632 34.192 36.3632Z" fill="#BAC4D3"/>
<path d="M31.1198 33.2381L11.1826 34.4457V8.25685C11.1826 7.55087 11.7554 6.97806 12.4614 6.97806H33.5424L32.322 32.025C32.2855 32.6762 31.7692 33.1998 31.1198 33.2381Z" fill="white"/>
<path d="M25.8753 13.8445H20.7655C20.501 13.8445 20.2876 13.6311 20.2876 13.3666C20.2876 13.102 20.5029 12.8886 20.7655 12.8886H25.8753C26.1398 12.8886 26.3532 13.102 26.3532 13.3666C26.3532 13.6311 26.1398 13.8445 25.8753 13.8445Z" fill="#FF610E"/>
<path d="M23.3164 17.0388H16.2912C16.0267 17.0388 15.8132 16.8254 15.8132 16.5608C15.8132 16.2963 16.0267 16.0829 16.2912 16.0829H23.3182C23.5827 16.0829 23.7961 16.2963 23.7961 16.5608C23.7961 16.8254 23.5809 17.0388 23.3164 17.0388Z" fill="#2C3D60"/>
<path d="M14.3767 17.0388H13.7382C13.4737 17.0388 13.2603 16.8254 13.2603 16.5609C13.2603 16.2963 13.4737 16.0829 13.7382 16.0829H14.3767C14.6413 16.0829 14.8547 16.2963 14.8547 16.5609C14.8547 16.8254 14.6394 17.0388 14.3767 17.0388Z" fill="#FF610E"/>
<path d="M22.0394 20.2331H16.2912C16.0267 20.2331 15.8132 20.0196 15.8132 19.7551C15.8132 19.4906 16.0267 19.2772 16.2912 19.2772H22.0394C22.3039 19.2772 22.5173 19.4906 22.5173 19.7551C22.5192 20.0196 22.3057 20.2331 22.0394 20.2331Z" fill="#2C3D60"/>
<path d="M14.3767 20.2331H13.7382C13.4737 20.2331 13.2603 20.0197 13.2603 19.7551C13.2603 19.4906 13.4737 19.2772 13.7382 19.2772H14.3767C14.6413 19.2772 14.8547 19.4906 14.8547 19.7551C14.8547 20.0197 14.6394 20.2331 14.3767 20.2331Z" fill="#FF610E"/>
<path d="M22.0394 23.4273H16.2912C16.0267 23.4273 15.8132 23.2121 15.8132 22.9494C15.8132 22.6849 16.0267 22.4714 16.2912 22.4714H22.0394C22.3039 22.4714 22.5173 22.6867 22.5173 22.9494C22.5192 23.2139 22.3057 23.4273 22.0394 23.4273Z" fill="#2C3D60"/>
<path d="M14.3767 23.4274H13.7382C13.4737 23.4274 13.2603 23.2121 13.2603 22.9494C13.2603 22.6849 13.4737 22.4714 13.7382 22.4714H14.3767C14.6413 22.4714 14.8547 22.6867 14.8547 22.9494C14.8547 23.2139 14.6394 23.4274 14.3767 23.4274Z" fill="#FF610E"/>
<path d="M22.0394 26.6216H16.2912C16.0267 26.6216 15.8132 26.4064 15.8132 26.1437C15.8132 25.8791 16.0267 25.6657 16.2912 25.6657H22.0394C22.3039 25.6657 22.5173 25.8791 22.5173 26.1437C22.5192 26.4064 22.3057 26.6216 22.0394 26.6216Z" fill="#2C3D60"/>
<path d="M14.3767 26.6217H13.7382C13.4737 26.6217 13.2603 26.4064 13.2603 26.1437C13.2603 25.8792 13.4737 25.6657 13.7382 25.6657H14.3767C14.6413 25.6657 14.8547 25.8792 14.8547 26.1437C14.8547 26.4064 14.6394 26.6217 14.3767 26.6217Z" fill="#FF610E"/>
<path d="M22.0394 29.8159H16.2912C16.0267 29.8159 15.8132 29.6006 15.8132 29.3379C15.8132 29.0734 16.0267 28.86 16.2912 28.86H22.0394C22.3039 28.86 22.5173 29.0752 22.5173 29.3379C22.5192 29.6006 22.3057 29.8159 22.0394 29.8159Z" fill="#2C3D60"/>
<path d="M14.3767 29.8159H13.7382C13.4737 29.8159 13.2603 29.6007 13.2603 29.338C13.2603 29.0734 13.4737 28.86 13.7382 28.86H14.3767C14.6413 28.86 14.8547 29.0753 14.8547 29.338C14.8547 29.6007 14.6394 29.8159 14.3767 29.8159Z" fill="#FF610E"/>
<path d="M22.0394 33.0102H16.2912C16.0267 33.0102 15.8132 32.7968 15.8132 32.5323C15.8132 32.2678 16.0267 32.0543 16.2912 32.0543H22.0394C22.3039 32.0543 22.5173 32.2696 22.5173 32.5323C22.5192 32.795 22.3057 33.0102 22.0394 33.0102Z" fill="#2C3D60"/>
<path d="M14.3767 33.0103H13.7382C13.4737 33.0103 13.2603 32.7968 13.2603 32.5323C13.2603 32.2678 13.4737 32.0543 13.7382 32.0543H14.3767C14.6413 32.0543 14.8547 32.2696 14.8547 32.5323C14.8547 32.795 14.6394 33.0103 14.3767 33.0103Z" fill="#FF610E"/>
<path d="M34.1918 36.5H12.4449C11.6732 36.5 11.0457 35.8725 11.0457 35.1008V8.24225C11.0457 7.47059 11.6732 6.84305 12.4449 6.84305H34.1918C34.9635 6.84305 35.5929 7.47059 35.5929 8.24225V35.0972C35.5947 35.4711 35.4487 35.8232 35.1861 36.0877C34.9197 36.3541 34.5676 36.5 34.1918 36.5ZM12.4449 7.11486C11.8246 7.11486 11.3193 7.62018 11.3193 8.24043V35.099C11.3193 35.721 11.8246 36.2245 12.4449 36.2245H34.1918C34.4947 36.2245 34.7774 36.106 34.9909 35.8925C35.2025 35.6791 35.3192 35.3963 35.3192 35.0953V8.24225C35.3192 7.62201 34.8139 7.11669 34.1918 7.11669H12.4449V7.11486Z" fill="#00396C"/>
<path d="M27.79 10.6502H18.8476C17.8789 10.6502 17.0908 9.86209 17.0908 8.89341V6.97795C17.0908 6.71344 17.3043 6.5 17.5688 6.5H29.067C29.3315 6.5 29.545 6.71344 29.545 6.97795V8.89341C29.5468 9.86391 28.7587 10.6502 27.79 10.6502ZM18.0485 7.45591V8.89341C18.0485 9.33488 18.4079 9.69061 18.8457 9.69061H27.7882C28.2297 9.69061 28.5854 9.33123 28.5854 8.89341V7.45591H18.0485Z" fill="#FF610E"/>
<path d="M6.60791 38.684H7.64791" stroke="#00396C" stroke-miterlimit="10" stroke-linecap="round" stroke-linejoin="round"/>
<path d="M9.92798 38.684H10.976" stroke="#00396C" stroke-miterlimit="10" stroke-linecap="round" stroke-linejoin="round"/>
<path d="M8.79199 36.5V37.548" stroke="#00396C" stroke-miterlimit="10" stroke-linecap="round" stroke-linejoin="round"/>
<path d="M8.79199 39.828V40.876" stroke="#00396C" stroke-miterlimit="10" stroke-linecap="round" stroke-linejoin="round"/>
<path d="M38.4316 9.94202H39.4796" stroke="#00396C" stroke-miterlimit="10" stroke-linecap="round" stroke-linejoin="round"/>
<path d="M41.7595 9.94202H42.7995" stroke="#00396C" stroke-miterlimit="10" stroke-linecap="round" stroke-linejoin="round"/>
<path d="M40.6157 7.75V8.798" stroke="#00396C" stroke-miterlimit="10" stroke-linecap="round" stroke-linejoin="round"/>
<path d="M40.6157 11.078V12.126" stroke="#00396C" stroke-miterlimit="10" stroke-linecap="round" stroke-linejoin="round"/>
<path d="M24.4121 24.7627L24.3345 24.4158C24.3098 24.3041 23.7783 21.8618 24.6261 20.0698C24.5203 19.8652 24.5603 19.61 24.5767 19.5066C24.7061 18.6905 26.6169 16.1106 29.9023 16.3529C32.6162 16.5528 33.6686 16.6304 34.2283 17.9438C34.4623 17.9156 34.7645 17.9262 35.0455 18.0732C35.2619 18.1872 35.5453 18.4283 35.6664 18.9315C35.9192 19.9863 35.5194 23.227 35.4736 23.5927L35.4312 23.9243L24.4121 24.7627ZM25.2188 19.8499L25.561 20.0757C24.779 21.2562 24.9577 23.1212 25.0741 23.889L34.6998 23.1576C34.8304 22.0276 35.035 19.8158 34.8692 19.122C34.8104 18.8751 34.701 18.8175 34.6646 18.7987C34.4788 18.7011 34.1801 18.7799 34.1166 18.8046L33.7098 18.9609L33.5781 18.5459C33.2465 17.5017 32.9666 17.3994 29.8435 17.1689C27.0085 16.9631 25.4539 19.242 25.3869 19.6347C25.3728 19.7206 25.3763 19.7535 25.3763 19.7547C25.3716 19.7123 25.3246 19.6053 25.2047 19.5489C25.0894 19.4936 24.9801 19.5207 24.9483 19.5418L25.2188 19.8499Z" fill="#231F20"/>
<path d="M24.4121 24.7627L24.3345 24.4158C24.3098 24.3041 23.7783 21.8618 24.6261 20.0698C24.5203 19.8652 24.5603 19.61 24.5767 19.5066C24.7061 18.6905 26.6169 16.1106 29.9023 16.3529C32.6162 16.5528 33.6686 16.6304 34.2283 17.9438C34.4623 17.9156 34.7645 17.9262 35.0455 18.0732C35.2619 18.1872 35.5453 18.4283 35.6664 18.9315C35.9192 19.9863 35.5194 23.227 35.4736 23.5927L35.4312 23.9243L24.4121 24.7627ZM25.2188 19.8499L25.561 20.0757C24.779 21.2562 24.9577 23.1212 25.0741 23.889L34.6998 23.1576C34.8304 22.0276 35.035 19.8158 34.8692 19.122C34.8104 18.8751 34.701 18.8175 34.6646 18.7987C34.4788 18.7011 34.1801 18.7799 34.1166 18.8046L33.7098 18.9609L33.5781 18.5459C33.2465 17.5017 32.9666 17.3994 29.8435 17.1689C27.0085 16.9631 25.4539 19.242 25.3869 19.6347C25.3728 19.7206 25.3763 19.7535 25.3763 19.7547C25.3716 19.7123 25.3246 19.6053 25.2047 19.5489C25.0894 19.4936 24.9801 19.5207 24.9483 19.5418L25.2188 19.8499Z" fill="#231F20"/>
<path d="M33.2583 36.3426H26.8286V27.8505H33.2583V36.3426ZM27.6482 35.5231H32.4387V28.6701H27.6482V35.5231Z" fill="#231F20"/>
<path d="M25.5661 27.3896C25.1428 27.3896 24.7665 27.2038 24.4761 26.8451C23.827 26.042 23.7588 24.4816 24.1574 23.769C24.3926 23.3481 24.7783 23.107 25.2416 23.0894C25.8578 23.0659 26.5304 23.4445 26.9207 24.0301C27.2617 24.5439 27.3288 25.5458 27.0724 26.2631C26.8784 26.8051 26.5257 27.1673 26.0529 27.3119C25.886 27.3649 25.7225 27.3896 25.5661 27.3896ZM25.2969 23.9078C25.2886 23.9078 25.2816 23.9078 25.2733 23.9078C25.097 23.9148 24.97 23.9972 24.8735 24.1688C24.6419 24.5827 24.6725 25.7821 25.1146 26.3289C25.2992 26.5582 25.5144 26.6194 25.8119 26.5276C26.0306 26.4606 26.1952 26.2784 26.2999 25.9856C26.4998 25.4282 26.3963 24.7227 26.2376 24.4828C26.0165 24.1524 25.6167 23.9078 25.2969 23.9078Z" fill="#231F20"/>
<path d="M26.16 26.1702C25.8777 26.1702 25.6485 25.9409 25.6485 25.6587C25.6485 25.0496 25.3463 24.7521 25.0876 24.6827C24.8171 24.6122 24.6537 24.3323 24.7254 24.0583C24.7971 23.7855 25.077 23.6221 25.351 23.6938C25.9624 23.8584 26.6726 24.4711 26.6726 25.6575C26.6703 25.9409 26.441 26.1702 26.16 26.1702ZM25.2969 23.8902C25.298 23.8902 25.3004 23.8914 25.3016 23.8914C25.3004 23.8914 25.298 23.8902 25.2969 23.8902Z" fill="#231F20"/>
<path d="M34.5213 27.3896C34.3649 27.3896 34.2015 27.3637 34.0345 27.3131C33.5618 27.1685 33.209 26.8063 33.015 26.2642C32.7575 25.547 32.8257 24.5451 33.1667 24.0313V24.0301C33.5571 23.4433 34.2309 23.0659 34.8459 23.0894C35.3092 23.107 35.6937 23.3481 35.93 23.769C36.3286 24.4816 36.2604 26.042 35.6114 26.8451C35.3221 27.2038 34.9446 27.3896 34.5213 27.3896ZM33.8499 24.484C33.6911 24.725 33.5877 25.4294 33.7876 25.9867C33.8922 26.2795 34.0568 26.4618 34.2756 26.5288C34.5742 26.6205 34.7894 26.5594 34.974 26.3301C35.4162 25.7833 35.4467 24.5827 35.2151 24.17C35.1198 23.9983 34.9928 23.916 34.8153 23.909C34.4931 23.8996 34.0768 24.1441 33.8499 24.484Z" fill="#231F20"/>
<path d="M33.9285 26.1702C33.6463 26.1702 33.417 25.9409 33.417 25.6587C33.417 24.471 34.1272 23.8584 34.7351 23.695C34.8621 23.6585 35.0056 23.6773 35.1244 23.7467C35.2396 23.8137 35.3243 23.9219 35.3607 24.0513C35.4324 24.3276 35.2725 24.6063 35.0056 24.6815C34.741 24.7521 34.4388 25.0496 34.4388 25.6587C34.4388 25.9409 34.2095 26.1702 33.9285 26.1702ZM34.9527 24.4863C34.9515 24.4863 34.9492 24.4875 34.948 24.4875C34.9503 24.4875 34.9515 24.4863 34.9527 24.4863Z" fill="#231F20"/>
<path d="M29.3826 32.5622C28.0609 32.5622 27.0732 31.9684 27.025 31.939L26.8286 31.8191V27.8493H33.2583V30.5538L33.1348 30.675C32.5316 31.2652 31.3381 32.2883 30.1128 32.5011C29.8624 32.5434 29.6166 32.5622 29.3826 32.5622ZM27.6482 31.3405C28.0339 31.5228 28.9428 31.8708 29.9741 31.6921C30.9289 31.5263 31.9437 30.6738 32.4387 30.207V28.6689H27.6482V31.3405Z" fill="#231F20"/>
<path d="M30.0435 30.9925C28.0304 30.9925 26.6558 30.3187 25.9585 28.9888C25.38 27.887 25.3812 26.5453 25.3812 25.5658V25.4765C25.3812 25.2048 25.3506 24.8768 25.3188 24.5287C25.2012 23.2611 25.0554 21.6843 26.0831 20.5578C26.8628 19.7029 28.1586 19.2867 30.0435 19.2867C31.9284 19.2867 33.2242 19.7029 34.0038 20.5578C35.0315 21.6855 34.8857 23.2623 34.7681 24.5299C34.7364 24.8768 34.7058 25.2048 34.7058 25.4765V25.5658C34.7058 26.5453 34.707 27.8858 34.1285 28.9876C33.4312 30.3187 32.0566 30.9925 30.0435 30.9925ZM30.0435 20.1074C28.4243 20.1074 27.2955 20.4449 26.6887 21.1105C25.9056 21.97 26.0279 23.2894 26.1349 24.4535C26.169 24.8203 26.2007 25.1672 26.2007 25.4765V25.567C26.2007 26.5101 26.1996 27.6848 26.684 28.6078C27.2367 29.6602 28.3349 30.1729 30.0423 30.1729C31.7497 30.1729 32.8491 29.6614 33.4006 28.6078C33.8851 27.6848 33.8839 26.5101 33.8839 25.567V25.4777C33.8839 25.1684 33.9156 24.8215 33.9497 24.4558C34.0579 23.2917 34.1802 21.9724 33.3959 21.1116C32.7903 20.4449 31.6615 20.1074 30.0435 20.1074Z" fill="#231F20"/>
<path d="M28.4612 25.1436C28.0449 25.1436 27.731 24.7333 27.731 24.1877C27.731 23.6432 28.0449 23.2328 28.4612 23.2328C28.8774 23.2328 29.1914 23.6432 29.1914 24.1877C29.1902 24.7333 28.8774 25.1436 28.4612 25.1436Z" fill="#231F20"/>
<path d="M27.4484 23.7515C27.4013 23.7515 27.3508 23.7456 27.2979 23.7315L27.0215 23.6609L26.991 23.3775C26.9686 23.1729 27.0427 22.9578 27.1967 22.7731C27.426 22.5003 27.8023 22.3216 28.2021 22.2946C29.0158 22.2416 29.4356 22.7379 29.5556 23.0412L29.6073 23.1729L29.5673 23.3082C29.5273 23.4434 29.4368 23.5527 29.3133 23.6151C29.0758 23.7338 28.823 23.6398 28.5772 23.5492C28.4808 23.5139 28.2997 23.4481 28.2386 23.4504C28.0257 23.4716 27.947 23.5292 27.8635 23.5904C27.7823 23.6503 27.6448 23.7515 27.4484 23.7515Z" fill="#231F20"/>
<path d="M27.4484 23.7515C27.4013 23.7515 27.3508 23.7456 27.2979 23.7315L27.0215 23.6609L26.991 23.3775C26.9686 23.1729 27.0427 22.9578 27.1967 22.7731C27.426 22.5003 27.8023 22.3216 28.2021 22.2946C29.0158 22.2416 29.4356 22.7379 29.5556 23.0412L29.6073 23.1729L29.5673 23.3082C29.5273 23.4434 29.4368 23.5527 29.3133 23.6151C29.0758 23.7338 28.823 23.6398 28.5772 23.5492C28.4808 23.5139 28.2997 23.4481 28.2386 23.4504C28.0257 23.4716 27.947 23.5292 27.8635 23.5904C27.7823 23.6503 27.6448 23.7515 27.4484 23.7515Z" fill="#231F20"/>
<path d="M31.6287 25.1436C31.2124 25.1436 30.8984 24.7333 30.8984 24.1877C30.8984 23.6432 31.2124 23.2328 31.6287 23.2328C32.0449 23.2328 32.3589 23.6432 32.3589 24.1877C32.3577 24.7333 32.0449 25.1436 31.6287 25.1436Z" fill="#231F20"/>
<path d="M32.6399 23.7515C32.4447 23.7515 32.306 23.6503 32.2248 23.5904C32.1413 23.5292 32.0626 23.4716 31.8485 23.4505C31.7874 23.4493 31.6087 23.5139 31.5122 23.5492C31.2665 23.6398 31.0125 23.7338 30.7761 23.6151C30.6527 23.5528 30.5621 23.4446 30.5222 23.3082L30.4822 23.1729L30.5339 23.0412C30.6527 22.7379 31.0725 22.2405 31.8873 22.2946C32.2883 22.3216 32.6634 22.5003 32.8927 22.7731C33.0479 22.9578 33.1208 23.1718 33.0985 23.3775L33.0679 23.6609L32.7916 23.7315C32.7375 23.7456 32.6869 23.7515 32.6399 23.7515Z" fill="#231F20"/>
<path d="M32.6399 23.7515C32.4447 23.7515 32.306 23.6503 32.2248 23.5904C32.1413 23.5292 32.0626 23.4716 31.8485 23.4505C31.7874 23.4493 31.6087 23.5139 31.5122 23.5492C31.2665 23.6398 31.0125 23.7338 30.7761 23.6151C30.6527 23.5528 30.5621 23.4446 30.5222 23.3082L30.4822 23.1729L30.5339 23.0412C30.6527 22.7379 31.0725 22.2405 31.8873 22.2946C32.2883 22.3216 32.6634 22.5003 32.8927 22.7731C33.0479 22.9578 33.1208 23.1718 33.0985 23.3775L33.0679 23.6609L32.7916 23.7315C32.7375 23.7456 32.6869 23.7515 32.6399 23.7515Z" fill="#231F20"/>
<path d="M30.1741 27.0063C30.1118 27.0063 30.0459 27.0004 29.973 26.9875L29.9683 26.9863C29.6873 26.9334 29.4227 26.7923 29.2628 26.6088C29.1146 26.4407 29.0452 26.2314 29.0676 26.0209C29.084 25.8763 29.1299 25.7187 29.1946 25.5012C29.2792 25.2166 29.4051 24.7909 29.5191 24.1936C29.5709 23.9208 29.8354 23.7374 30.1094 23.7844C30.3893 23.8373 30.5727 24.1031 30.5257 24.3759C30.3987 25.0473 30.2576 25.5141 30.1741 25.794C30.1564 25.8504 30.1376 25.9139 30.1223 25.9703C30.1435 25.9774 30.1647 25.9809 30.1788 25.9821C30.4645 25.988 30.6856 26.2126 30.6856 26.4948C30.6856 26.777 30.4563 27.0063 30.1741 27.0063ZM30.0847 26.1279C30.0847 26.1291 30.0847 26.1303 30.0847 26.1314C30.0847 26.1303 30.0847 26.1291 30.0847 26.1279Z" fill="#231F20"/>
<path d="M30.1766 29.0982C30.1296 29.0982 30.0814 29.097 30.032 29.0946C28.8055 29.037 28.4869 28.355 28.4069 28.0634C28.294 27.6542 28.4069 27.2156 28.668 27.0427L28.909 26.884L29.1395 27.0569C29.4382 27.2814 30.487 27.4813 30.9503 27.1744L31.1749 27.0251L31.4007 27.1721C31.6829 27.3567 31.8005 27.8223 31.6688 28.2316C31.5829 28.4985 31.2678 29.097 30.1766 29.0982ZM29.2876 28.0093C29.4252 28.1645 29.6992 28.2574 30.0696 28.2751C30.4235 28.2927 30.6893 28.228 30.8163 28.0999C30.3095 28.2104 29.7392 28.1457 29.2876 28.0093Z" fill="#231F20"/>
<path d="M26.0384 26.8299C25.8879 26.8299 25.7445 26.7547 25.6398 26.6147C25.3012 26.1632 25.2424 24.4582 25.2377 23.4234L24.7603 22.2852L26.7663 18.7046L33.3018 17.9521L35.2867 21.0388L35.2702 21.1857C35.2114 21.6784 35.0068 23.3164 34.8551 23.695C34.8234 23.7821 34.7611 24.176 34.7164 24.4641C34.5047 25.8116 34.4106 26.282 33.9956 26.3702C33.8427 26.4019 33.6275 26.3584 33.4852 26.1385C33.2842 25.8293 33.3183 25.4624 33.3512 25.1096C33.3876 24.7134 33.4229 24.3394 33.1866 23.9996C32.7503 23.3729 32.8044 23.0036 32.9185 22.5862C32.9596 22.4369 32.9949 22.3075 32.9867 22.1276C32.9855 22.1053 32.9808 22.0512 32.9608 22.0359C32.8985 21.9889 32.7092 21.9853 32.581 22.0147L31.9343 22.1594L32.0906 21.5173C32.1059 21.4397 32.0836 21.3915 32.0554 21.3621C32.0507 21.368 32.0448 21.3727 32.0401 21.3786C31.7943 21.6384 31.3369 22.1217 30.0211 22.6227C28.7382 23.1106 27.8681 23.0765 27.3366 22.9425C27.286 23.1706 27.1861 23.3164 27.0685 23.4646C26.9874 23.5669 26.9286 23.641 26.8886 23.835C26.8451 24.0384 26.8074 24.4417 26.7698 24.8309C26.6346 26.2467 26.5723 26.7006 26.1642 26.8146C26.1219 26.824 26.0796 26.8299 26.0384 26.8299ZM25.6716 22.3369L26.0572 23.2576V23.3399C26.0572 23.4857 26.0596 23.6363 26.0619 23.7879C26.069 23.7433 26.0772 23.7009 26.0855 23.6621C26.1666 23.28 26.3159 23.0906 26.4253 22.9519C26.5276 22.8226 26.5782 22.7579 26.5417 22.3651L26.4429 21.2963L27.212 22.0124C27.212 22.0124 27.9445 22.5309 29.7283 21.8525C30.8701 21.4186 31.2428 21.0235 31.4427 20.8118C31.6097 20.6343 31.8637 20.3662 32.3141 20.5637C32.6398 20.706 32.8009 20.9435 32.8691 21.1775C33.0572 21.1904 33.2701 21.2422 33.4511 21.3786C33.6016 21.4915 33.7851 21.7066 33.8039 22.0853C33.8192 22.3969 33.758 22.6227 33.7075 22.8037C33.6357 23.0624 33.6064 23.1694 33.858 23.5316C33.9121 23.6104 33.9591 23.6892 33.9979 23.768C34.0297 23.5939 34.0591 23.474 34.092 23.3905C34.1649 23.2094 34.3225 22.1605 34.4353 21.2339L32.8867 18.8246L27.2754 19.4713L25.6716 22.3369Z" fill="#231F20"/>
<path d="M42.3375 41.9951H17.75V41.5847C17.75 37.829 19.1305 34.2908 20.9625 33.3536C21.8832 32.8821 23.2625 32.7387 24.5959 32.5999C25.579 32.4976 26.5949 32.3918 27.0512 32.1566L27.4992 31.925L27.6344 32.4118C27.652 32.4706 28.0942 33.9039 30.0438 33.9039C31.9934 33.9039 32.4355 32.4694 32.4543 32.4082L32.5942 31.9297L33.0375 32.1566C33.4949 32.3941 34.5144 32.5 35.4998 32.6023C36.8297 32.7398 38.2055 32.8833 39.125 33.3536C40.957 34.2908 42.3387 37.8302 42.3387 41.5847V41.9951H42.3375ZM18.5755 41.1755H41.5121C41.4156 37.5633 40.061 34.7553 38.7499 34.0839C37.9668 33.6829 36.611 33.543 35.414 33.4183C34.4921 33.3231 33.6702 33.2372 33.0716 33.0503C32.6883 33.784 31.7582 34.7235 30.0426 34.7235C28.327 34.7235 27.3957 33.784 27.0124 33.0491C26.4174 33.2337 25.5978 33.3195 24.6794 33.4148C23.48 33.5394 22.1195 33.6805 21.3352 34.0827C20.0253 34.7541 18.6719 37.5621 18.5755 41.1755Z" fill="#231F20"/>
<path d="M30.044 36.9765C30.0429 36.9765 30.0429 36.9765 30.0429 36.9765C26.6575 36.9765 25.4522 33.2655 25.4017 33.1079L25.2241 32.5364L25.7051 32.4717C26.1272 32.4153 26.7245 32.3212 27.0491 32.1543L27.4971 31.9226L27.6323 32.4082C27.6499 32.467 28.0921 33.9004 30.0417 33.9004C31.9913 33.9004 32.4334 32.4659 32.4522 32.4047L32.5921 31.9273L33.0343 32.1519C33.3612 32.3201 33.9597 32.4153 34.3806 32.4706L34.8639 32.5352L34.6828 33.1079C34.6323 33.2784 33.4329 36.9765 30.044 36.9765ZM26.3142 33.209C26.6669 34.058 27.7699 36.1569 30.0429 36.1569H30.044C32.2923 36.1569 33.4117 34.0545 33.7704 33.2102C33.4964 33.162 33.2671 33.1091 33.0731 33.0479C32.6897 33.7828 31.7596 34.7224 30.0429 34.7224C28.3261 34.7224 27.396 33.7817 27.0126 33.0479C26.8174 33.1079 26.5881 33.1608 26.3142 33.209Z" fill="#231F20"/>
<path d="M30.0449 36.1674C27.2499 36.1674 26.2198 33.0008 26.1763 32.8656L26.0422 32.4399L26.4773 32.3423C26.7219 32.2871 26.9159 32.2236 27.0511 32.1542L27.1393 32.1095H32.9481L33.0363 32.1542C33.1716 32.2236 33.3656 32.2871 33.6113 32.3423L34.0464 32.4399L33.9124 32.8656C33.87 33.0008 32.84 36.1674 30.0449 36.1674ZM27.117 33.0137C27.458 33.7698 28.3705 35.3467 30.0449 35.3467C31.7182 35.3467 32.6307 33.7698 32.9728 33.0137C32.8952 32.9867 32.8235 32.9585 32.7565 32.9279H27.3322C27.2651 32.9597 27.1934 32.9879 27.117 33.0137Z" fill="#231F20"/>
<path d="M37.5942 39.534H22.4924V40.7934H37.5942V39.534Z" fill="#231F20"/>
<path d="M37.5942 37.8454H22.4924V39.1036H37.5942V37.8454Z" fill="#231F20"/>
<path d="M38.2641 41.9035H38.2429C38.1077 41.8976 37.9819 41.84 37.889 41.74C37.7949 41.6389 37.7467 41.5084 37.7526 41.3708C37.7538 41.3437 37.8584 38.484 37.4186 36.652C37.3869 36.518 37.4092 36.3804 37.481 36.264C37.5527 36.1476 37.6656 36.0664 37.7996 36.0347C37.9313 36.0041 38.0689 36.0253 38.1865 36.0982C38.3029 36.1699 38.384 36.2828 38.4158 36.4168C38.8873 38.3817 38.7803 41.2908 38.7756 41.4131C38.7627 41.6894 38.5381 41.9035 38.2641 41.9035ZM38.5722 41.4014C38.5722 41.4037 38.5722 41.4049 38.5722 41.4049C38.5722 41.4037 38.5722 41.4025 38.5722 41.4014ZM37.6174 36.6061C37.6174 36.6073 37.6174 36.6085 37.6185 36.6085C37.6174 36.6073 37.6174 36.6061 37.6174 36.6061Z" fill="#231F20"/>
<path d="M21.8232 41.9033C21.5481 41.9033 21.3246 41.6881 21.3129 41.413C21.3117 41.3824 21.1965 38.4051 21.6727 36.4132C21.7385 36.1404 22.0137 35.9699 22.2877 36.0345C22.564 36.1004 22.7333 36.3767 22.6675 36.6519C22.2277 38.4839 22.3324 41.3436 22.3335 41.3718C22.3394 41.5071 22.2889 41.6423 22.196 41.7422C22.1548 41.7869 22.1066 41.8222 22.0537 41.8492L22.0019 41.9033H21.8232ZM21.514 41.4024C21.514 41.4036 21.514 41.4036 21.514 41.4048C21.514 41.4036 21.514 41.4036 21.514 41.4024Z" fill="#231F20"/>
<path d="M24.7356 24.3264C24.7356 24.3264 24.1089 21.5267 25.2189 19.8499C25.2189 19.8499 24.892 20.1438 24.9825 19.57C25.0731 18.9962 26.7887 16.5339 29.873 16.7609C32.9573 16.9878 33.5464 17.0936 33.9686 18.4224C33.9686 18.4224 35.0257 18.0143 35.2679 19.0268C35.5101 20.0392 35.0668 23.5409 35.0668 23.5409L24.7356 24.3264Z" fill="#703824"/>
<path d="M32.8494 28.2598H27.2393V35.9323H32.8494V28.2598Z" fill="#F9C4B7"/>
<path d="M26.5799 24.257C26.1002 23.5362 24.989 23.1247 24.5163 23.9689C24.053 24.7968 24.3716 27.4001 25.9332 26.9204C26.9762 26.6017 26.968 24.8426 26.5799 24.257Z" fill="#F9C4B7"/>
<path d="M26.1598 25.7598C26.1034 25.7598 26.0587 25.714 26.0587 25.6587C26.0587 24.8179 25.593 24.3935 25.1932 24.2864C25.1391 24.2723 25.1074 24.2159 25.1215 24.1618C25.1356 24.1077 25.1921 24.076 25.2462 24.0901C25.7142 24.2159 26.2609 24.7027 26.2609 25.6575C26.2609 25.714 26.2151 25.7598 26.1598 25.7598Z" fill="#7A1F0C"/>
<path d="M33.5088 24.257C33.9886 23.5362 35.0998 23.1247 35.5725 23.9689C36.0358 24.7968 35.7171 27.4001 34.1555 26.9204C33.1125 26.6017 33.1208 24.8426 33.5088 24.257Z" fill="#F9C4B7"/>
<path d="M33.9285 25.7598C33.8721 25.7598 33.8274 25.714 33.8274 25.6587C33.8274 24.7027 34.3742 24.2171 34.8422 24.0913C34.8963 24.076 34.9515 24.1089 34.9668 24.163C34.9809 24.2171 34.9492 24.2724 34.8951 24.2876C34.4965 24.3947 34.0296 24.8191 34.0296 25.6599C34.0296 25.714 33.985 25.7598 33.9285 25.7598Z" fill="#7A1F0C"/>
<path d="M32.8494 28.2598V30.381C32.3237 30.8961 31.1796 31.8991 30.0449 32.0954C28.5045 32.3635 27.2393 31.5886 27.2393 31.5886V28.2586H32.8494V28.2598Z" fill="#E97F74"/>
<path d="M30.0437 19.697C24.4348 19.697 25.7917 23.5539 25.7917 25.4764C25.7917 27.399 25.7224 30.582 30.0437 30.582C34.365 30.582 34.2957 27.3978 34.2957 25.4764C34.2957 23.555 35.6526 19.697 30.0437 19.697Z" fill="#F9C4B7"/>
<path d="M28.1416 24.1877C28.1416 24.4887 28.2851 24.7333 28.4614 24.7333C28.6378 24.7333 28.7813 24.4887 28.7813 24.1877C28.7813 23.8867 28.6378 23.6432 28.4614 23.6432C28.2851 23.6432 28.1416 23.8867 28.1416 24.1877Z" fill="#3A180D"/>
<path d="M29.1763 23.1929C29.1092 23.4199 28.5378 23.0095 28.2015 23.0424C27.6312 23.0988 27.6077 23.3869 27.4007 23.334C27.3725 23.0718 27.737 22.7379 28.232 22.7049C28.9646 22.6555 29.1763 23.1929 29.1763 23.1929Z" fill="#44170B"/>
<path d="M31.9488 24.1877C31.9488 24.4887 31.8053 24.7333 31.6289 24.7333C31.4525 24.7333 31.3091 24.4887 31.3091 24.1877C31.3091 23.8867 31.4525 23.6432 31.6289 23.6432C31.8053 23.6432 31.9488 23.8867 31.9488 24.1877Z" fill="#3A180D"/>
<path d="M30.9143 23.1929C30.9813 23.4199 31.5528 23.0095 31.8891 23.0424C32.4594 23.0988 32.4829 23.3869 32.6899 23.334C32.7181 23.0718 32.3536 22.7379 31.8585 22.7049C31.126 22.6555 30.9143 23.1929 30.9143 23.1929Z" fill="#44170B"/>
<path d="M30.0449 26.583C29.8768 26.5512 29.6816 26.4642 29.5711 26.3384C29.4982 26.2561 29.4652 26.162 29.4758 26.0656C29.4876 25.9586 29.5299 25.8163 29.5887 25.6188C29.6745 25.3295 29.8051 24.8909 29.9226 24.27C29.9332 24.2148 29.9861 24.1795 30.0414 24.1889C30.0967 24.1995 30.132 24.2524 30.1225 24.3077C30.0026 24.9391 29.8709 25.3824 29.7827 25.6764C29.7263 25.8633 29.6863 25.9986 29.6769 26.0879C29.6722 26.1267 29.6875 26.1644 29.7227 26.2032C29.8203 26.3137 30.0402 26.3913 30.1755 26.3925C30.2319 26.3937 30.2766 26.4383 30.2766 26.4948C30.2766 26.5512 30.2307 26.5959 30.1743 26.5959C30.1331 26.5959 30.0908 26.5912 30.0449 26.583Z" fill="#7A1F0C"/>
<path d="M28.8935 27.3849C29.2957 27.6871 30.5304 27.9446 31.1771 27.5166C31.4111 27.6694 31.511 28.7513 30.0506 28.6842C28.5608 28.6149 28.6936 27.5166 28.8935 27.3849Z" fill="#FAFAFF"/>
<path d="M25.6483 23.3399C25.6483 23.3399 25.6507 25.9445 25.9682 26.3678C26.2857 26.7911 26.3398 24.4488 26.4879 23.7468C26.6361 23.0448 27.0382 23.2729 26.9512 22.3275C26.9512 22.3275 27.792 23.0283 29.8756 22.2358C31.9581 21.4433 31.697 20.7401 32.1521 20.9388C32.6072 21.1375 32.4896 21.6126 32.4896 21.6126C32.4896 21.6126 33.3621 21.4056 33.3974 22.1053C33.4326 22.8049 32.9682 22.9637 33.5243 23.7644C34.0805 24.5652 33.5373 25.4636 33.8301 25.9151C34.1229 26.3666 34.3322 23.9008 34.4756 23.5422C34.6191 23.1835 34.8637 21.1363 34.8637 21.1363L33.0963 18.3883L27.0229 19.088L25.2168 22.311L25.6483 23.3399Z" fill="#703824"/>
<path d="M41.9283 41.5847H18.1604C18.1604 37.8067 19.5597 34.5318 21.1495 33.7181C22.7298 32.908 26.0987 33.109 27.2393 32.5199C27.2393 32.5199 27.7367 34.3131 30.0438 34.3131C32.3508 34.3131 32.8482 32.5199 32.8482 32.5199C33.9888 33.1126 37.3577 32.9091 38.9381 33.7181C40.5279 34.5318 41.9283 37.8055 41.9283 41.5847Z" fill="#FF9051"/>
<path d="M34.2933 32.9879L34.3274 32.8798C33.7101 32.7975 33.1821 32.6916 32.847 32.5188C32.847 32.5188 32.3496 34.312 30.0425 34.312C27.7355 34.312 27.2381 32.5188 27.2381 32.5188C26.903 32.6916 26.3762 32.7963 25.76 32.8786L25.7929 32.9844C25.8388 33.1302 26.957 36.5661 30.0425 36.5661C33.1151 36.5673 34.2475 33.1349 34.2933 32.9879Z" fill="#2D2D64"/>
<path d="M32.8494 32.5188H27.2393C27.0629 32.6093 26.8348 32.6822 26.5679 32.7422C26.5679 32.7422 27.518 35.7571 30.0449 35.7571C32.5719 35.7571 33.522 32.7422 33.522 32.7422C33.2551 32.6822 33.0258 32.6093 32.8494 32.5188Z" fill="#F9C4B7"/>
<path d="M37.1843 38.2547H22.9021V38.6933H37.1843V38.2547Z" fill="#FAFAFF"/>
<path d="M38.2644 41.493C38.2632 41.493 38.262 41.493 38.2609 41.493C38.2044 41.4907 38.1609 41.4436 38.1633 41.3884C38.1644 41.359 38.2726 38.4487 37.8187 36.5567C37.8058 36.5026 37.8387 36.4474 37.894 36.4344C37.9481 36.4215 38.0033 36.4544 38.0163 36.5097C38.4772 38.4299 38.3667 41.3672 38.3655 41.3966C38.3632 41.4495 38.3185 41.493 38.2644 41.493Z" fill="#0F1444"/>
<path d="M21.8228 41.4931C21.7687 41.4931 21.724 41.4507 21.7216 41.3955C21.7205 41.3661 21.6111 38.4287 22.0709 36.5085C22.0838 36.4545 22.1379 36.4203 22.1932 36.4333C22.2473 36.4462 22.2814 36.5015 22.2684 36.5556C21.8145 38.4487 21.9227 41.3578 21.9239 41.3872C21.9263 41.4437 21.8827 41.4907 21.8263 41.4919C21.8251 41.4931 21.8239 41.4931 21.8228 41.4931Z" fill="#0F1444"/>
</svg>
