<svg width="32" height="32" viewBox="0 0 32 32" fill="none" xmlns="http://www.w3.org/2000/svg">
<path d="M16 2.5C8.556 2.5 2.5 8.556 2.5 16C2.5 23.444 8.556 29.5 16 29.5C23.444 29.5 29.5 23.444 29.5 16C29.5 8.556 23.444 2.5 16 2.5Z" fill="#E6EEF5"/>
<path d="M19.3333 10.6666V9.33331H18V10.6666H14V9.33331H12.6667V10.6666H10V22H22V10.6666H19.3333ZM20.6667 20.6666H11.3333V12H12.6667V13.3333H14V12H18V13.3333H19.3333V12H20.6667V20.6666Z" fill="#00529C"/>
<path d="M17.5286 14.1953L15.9999 15.724L14.4712 14.1953L13.5286 15.138L15.0572 16.6666L13.5286 18.1953L14.4712 19.138L15.9999 17.6093L17.5286 19.138L18.4712 18.1953L16.9426 16.6666L18.4712 15.138L17.5286 14.1953Z" fill="#00529C"/>
</svg>
