<svg width="48" height="49" viewBox="0 0 48 49" fill="none" xmlns="http://www.w3.org/2000/svg">
<rect y="0.5" width="48" height="48" rx="24" fill="#E6EEF5"/>
<path d="M6.60791 39.184H7.64791" stroke="#00396C" stroke-miterlimit="10" stroke-linecap="round" stroke-linejoin="round"/>
<path d="M9.92798 39.184H10.976" stroke="#00396C" stroke-miterlimit="10" stroke-linecap="round" stroke-linejoin="round"/>
<path d="M8.79199 37V38.048" stroke="#00396C" stroke-miterlimit="10" stroke-linecap="round" stroke-linejoin="round"/>
<path d="M8.79199 40.328V41.376" stroke="#00396C" stroke-miterlimit="10" stroke-linecap="round" stroke-linejoin="round"/>
<path d="M34.6816 12.942H35.7296" stroke="#00396C" stroke-miterlimit="10" stroke-linecap="round" stroke-linejoin="round"/>
<path d="M38.0095 12.942H39.0495" stroke="#00396C" stroke-miterlimit="10" stroke-linecap="round" stroke-linejoin="round"/>
<path d="M36.8657 10.75V11.798" stroke="#00396C" stroke-miterlimit="10" stroke-linecap="round" stroke-linejoin="round"/>
<path d="M36.8657 14.078V15.126" stroke="#00396C" stroke-miterlimit="10" stroke-linecap="round" stroke-linejoin="round"/>
<g clip-path="url(#clip0_50114_40665)">
<path d="M35.5267 40.2116L23.9984 41.5366C22.7834 41.675 21.6484 40.9133 21.3184 39.7366L13.3434 11.3616C13.0317 10.2533 13.8617 9.15163 15.0134 9.14497L27.1651 9.0683C28.0067 9.0683 28.7501 9.61663 28.9967 10.4216L37.3117 37.48C37.7034 38.7483 36.8451 40.06 35.5267 40.2116Z" fill="#00529A"/>
<path d="M23.7069 41.6767C22.5469 41.6767 21.5186 40.9117 21.1986 39.7683L13.2236 11.395C13.0652 10.8283 13.1752 10.235 13.5286 9.76498C13.8819 9.29498 14.4236 9.02165 15.0119 9.01832L27.1652 8.94165C28.0686 8.94165 28.8536 9.52165 29.1169 10.3833L37.4319 37.44C37.6286 38.0817 37.5319 38.7717 37.1636 39.3333C36.7969 39.895 36.2052 40.26 35.5402 40.3367L24.0119 41.66C23.9102 41.67 23.8069 41.6767 23.7069 41.6767ZM27.1669 9.19165L15.0136 9.26832C14.5036 9.27165 14.0352 9.50832 13.7286 9.91498C13.4219 10.3217 13.3252 10.8367 13.4636 11.3267L21.4386 39.7C21.7536 40.825 22.8252 41.5433 23.9836 41.41L35.5119 40.0867C36.1036 40.0183 36.6286 39.6933 36.9552 39.195C37.2819 38.695 37.3686 38.0833 37.1936 37.5133L28.8786 10.4567C28.6469 9.69998 27.9586 9.19165 27.1669 9.19165Z" fill="#00396C"/>
<path d="M35.2401 35.9133L22.9585 37.28C22.5951 37.32 22.2551 37.0917 22.1551 36.7383L15.1485 11.81C14.9068 10.9483 15.5535 10.0933 16.4501 10.0933H27.0618C27.7585 10.0933 28.3735 10.5483 28.5768 11.215L35.8735 34.95C36.0101 35.3983 35.7068 35.8617 35.2401 35.9133Z" fill="white"/>
<path d="M30.5018 37.9433C30.5368 38.24 30.3235 38.5116 30.0268 38.5466C29.7285 38.5816 29.4585 38.3683 29.4235 38.0716C29.3885 37.7733 29.6001 37.5033 29.8985 37.4683C30.1951 37.4316 30.4668 37.645 30.5018 37.9433Z" fill="#FF9051"/>
<path d="M34.8153 37.4316C34.8503 37.7283 34.6369 38 34.3403 38.035C34.0419 38.07 33.7719 37.8566 33.7369 37.56C33.7019 37.2616 33.9136 36.9916 34.2119 36.9566C34.5103 36.92 34.7803 37.1333 34.8153 37.4316Z" fill="#FF9051"/>
<path d="M26.1869 38.455C26.2219 38.7517 26.0102 39.0233 25.7119 39.0583C25.4135 39.0933 25.1435 38.88 25.1085 38.5833C25.0735 38.285 25.2852 38.015 25.5835 37.98C25.8819 37.9433 26.1519 38.1567 26.1869 38.455Z" fill="#FF9051"/>
<path d="M24.0734 33.71C24.4101 35.8216 22.9118 37.6716 20.7251 37.84C18.5384 38.0083 16.5084 36.3733 16.1901 34.1866C15.8718 32 17.3701 30.1516 19.5384 30.0566C21.7068 29.9616 23.7368 31.5966 24.0734 33.71Z" fill="#3375AE"/>
<path d="M20.4168 37.9767C18.2934 37.9767 16.3784 36.345 16.0668 34.205C15.9051 33.0983 16.1868 32.0417 16.8568 31.2317C17.5118 30.44 18.4618 29.9783 19.5318 29.9317C21.7601 29.8317 23.8501 31.52 24.1951 33.69C24.3601 34.7283 24.1034 35.7433 23.4701 36.545C22.8151 37.375 21.8434 37.8783 20.7334 37.965C20.6284 37.9717 20.5218 37.9767 20.4168 37.9767ZM19.7168 30.1767C19.6584 30.1767 19.6018 30.1783 19.5434 30.18C18.5434 30.2233 17.6584 30.6533 17.0484 31.3883C16.4234 32.1433 16.1618 33.13 16.3118 34.1667C16.6201 36.285 18.5918 37.8783 20.7134 37.7133C21.7534 37.6333 22.6634 37.1633 23.2734 36.3883C23.8634 35.6417 24.1018 34.6967 23.9468 33.7283C23.6318 31.7367 21.7534 30.1767 19.7168 30.1767Z" fill="#00396C"/>
<path d="M24.0717 33.71C24.4084 35.8217 22.9117 37.67 20.7251 37.8383C20.2234 37.8767 19.7334 37.8233 19.2667 37.6883C19.0101 37.2433 18.8317 36.7517 18.7534 36.225C18.4301 34.06 19.9267 32.2117 22.1001 32.0967C22.5984 32.07 23.0867 32.135 23.5484 32.2767C23.8101 32.7133 23.9901 33.1967 24.0717 33.71Z" fill="#00529A"/>
<path d="M23.2636 33.7583C23.5302 35.4416 22.3386 36.91 20.6036 37.0383C18.8686 37.1666 17.2569 35.8666 17.0019 34.1366C16.7469 32.4066 17.9386 30.9366 19.6619 30.8566C21.3836 30.775 22.9969 32.075 23.2636 33.7583Z" fill="#FF9051"/>
<path d="M20.3684 37.1716C18.6684 37.1716 17.1301 35.865 16.8784 34.155C16.7484 33.275 16.9718 32.4316 17.5068 31.7816C18.0318 31.145 18.7951 30.7716 19.6568 30.7316C21.4418 30.645 23.1118 31.9966 23.3884 33.7383C23.5201 34.575 23.3134 35.39 22.8034 36.0333C22.2784 36.695 21.5018 37.0966 20.6134 37.1616C20.5301 37.1683 20.4484 37.1716 20.3684 37.1716ZM19.8151 30.9783C19.7668 30.9783 19.7168 30.98 19.6668 30.9816C18.8768 31.0183 18.1784 31.3583 17.6984 31.9416C17.2084 32.5366 17.0051 33.31 17.1234 34.1183C17.3684 35.7833 18.9268 37.04 20.5918 36.9133C21.4084 36.8533 22.1234 36.485 22.6034 35.8783C23.0684 35.29 23.2584 34.545 23.1368 33.7783C22.8901 32.205 21.4168 30.9783 19.8151 30.9783Z" fill="#00396C"/>
<path d="M19.7051 35.4383C19.7368 35.54 19.6768 35.6417 19.5734 35.6633L18.8134 35.825L18.7851 35.8267C18.6784 35.8417 18.5734 35.7683 18.5501 35.665C18.5268 35.56 18.5934 35.465 18.7001 35.45L18.9851 35.39C18.1051 34.7433 17.8834 33.5667 18.4868 32.7717C18.7901 32.3733 19.2634 32.1317 19.7934 32.1033C19.8518 32.1 19.9101 32.0967 19.9701 32.1017C20.0784 32.105 20.1718 32.1933 20.1784 32.2983C20.1851 32.4033 20.1018 32.485 19.9918 32.48C19.9451 32.4783 19.8968 32.4783 19.8501 32.4817C19.0118 32.5283 18.4318 33.2283 18.5568 34.045C18.6184 34.4533 18.8501 34.8317 19.1984 35.09L19.1018 34.77C19.0801 34.6667 19.1484 34.5717 19.2551 34.5583C19.3484 34.5467 19.4434 34.6033 19.4784 34.6917L19.7051 35.4383ZM21.2734 32.5167L21.5568 32.46C21.6601 32.4383 21.7201 32.34 21.6884 32.2383C21.6568 32.1367 21.5468 32.0717 21.4434 32.0917L20.6868 32.2383C20.5834 32.2583 20.5234 32.3583 20.5551 32.46L20.7834 33.205C20.8118 33.2967 20.9034 33.36 21.0001 33.3533L21.0284 33.3517C21.1334 33.33 21.1918 33.23 21.1601 33.1283C21.1601 33.1267 21.1601 33.1267 21.1584 33.125L21.0618 32.81C21.7601 33.3267 21.9334 34.2483 21.4501 34.8717C21.2084 35.185 21.0051 35.3667 20.5851 35.3967C20.5384 35.4 20.4901 35.4033 20.4434 35.4C20.3334 35.3983 20.2501 35.48 20.2568 35.585C20.2634 35.69 20.3568 35.7767 20.4651 35.7783C20.5251 35.7783 20.5834 35.7783 20.6434 35.7733C21.7001 35.7 22.2568 34.8317 22.0984 33.8217C22.0168 33.3167 21.7184 32.8417 21.2734 32.5167Z" fill="white"/>
<path d="M19.7518 32.1683L20.3034 35.8L20.2784 35.8016L19.7251 32.17L19.7518 32.1683Z" fill="white"/>
<path d="M19.8603 32.1617L20.4136 35.7933L20.3036 35.8L19.752 32.1683L19.8603 32.1617Z" fill="white"/>
<path d="M19.9684 32.1566L20.5234 35.785L20.4134 35.7933L19.8601 32.1616L19.9684 32.1566Z" fill="white"/>
<path d="M20.0785 32.15L20.6318 35.7783L20.5235 35.785L19.9685 32.1566L20.0785 32.15Z" fill="white"/>
<path d="M20.1869 32.145L20.7419 35.77L20.6319 35.7783L20.0786 32.15L20.1869 32.145Z" fill="white"/>
<path d="M20.2968 32.14L20.8518 35.7633L20.7418 35.77L20.1868 32.145L20.2968 32.14Z" fill="white"/>
<path d="M20.4052 32.1333L20.9602 35.755L20.8519 35.7633L20.2969 32.14L20.4052 32.1333Z" fill="white"/>
<path d="M20.5136 32.1283L21.0703 35.7483L20.9603 35.755L20.4053 32.1333L20.5136 32.1283Z" fill="white"/>
<path d="M20.6234 32.1216L21.1801 35.74L21.0701 35.7483L20.5134 32.1283L20.6234 32.1216Z" fill="white"/>
<path d="M20.7319 32.1166L21.2885 35.7333L21.1802 35.74L20.6235 32.1216L20.7319 32.1166Z" fill="white"/>
<path d="M20.8403 32.11L21.3986 35.725L21.2886 35.7333L20.7319 32.1167L20.8403 32.11Z" fill="white"/>
<path d="M20.9501 32.105L21.5084 35.7183L21.3984 35.725L20.8401 32.11L20.9501 32.105Z" fill="white"/>
<path d="M21.0585 32.0983L21.6169 35.71L21.5085 35.7183L20.9502 32.105L21.0585 32.0983Z" fill="white"/>
<path d="M21.1686 32.0933L21.7269 35.7033L21.6169 35.71L21.0586 32.0983L21.1686 32.0933Z" fill="white"/>
<path d="M21.2768 32.0883L21.8351 35.695L21.7268 35.7033L21.1685 32.0933L21.2768 32.0883Z" fill="white"/>
<path d="M21.3852 32.0816L21.9452 35.6883L21.8352 35.695L21.2769 32.0883L21.3852 32.0816Z" fill="white"/>
<path d="M21.4953 32.0767L22.0553 35.6817L21.9453 35.6883L21.3853 32.0817L21.4953 32.0767Z" fill="white"/>
<path d="M21.6035 32.07L22.1635 35.6733L22.0551 35.6816L21.4951 32.0766L21.6035 32.07Z" fill="white"/>
<path d="M21.7135 32.065L22.2735 35.6666L22.1635 35.6733L21.6035 32.07L21.7135 32.065Z" fill="white"/>
<path d="M21.8217 32.0583L22.3834 35.6583L22.2734 35.6667L21.7134 32.065L21.8217 32.0583Z" fill="white"/>
<path d="M22.3834 35.6583L21.8218 32.0583H21.8234L22.3851 35.6583H22.3834Z" fill="white"/>
<path d="M17.8902 32.2033L18.4336 35.86L18.2252 35.8733L17.6819 32.215L17.8902 32.2033Z" fill="white"/>
<path d="M17.9985 32.1983L18.5435 35.8516L18.4335 35.86L17.8901 32.2033L17.9985 32.1983Z" fill="white"/>
<path d="M18.1069 32.1917L18.6535 35.845L18.5435 35.8517L17.9985 32.1983L18.1069 32.1917Z" fill="white"/>
<path d="M18.2169 32.1866L18.7619 35.8366L18.6536 35.845L18.1069 32.1916L18.2169 32.1866Z" fill="white"/>
<path d="M18.3251 32.1816L18.8718 35.83L18.7618 35.8366L18.2168 32.1866L18.3251 32.1816Z" fill="white"/>
<path d="M18.4352 32.175L18.9819 35.8233L18.8719 35.83L18.3252 32.1817L18.4352 32.175Z" fill="white"/>
<path d="M18.5434 32.17L19.0901 35.815L18.9817 35.8233L18.4351 32.175L18.5434 32.17Z" fill="white"/>
<path d="M18.6518 32.1633L19.2001 35.8083L19.0901 35.815L18.5435 32.17L18.6518 32.1633Z" fill="white"/>
<path d="M18.7619 32.1583L19.3102 35.8L19.2002 35.8083L18.6519 32.1633L18.7619 32.1583Z" fill="white"/>
<path d="M18.8701 32.1533L19.4184 35.7933L19.3101 35.8L18.7617 32.1583L18.8701 32.1533Z" fill="white"/>
<path d="M18.9785 32.1466L19.5285 35.785L19.4185 35.7933L18.8701 32.1533L18.9785 32.1466Z" fill="white"/>
<path d="M19.0885 32.1417L19.6368 35.7783L19.5285 35.785L18.9785 32.1467L19.0885 32.1417Z" fill="white"/>
<path d="M19.1967 32.135L19.7467 35.77L19.6367 35.7783L19.0884 32.1416L19.1967 32.135Z" fill="white"/>
<path d="M19.3068 32.13L19.8568 35.7633L19.7468 35.77L19.1968 32.135L19.3068 32.13Z" fill="white"/>
<path d="M19.4152 32.1233L19.9652 35.755L19.8569 35.7633L19.3069 32.13L19.4152 32.1233Z" fill="white"/>
<path d="M19.5236 32.1183L20.0753 35.7483L19.9653 35.755L19.4153 32.1233L19.5236 32.1183Z" fill="white"/>
<path d="M19.6334 32.1133L20.1851 35.74L20.0751 35.7483L19.5234 32.1183L19.6334 32.1133Z" fill="white"/>
<path d="M19.7419 32.1067L20.2935 35.7333L20.1852 35.74L19.6335 32.1133L19.7419 32.1067Z" fill="white"/>
<path d="M19.8503 32.1017L20.4036 35.7267L20.2936 35.7333L19.7419 32.1067L19.8503 32.1017Z" fill="white"/>
<path d="M19.9601 32.095L20.5134 35.7183L20.4034 35.7266L19.8501 32.1016L19.9601 32.095Z" fill="white"/>
<path d="M20.0685 32.09L20.6219 35.7116L20.5135 35.7183L19.9602 32.095L20.0685 32.09Z" fill="white"/>
<path d="M20.6219 35.7117L20.0686 32.09L20.1553 32.085L20.7086 35.705L20.6219 35.7117Z" fill="white"/>
<path fill-rule="evenodd" clip-rule="evenodd" d="M15.9151 24.8849L12.6067 25.9933C12.6067 25.9933 8.62841 22.3399 5.99341 18.7616L12.3417 18.9683C12.3401 18.9699 14.4884 23.5833 15.9151 24.8849Z" fill="#AFE3F9"/>
<path fill-rule="evenodd" clip-rule="evenodd" d="M12.605 25.9933C12.605 25.9933 8.97003 22.2783 8.4667 20.2817C7.95837 18.2683 8.34837 17.9367 8.34837 17.9367C8.34837 17.9367 6.4067 17.255 5.9917 18.7617C5.9917 18.7617 10.855 25.3033 12.605 25.9933Z" fill="#37A7F4"/>
<path d="M12.6066 26.1183C12.575 26.1183 12.5433 26.1067 12.52 26.0833C12.5183 26.0817 12.505 26.07 12.5033 26.07L12.58 25.97L12.49 26.0567C11.8783 25.42 8.80829 22.1533 8.34496 20.3117C8.19996 19.735 8.11329 19.24 8.08829 18.8417C8.08662 18.8067 8.09829 18.7717 8.12329 18.7467C8.14829 18.7217 8.18162 18.7067 8.21662 18.7083L12.3433 18.8433C12.39 18.845 12.4333 18.8733 12.4533 18.915C12.475 18.9616 14.6066 23.52 15.9983 24.79C16.0316 24.82 16.045 24.865 16.0366 24.9083C16.0283 24.9517 15.9966 24.9867 15.9533 25.0017L12.645 26.11C12.6333 26.115 12.62 26.1183 12.6066 26.1183ZM12.6 25.975L12.5933 25.9833L12.6 25.9783V25.975ZM8.34996 18.9633C8.38329 19.3217 8.46329 19.7533 8.58829 20.25C9.02829 22 11.9683 25.1483 12.6383 25.8483L15.68 24.83C14.3433 23.4533 12.535 19.6733 12.26 19.09L8.34996 18.9633Z" fill="#00396C"/>
<path d="M12.5818 26.1267C12.5434 26.1267 12.5051 26.1133 12.4751 26.085C12.3318 25.9533 8.94177 22.815 6.40344 19.5633C6.06677 19.1267 5.86677 18.855 5.86677 18.855C5.83844 18.8167 5.82844 18.7667 5.84177 18.7183C5.95677 18.3 6.19011 17.9967 6.53677 17.815C7.30844 17.4117 8.36011 17.7717 8.40344 17.7867C8.45677 17.805 8.49511 17.8517 8.50677 17.9067C8.51677 17.9617 8.49677 18.0183 8.45344 18.055C8.45511 18.055 8.33511 18.2217 8.37344 18.8217C8.39677 19.2017 8.48177 19.68 8.62177 20.24C9.06844 22.0117 12.0934 25.23 12.6951 25.8583C12.7534 25.92 12.7534 26.0167 12.6934 26.0783C12.6634 26.1117 12.6218 26.1267 12.5818 26.1267ZM6.16511 18.73C6.24344 18.8333 6.41344 19.06 6.65177 19.37C7.67011 20.675 8.82677 21.96 9.85344 23.04C9.13344 22.0817 8.50844 21.0867 8.31511 20.32C8.16844 19.74 8.08177 19.245 8.05677 18.845C8.03177 18.4417 8.07011 18.19 8.12177 18.0367C7.81344 17.96 7.16177 17.8433 6.68011 18.0967C6.43511 18.225 6.26177 18.4383 6.16511 18.73Z" fill="#00396C"/>
<path d="M12.6018 26.1166C12.5885 26.1166 12.5752 26.115 12.5618 26.1083C11.1385 25.5483 7.79849 21.3283 6.42849 19.5416C6.38682 19.4866 6.39682 19.4083 6.45182 19.3666C6.50682 19.3233 6.58516 19.335 6.62682 19.3883C9.15182 22.6216 12.5252 25.745 12.6685 25.8766L12.6852 25.8933C12.7268 25.935 12.7402 26.005 12.7068 26.055C12.6802 26.0933 12.6418 26.1166 12.6018 26.1166Z" fill="#00396C"/>
<path d="M9.29852 20.7C9.21852 20.7 9.14852 20.6383 9.14185 20.5566C9.13352 20.47 9.19685 20.3933 9.28518 20.385L12.0519 20.1316C12.1385 20.1233 12.2152 20.1883 12.2235 20.275C12.2318 20.3616 12.1685 20.4383 12.0802 20.4466L9.31352 20.7C9.30685 20.7 9.30185 20.7 9.29852 20.7Z" fill="white"/>
<path d="M9.84051 21.735C9.76051 21.735 9.69051 21.6733 9.68384 21.5917C9.67551 21.505 9.73884 21.4283 9.82717 21.42L12.5922 21.1667C12.6805 21.1567 12.7555 21.2217 12.7638 21.31C12.7722 21.3967 12.7088 21.4733 12.6205 21.4817L9.85551 21.735C9.84884 21.735 9.84384 21.735 9.84051 21.735Z" fill="white"/>
</g>
<path d="M40.8171 19.315H24.0171V29.6183H40.8171V19.315Z" fill="#00396C"/>
<path d="M24.0171 20.2533V28.2483C24.0171 29.0017 24.6338 29.6167 25.3854 29.6167H30.3821C30.6021 29.0533 30.8321 28.5317 31.0688 28.09L29.4938 19.315H25.5838L24.0171 20.2533Z" fill="#00396C"/>
<path d="M40.8168 23.3766C40.1334 26.0183 38.3218 28.1266 36.6001 29.6166H39.4484C40.2018 29.6166 40.8168 29 40.8168 28.2483V23.3766Z" fill="#4D97CE"/>
<path d="M40.8188 29.7417H24.0171C23.9488 29.7417 23.8921 29.685 23.8921 29.6167V19.315C23.8921 19.2467 23.9488 19.19 24.0171 19.19C24.0854 19.19 24.1421 19.2467 24.1421 19.315V29.4917H40.6938V19.315C40.6938 19.2467 40.7504 19.19 40.8188 19.19C40.8871 19.19 40.9438 19.2467 40.9438 19.315V29.6167C40.9438 29.685 40.8871 29.7417 40.8188 29.7417Z" fill="#00396C"/>
<path d="M39.4488 29.7417H25.3854C24.5621 29.7417 23.8921 29.0717 23.8921 28.2483V19.315C23.8921 19.2467 23.9488 19.19 24.0171 19.19C24.0854 19.19 24.1421 19.2467 24.1421 19.315V28.2483C24.1421 28.9333 24.7004 29.4917 25.3854 29.4917H39.4488C40.1338 29.4917 40.6921 28.9333 40.6921 28.2483V19.315C40.6921 19.2467 40.7488 19.19 40.8171 19.19C40.8854 19.19 40.9421 19.2467 40.9421 19.315V28.2483C40.9421 29.0717 40.2721 29.7417 39.4488 29.7417Z" fill="#00396C"/>
<path d="M24.6654 17.6866H40.1704C40.8371 17.6866 41.3771 18.2266 41.3771 18.8933V27.4683C41.3771 28.135 40.8371 28.675 40.1704 28.675H24.6654C23.9987 28.675 23.4587 28.135 23.4587 27.4683V18.8916C23.4587 18.2266 23.9987 17.6866 24.6654 17.6866Z" fill="#3375AE"/>
<path d="M23.4587 18.9333V23.8433C27.0321 23.515 32.8371 22.2466 36.9321 17.6866H24.7054C24.0171 17.6866 23.4587 18.245 23.4587 18.9333Z" fill="#FF9051"/>
<path d="M41.3757 20.425C36.1373 21.2033 32.7873 25.4767 30.979 28.6733H39.9157C40.719 28.6733 41.3757 28.0167 41.3757 27.2133V20.425Z" fill="#00529A"/>
<path d="M39.122 23.105C39.1504 23.11 39.1787 23.115 39.2087 23.1183C39.457 23.1533 39.647 23.3616 39.687 23.6033C39.692 23.6366 39.6937 23.67 39.6937 23.7033C39.6937 24.5666 39.6954 25.43 39.6937 26.2933C39.6937 26.5216 39.5904 26.6983 39.3937 26.815C39.3087 26.8666 39.2137 26.8883 39.1154 26.8883C38.2404 26.8883 37.3654 26.89 36.4904 26.8883C36.2104 26.8883 35.982 26.6833 35.932 26.415C35.922 26.3666 35.9187 26.3183 35.9187 26.2683C35.9187 25.4116 35.917 24.5533 35.9187 23.6966C35.9187 23.4933 36.007 23.33 36.1704 23.2116C36.2537 23.15 36.352 23.115 36.4587 23.1133C36.4687 23.1133 36.4787 23.1083 36.4887 23.1066H39.122V23.105ZM36.537 25.0083C36.5654 24.9816 36.5887 24.9616 36.6087 24.9416C36.762 24.7866 36.9137 24.63 37.0654 24.475C37.1487 24.39 37.237 24.3083 37.3137 24.2183C37.412 24.1016 37.442 23.9633 37.4154 23.8133C37.3987 23.7166 37.3554 23.6316 37.2904 23.56C37.2087 23.4716 37.1087 23.415 36.9887 23.4066C36.8854 23.4 36.7804 23.4033 36.677 23.4033C36.6154 23.4033 36.5554 23.41 36.502 23.4433C36.392 23.51 36.3404 23.61 36.3404 23.735C36.3387 24.33 36.3404 24.925 36.3404 25.5216C36.3404 25.7716 36.3404 26.0233 36.3404 26.2733C36.3404 26.4266 36.442 26.56 36.592 26.5833C36.687 26.5983 36.787 26.5933 36.8854 26.585C37.042 26.5716 37.1704 26.4983 37.2704 26.3783C37.4287 26.1883 37.4187 25.9016 37.247 25.725C37.1087 25.5816 36.9704 25.44 36.8304 25.2983C36.7354 25.2 36.6387 25.1066 36.537 25.0083ZM37.6704 23.405C37.6854 23.4316 37.7004 23.4533 37.7104 23.475C37.8037 23.6566 37.8304 23.85 37.807 24.0516C37.7837 24.255 37.7004 24.4266 37.552 24.57C37.4387 24.6783 37.332 24.7933 37.222 24.9066C37.1937 24.935 37.167 24.965 37.137 24.9966C37.1437 25.005 37.1504 25.0116 37.157 25.0183C37.292 25.155 37.427 25.29 37.5587 25.43C37.6037 25.4783 37.6437 25.535 37.677 25.5916C37.7354 25.6933 37.767 25.8033 37.782 25.92C37.792 25.9966 37.7987 26.0733 37.7854 26.1516C37.7604 26.28 37.7204 26.405 37.6687 26.525C37.6604 26.545 37.652 26.5666 37.642 26.5916H37.682H37.927C38.2637 26.5916 38.6004 26.5916 38.937 26.5916C39.0004 26.5916 39.062 26.5816 39.1204 26.5433C38.6154 26.0283 38.112 25.5133 37.607 25C37.612 24.9933 37.617 24.9883 37.6204 24.985C37.7404 24.8633 37.8604 24.7416 37.9787 24.62C38.1004 24.495 38.222 24.3716 38.3404 24.245C38.417 24.165 38.4587 24.0666 38.467 23.9566C38.4787 23.81 38.437 23.6783 38.3387 23.5666C38.2587 23.4766 38.157 23.4183 38.0354 23.41C37.9254 23.4016 37.8137 23.4066 37.702 23.405C37.6937 23.4016 37.6854 23.4033 37.6704 23.405ZM39.2537 26.1083C39.2587 26.105 39.2637 26.1016 39.2687 26.1V26.06C39.2687 25.29 39.2687 24.5216 39.2687 23.7516C39.2687 23.7233 39.267 23.6933 39.262 23.665C39.2437 23.5416 39.137 23.4266 39.0137 23.4116C38.9187 23.4 38.822 23.4016 38.7254 23.3983C38.7237 23.3983 38.722 23.4 38.7204 23.4016C38.7204 23.4016 38.7187 23.4033 38.7204 23.4033C38.7237 23.41 38.727 23.4166 38.7304 23.4216C38.8137 23.5533 38.852 23.7 38.862 23.8533C38.8687 23.9416 38.862 24.0283 38.8437 24.115C38.812 24.2733 38.7487 24.4133 38.632 24.5283C38.4837 24.6733 38.3404 24.8233 38.1937 24.97C38.1754 24.9883 38.1754 25 38.1937 25.0183C38.3254 25.1516 38.4554 25.2866 38.587 25.42C38.7937 25.63 38.9987 25.8383 39.2054 26.0483C39.2237 26.0683 39.2387 26.0883 39.2537 26.1083Z" fill="white"/>
<path d="M40.1702 28.8H24.6652C23.9302 28.8 23.3335 28.2033 23.3335 27.4683V18.8917C23.3335 18.1583 23.9302 17.5617 24.6652 17.5617H40.1702C40.9052 17.5617 41.5018 18.1583 41.5018 18.8933V27.4683C41.5018 28.2017 40.9035 28.8 40.1702 28.8ZM24.6652 17.8117C24.0685 17.8117 23.5835 18.2967 23.5835 18.8917V27.4683C23.5835 28.065 24.0685 28.55 24.6652 28.55H40.1702C40.7668 28.55 41.2518 28.065 41.2518 27.4683V18.8933C41.2518 18.2967 40.7668 17.8117 40.1702 17.8117H24.6652Z" fill="#00396C"/>
<path d="M23.4586 23.9683C23.3953 23.9683 23.3403 23.92 23.3336 23.855C23.3269 23.7866 23.3769 23.725 23.4453 23.7183C30.8319 22.9933 34.6086 19.665 34.6453 19.6316C34.6969 19.585 34.7753 19.59 34.8219 19.6416C34.8686 19.6933 34.8636 19.7716 34.8119 19.8183C34.7736 19.8516 30.9436 23.235 23.4686 23.9683C23.4669 23.9683 23.4619 23.9683 23.4586 23.9683Z" fill="#00396C"/>
<defs>
<clipPath id="clip0_50114_40665">
<rect width="36.2267" height="34.3433" fill="white" transform="translate(5.8335 7.33331)"/>
</clipPath>
</defs>
</svg>
