<svg width="48" height="48" viewBox="0 0 48 48" fill="none" xmlns="http://www.w3.org/2000/svg">
<rect width="48" height="48" rx="24" fill="#E6EEF5"/>
<path d="M6.60791 38.684H7.64791" stroke="#00396C" stroke-miterlimit="10" stroke-linecap="round" stroke-linejoin="round"/>
<path d="M9.92798 38.684H10.976" stroke="#00396C" stroke-miterlimit="10" stroke-linecap="round" stroke-linejoin="round"/>
<path d="M8.79199 36.5V37.548" stroke="#00396C" stroke-miterlimit="10" stroke-linecap="round" stroke-linejoin="round"/>
<path d="M8.79199 39.828V40.876" stroke="#00396C" stroke-miterlimit="10" stroke-linecap="round" stroke-linejoin="round"/>
<path d="M34.6816 12.442H35.7296" stroke="#00396C" stroke-miterlimit="10" stroke-linecap="round" stroke-linejoin="round"/>
<path d="M38.0095 12.442H39.0495" stroke="#00396C" stroke-miterlimit="10" stroke-linecap="round" stroke-linejoin="round"/>
<path d="M36.8657 10.25V11.298" stroke="#00396C" stroke-miterlimit="10" stroke-linecap="round" stroke-linejoin="round"/>
<path d="M36.8657 13.578V14.626" stroke="#00396C" stroke-miterlimit="10" stroke-linecap="round" stroke-linejoin="round"/>
<g clip-path="url(#clip0_50114_40546)">
<path d="M35.5267 39.7116L23.9984 41.0366C22.7834 41.175 21.6484 40.4133 21.3184 39.2366L13.3434 10.8616C13.0317 9.7533 13.8617 8.65163 15.0134 8.64497L27.1651 8.5683C28.0067 8.5683 28.7501 9.11663 28.9967 9.92163L37.3117 36.98C37.7034 38.2483 36.8451 39.56 35.5267 39.7116Z" fill="#00529A"/>
<path d="M23.7069 41.1767C22.5469 41.1767 21.5186 40.4117 21.1986 39.2683L13.2236 10.895C13.0652 10.3283 13.1752 9.73498 13.5286 9.26498C13.8819 8.79498 14.4236 8.52165 15.0119 8.51832L27.1652 8.44165C28.0686 8.44165 28.8536 9.02165 29.1169 9.88332L37.4319 36.94C37.6286 37.5817 37.5319 38.2717 37.1636 38.8333C36.7969 39.395 36.2052 39.76 35.5402 39.8367L24.0119 41.16C23.9102 41.17 23.8069 41.1767 23.7069 41.1767ZM27.1669 8.69165L15.0136 8.76832C14.5036 8.77165 14.0352 9.00832 13.7286 9.41498C13.4219 9.82165 13.3252 10.3367 13.4636 10.8267L21.4386 39.2C21.7536 40.325 22.8252 41.0433 23.9836 40.91L35.5119 39.5867C36.1036 39.5183 36.6286 39.1933 36.9552 38.695C37.2819 38.195 37.3686 37.5833 37.1936 37.0133L28.8786 9.95665C28.6469 9.19998 27.9586 8.69165 27.1669 8.69165Z" fill="#00396C"/>
<path d="M35.2401 35.4133L22.9585 36.78C22.5951 36.82 22.2551 36.5917 22.1551 36.2383L15.1485 11.31C14.9068 10.4483 15.5535 9.59332 16.4501 9.59332H27.0618C27.7585 9.59332 28.3735 10.0483 28.5768 10.715L35.8735 34.45C36.0101 34.8983 35.7068 35.3617 35.2401 35.4133Z" fill="white"/>
<path d="M30.5018 37.4433C30.5368 37.74 30.3235 38.0116 30.0268 38.0466C29.7285 38.0816 29.4585 37.8683 29.4235 37.5716C29.3885 37.2733 29.6001 37.0033 29.8985 36.9683C30.1951 36.9316 30.4668 37.145 30.5018 37.4433Z" fill="#FF9051"/>
<path d="M34.8153 36.9316C34.8503 37.2283 34.6369 37.5 34.3403 37.535C34.0419 37.57 33.7719 37.3566 33.7369 37.06C33.7019 36.7616 33.9136 36.4916 34.2119 36.4566C34.5103 36.42 34.7803 36.6333 34.8153 36.9316Z" fill="#FF9051"/>
<path d="M26.1869 37.955C26.2219 38.2517 26.0102 38.5233 25.7119 38.5583C25.4135 38.5933 25.1435 38.38 25.1085 38.0833C25.0735 37.785 25.2852 37.515 25.5835 37.48C25.8819 37.4433 26.1519 37.6567 26.1869 37.955Z" fill="#FF9051"/>
<path d="M24.0734 33.21C24.4101 35.3216 22.9118 37.1716 20.7251 37.34C18.5384 37.5083 16.5084 35.8733 16.1901 33.6866C15.8718 31.5 17.3701 29.6516 19.5384 29.5566C21.7068 29.4616 23.7368 31.0966 24.0734 33.21Z" fill="#3375AE"/>
<path d="M20.4168 37.4767C18.2934 37.4767 16.3784 35.845 16.0668 33.705C15.9051 32.5983 16.1868 31.5417 16.8568 30.7317C17.5118 29.94 18.4618 29.4783 19.5318 29.4317C21.7601 29.3317 23.8501 31.02 24.1951 33.19C24.3601 34.2283 24.1034 35.2433 23.4701 36.045C22.8151 36.875 21.8434 37.3783 20.7334 37.465C20.6284 37.4717 20.5218 37.4767 20.4168 37.4767ZM19.7168 29.6767C19.6584 29.6767 19.6018 29.6783 19.5434 29.68C18.5434 29.7233 17.6584 30.1533 17.0484 30.8883C16.4234 31.6433 16.1618 32.63 16.3118 33.6667C16.6201 35.785 18.5918 37.3783 20.7134 37.2133C21.7534 37.1333 22.6634 36.6633 23.2734 35.8883C23.8634 35.1417 24.1018 34.1967 23.9468 33.2283C23.6318 31.2367 21.7534 29.6767 19.7168 29.6767Z" fill="#00396C"/>
<path d="M24.0717 33.21C24.4084 35.3217 22.9117 37.17 20.7251 37.3383C20.2234 37.3767 19.7334 37.3233 19.2667 37.1883C19.0101 36.7433 18.8317 36.2517 18.7534 35.725C18.4301 33.56 19.9267 31.7117 22.1001 31.5967C22.5984 31.57 23.0867 31.635 23.5484 31.7767C23.8101 32.2133 23.9901 32.6967 24.0717 33.21Z" fill="#00529A"/>
<path d="M23.2636 33.2583C23.5302 34.9416 22.3386 36.41 20.6036 36.5383C18.8686 36.6666 17.2569 35.3666 17.0019 33.6366C16.7469 31.9066 17.9386 30.4366 19.6619 30.3566C21.3836 30.275 22.9969 31.575 23.2636 33.2583Z" fill="#FF9051"/>
<path d="M20.3684 36.6716C18.6684 36.6716 17.1301 35.365 16.8784 33.655C16.7484 32.775 16.9718 31.9316 17.5068 31.2816C18.0318 30.645 18.7951 30.2716 19.6568 30.2316C21.4418 30.145 23.1118 31.4966 23.3884 33.2383C23.5201 34.075 23.3134 34.89 22.8034 35.5333C22.2784 36.195 21.5018 36.5966 20.6134 36.6616C20.5301 36.6683 20.4484 36.6716 20.3684 36.6716ZM19.8151 30.4783C19.7668 30.4783 19.7168 30.48 19.6668 30.4816C18.8768 30.5183 18.1784 30.8583 17.6984 31.4416C17.2084 32.0366 17.0051 32.81 17.1234 33.6183C17.3684 35.2833 18.9268 36.54 20.5918 36.4133C21.4084 36.3533 22.1234 35.985 22.6034 35.3783C23.0684 34.79 23.2584 34.045 23.1368 33.2783C22.8901 31.705 21.4168 30.4783 19.8151 30.4783Z" fill="#00396C"/>
<path d="M19.7051 34.9383C19.7368 35.04 19.6768 35.1417 19.5734 35.1633L18.8134 35.325L18.7851 35.3267C18.6784 35.3417 18.5734 35.2683 18.5501 35.165C18.5268 35.06 18.5934 34.965 18.7001 34.95L18.9851 34.89C18.1051 34.2433 17.8834 33.0667 18.4868 32.2717C18.7901 31.8733 19.2634 31.6317 19.7934 31.6033C19.8518 31.6 19.9101 31.5967 19.9701 31.6017C20.0784 31.605 20.1718 31.6933 20.1784 31.7983C20.1851 31.9033 20.1018 31.985 19.9918 31.98C19.9451 31.9783 19.8968 31.9783 19.8501 31.9817C19.0118 32.0283 18.4318 32.7283 18.5568 33.545C18.6184 33.9533 18.8501 34.3317 19.1984 34.59L19.1018 34.27C19.0801 34.1667 19.1484 34.0717 19.2551 34.0583C19.3484 34.0467 19.4434 34.1033 19.4784 34.1917L19.7051 34.9383ZM21.2734 32.0167L21.5568 31.96C21.6601 31.9383 21.7201 31.84 21.6884 31.7383C21.6568 31.6367 21.5468 31.5717 21.4434 31.5917L20.6868 31.7383C20.5834 31.7583 20.5234 31.8583 20.5551 31.96L20.7834 32.705C20.8118 32.7967 20.9034 32.86 21.0001 32.8533L21.0284 32.8517C21.1334 32.83 21.1918 32.73 21.1601 32.6283C21.1601 32.6267 21.1601 32.6267 21.1584 32.625L21.0618 32.31C21.7601 32.8267 21.9334 33.7483 21.4501 34.3717C21.2084 34.685 21.0051 34.8667 20.5851 34.8967C20.5384 34.9 20.4901 34.9033 20.4434 34.9C20.3334 34.8983 20.2501 34.98 20.2568 35.085C20.2634 35.19 20.3568 35.2767 20.4651 35.2783C20.5251 35.2783 20.5834 35.2783 20.6434 35.2733C21.7001 35.2 22.2568 34.3317 22.0984 33.3217C22.0168 32.8167 21.7184 32.3417 21.2734 32.0167Z" fill="white"/>
<path d="M19.7518 31.6683L20.3034 35.3L20.2784 35.3016L19.7251 31.67L19.7518 31.6683Z" fill="white"/>
<path d="M19.8603 31.6617L20.4136 35.2933L20.3036 35.3L19.752 31.6683L19.8603 31.6617Z" fill="white"/>
<path d="M19.9684 31.6566L20.5234 35.285L20.4134 35.2933L19.8601 31.6616L19.9684 31.6566Z" fill="white"/>
<path d="M20.0785 31.65L20.6318 35.2783L20.5235 35.285L19.9685 31.6566L20.0785 31.65Z" fill="white"/>
<path d="M20.1869 31.645L20.7419 35.27L20.6319 35.2783L20.0786 31.65L20.1869 31.645Z" fill="white"/>
<path d="M20.2968 31.64L20.8518 35.2633L20.7418 35.27L20.1868 31.645L20.2968 31.64Z" fill="white"/>
<path d="M20.4052 31.6333L20.9602 35.255L20.8519 35.2633L20.2969 31.64L20.4052 31.6333Z" fill="white"/>
<path d="M20.5136 31.6283L21.0703 35.2483L20.9603 35.255L20.4053 31.6333L20.5136 31.6283Z" fill="white"/>
<path d="M20.6234 31.6216L21.1801 35.24L21.0701 35.2483L20.5134 31.6283L20.6234 31.6216Z" fill="white"/>
<path d="M20.7319 31.6166L21.2885 35.2333L21.1802 35.24L20.6235 31.6216L20.7319 31.6166Z" fill="white"/>
<path d="M20.8403 31.61L21.3986 35.225L21.2886 35.2333L20.7319 31.6167L20.8403 31.61Z" fill="white"/>
<path d="M20.9501 31.605L21.5084 35.2183L21.3984 35.225L20.8401 31.61L20.9501 31.605Z" fill="white"/>
<path d="M21.0585 31.5983L21.6169 35.21L21.5085 35.2183L20.9502 31.605L21.0585 31.5983Z" fill="white"/>
<path d="M21.1686 31.5933L21.7269 35.2033L21.6169 35.21L21.0586 31.5983L21.1686 31.5933Z" fill="white"/>
<path d="M21.2768 31.5883L21.8351 35.195L21.7268 35.2033L21.1685 31.5933L21.2768 31.5883Z" fill="white"/>
<path d="M21.3852 31.5816L21.9452 35.1883L21.8352 35.195L21.2769 31.5883L21.3852 31.5816Z" fill="white"/>
<path d="M21.4953 31.5767L22.0553 35.1817L21.9453 35.1883L21.3853 31.5817L21.4953 31.5767Z" fill="white"/>
<path d="M21.6035 31.57L22.1635 35.1733L22.0551 35.1816L21.4951 31.5766L21.6035 31.57Z" fill="white"/>
<path d="M21.7135 31.565L22.2735 35.1666L22.1635 35.1733L21.6035 31.57L21.7135 31.565Z" fill="white"/>
<path d="M21.8217 31.5583L22.3834 35.1583L22.2734 35.1667L21.7134 31.565L21.8217 31.5583Z" fill="white"/>
<path d="M22.3834 35.1583L21.8218 31.5583H21.8234L22.3851 35.1583H22.3834Z" fill="white"/>
<path d="M17.8902 31.7033L18.4336 35.36L18.2252 35.3733L17.6819 31.715L17.8902 31.7033Z" fill="white"/>
<path d="M17.9985 31.6983L18.5435 35.3516L18.4335 35.36L17.8901 31.7033L17.9985 31.6983Z" fill="white"/>
<path d="M18.1069 31.6917L18.6535 35.345L18.5435 35.3517L17.9985 31.6983L18.1069 31.6917Z" fill="white"/>
<path d="M18.2169 31.6866L18.7619 35.3366L18.6536 35.345L18.1069 31.6916L18.2169 31.6866Z" fill="white"/>
<path d="M18.3251 31.6816L18.8718 35.33L18.7618 35.3366L18.2168 31.6866L18.3251 31.6816Z" fill="white"/>
<path d="M18.4352 31.675L18.9819 35.3233L18.8719 35.33L18.3252 31.6817L18.4352 31.675Z" fill="white"/>
<path d="M18.5434 31.67L19.0901 35.315L18.9817 35.3233L18.4351 31.675L18.5434 31.67Z" fill="white"/>
<path d="M18.6518 31.6633L19.2001 35.3083L19.0901 35.315L18.5435 31.67L18.6518 31.6633Z" fill="white"/>
<path d="M18.7619 31.6583L19.3102 35.3L19.2002 35.3083L18.6519 31.6633L18.7619 31.6583Z" fill="white"/>
<path d="M18.8701 31.6533L19.4184 35.2933L19.3101 35.3L18.7617 31.6583L18.8701 31.6533Z" fill="white"/>
<path d="M18.9785 31.6466L19.5285 35.285L19.4185 35.2933L18.8701 31.6533L18.9785 31.6466Z" fill="white"/>
<path d="M19.0885 31.6417L19.6368 35.2783L19.5285 35.285L18.9785 31.6467L19.0885 31.6417Z" fill="white"/>
<path d="M19.1967 31.635L19.7467 35.27L19.6367 35.2783L19.0884 31.6416L19.1967 31.635Z" fill="white"/>
<path d="M19.3068 31.63L19.8568 35.2633L19.7468 35.27L19.1968 31.635L19.3068 31.63Z" fill="white"/>
<path d="M19.4152 31.6233L19.9652 35.255L19.8569 35.2633L19.3069 31.63L19.4152 31.6233Z" fill="white"/>
<path d="M19.5236 31.6183L20.0753 35.2483L19.9653 35.255L19.4153 31.6233L19.5236 31.6183Z" fill="white"/>
<path d="M19.6334 31.6133L20.1851 35.24L20.0751 35.2483L19.5234 31.6183L19.6334 31.6133Z" fill="white"/>
<path d="M19.7419 31.6067L20.2935 35.2333L20.1852 35.24L19.6335 31.6133L19.7419 31.6067Z" fill="white"/>
<path d="M19.8503 31.6017L20.4036 35.2267L20.2936 35.2333L19.7419 31.6067L19.8503 31.6017Z" fill="white"/>
<path d="M19.9601 31.595L20.5134 35.2183L20.4034 35.2266L19.8501 31.6016L19.9601 31.595Z" fill="white"/>
<path d="M20.0685 31.59L20.6219 35.2116L20.5135 35.2183L19.9602 31.595L20.0685 31.59Z" fill="white"/>
<path d="M20.6219 35.2117L20.0686 31.59L20.1553 31.585L20.7086 35.205L20.6219 35.2117Z" fill="white"/>
<path d="M21.7634 23.5L21.8215 22.8379L21.291 23.2216L21.0002 22.695L21.5817 22.4166L21.0002 22.1383L21.291 21.6117L21.8215 21.9953L21.7634 21.3333H22.3448L22.2866 21.9953L22.8172 21.6117L23.1079 22.1383L22.5265 22.4166L23.1079 22.695L22.8172 23.2216L22.2866 22.8379L22.3448 23.5H21.7634Z" fill="black"/>
<path d="M24.8762 23.5L24.9343 22.8379L24.4038 23.2216L24.1131 22.695L24.6945 22.4166L24.1131 22.1383L24.4038 21.6117L24.9343 21.9953L24.8762 21.3333H25.4576L25.3995 21.9953L25.93 21.6117L26.2207 22.1383L25.6393 22.4166L26.2207 22.695L25.93 23.2216L25.3995 22.8379L25.4576 23.5H24.8762Z" fill="black"/>
<path d="M27.9891 23.5L28.0472 22.8379L27.5167 23.2216L27.2259 22.695L27.8074 22.4166L27.2259 22.1383L27.5167 21.6117L28.0472 21.9953L27.9891 21.3333H28.5705L28.5123 21.9953L29.0429 21.6117L29.3336 22.1383L28.7522 22.4166L29.3336 22.695L29.0429 23.2216L28.5123 22.8379L28.5705 23.5H27.9891Z" fill="black"/>
<path fill-rule="evenodd" clip-rule="evenodd" d="M15.9151 24.3849L12.6067 25.4933C12.6067 25.4933 8.62841 21.8399 5.99341 18.2616L12.3417 18.4683C12.3401 18.4699 14.4884 23.0833 15.9151 24.3849Z" fill="#AFE3F9"/>
<path fill-rule="evenodd" clip-rule="evenodd" d="M12.605 25.4933C12.605 25.4933 8.97003 21.7783 8.4667 19.7817C7.95837 17.7683 8.34837 17.4367 8.34837 17.4367C8.34837 17.4367 6.4067 16.755 5.9917 18.2617C5.9917 18.2617 10.855 24.8033 12.605 25.4933Z" fill="#37A7F4"/>
<path d="M12.6066 25.6183C12.575 25.6183 12.5433 25.6067 12.52 25.5833C12.5183 25.5817 12.505 25.57 12.5033 25.57L12.58 25.47L12.49 25.5567C11.8783 24.92 8.80829 21.6533 8.34496 19.8117C8.19996 19.235 8.11329 18.74 8.08829 18.3417C8.08662 18.3067 8.09829 18.2717 8.12329 18.2467C8.14829 18.2217 8.18162 18.2067 8.21662 18.2083L12.3433 18.3433C12.39 18.345 12.4333 18.3733 12.4533 18.415C12.475 18.4616 14.6066 23.02 15.9983 24.29C16.0316 24.32 16.045 24.365 16.0366 24.4083C16.0283 24.4517 15.9966 24.4867 15.9533 24.5017L12.645 25.61C12.6333 25.615 12.62 25.6183 12.6066 25.6183ZM12.6 25.475L12.5933 25.4833L12.6 25.4783V25.475ZM8.34996 18.4633C8.38329 18.8217 8.46329 19.2533 8.58829 19.75C9.02829 21.5 11.9683 24.6483 12.6383 25.3483L15.68 24.33C14.3433 22.9533 12.535 19.1733 12.26 18.59L8.34996 18.4633Z" fill="#00396C"/>
<path d="M12.5818 25.6267C12.5434 25.6267 12.5051 25.6133 12.4751 25.585C12.3318 25.4533 8.94177 22.315 6.40344 19.0633C6.06677 18.6267 5.86677 18.355 5.86677 18.355C5.83844 18.3167 5.82844 18.2667 5.84177 18.2183C5.95677 17.8 6.19011 17.4967 6.53677 17.315C7.30844 16.9117 8.36011 17.2717 8.40344 17.2867C8.45677 17.305 8.49511 17.3517 8.50677 17.4067C8.51677 17.4617 8.49677 17.5183 8.45344 17.555C8.45511 17.555 8.33511 17.7217 8.37344 18.3217C8.39677 18.7017 8.48177 19.18 8.62177 19.74C9.06844 21.5117 12.0934 24.73 12.6951 25.3583C12.7534 25.42 12.7534 25.5167 12.6934 25.5783C12.6634 25.6117 12.6218 25.6267 12.5818 25.6267ZM6.16511 18.23C6.24344 18.3333 6.41344 18.56 6.65177 18.87C7.67011 20.175 8.82677 21.46 9.85344 22.54C9.13344 21.5817 8.50844 20.5867 8.31511 19.82C8.16844 19.24 8.08177 18.745 8.05677 18.345C8.03177 17.9417 8.07011 17.69 8.12177 17.5367C7.81344 17.46 7.16177 17.3433 6.68011 17.5967C6.43511 17.725 6.26177 17.9383 6.16511 18.23Z" fill="#00396C"/>
<path d="M12.6018 25.6166C12.5885 25.6166 12.5752 25.615 12.5618 25.6083C11.1385 25.0483 7.79849 20.8283 6.42849 19.0416C6.38682 18.9866 6.39682 18.9083 6.45182 18.8666C6.50682 18.8233 6.58516 18.835 6.62682 18.8883C9.15182 22.1216 12.5252 25.245 12.6685 25.3766L12.6852 25.3933C12.7268 25.435 12.7402 25.505 12.7068 25.555C12.6802 25.5933 12.6418 25.6166 12.6018 25.6166Z" fill="#00396C"/>
<path d="M9.29852 20.2C9.21852 20.2 9.14852 20.1383 9.14185 20.0566C9.13352 19.97 9.19685 19.8933 9.28518 19.885L12.0519 19.6316C12.1385 19.6233 12.2152 19.6883 12.2235 19.775C12.2318 19.8616 12.1685 19.9383 12.0802 19.9466L9.31352 20.2C9.30685 20.2 9.30185 20.2 9.29852 20.2Z" fill="white"/>
<path d="M9.84051 21.235C9.76051 21.235 9.69051 21.1733 9.68384 21.0917C9.67551 21.005 9.73884 20.9283 9.82717 20.92L12.5922 20.6667C12.6805 20.6567 12.7555 20.7217 12.7638 20.81C12.7722 20.8967 12.7088 20.9733 12.6205 20.9817L9.85551 21.235C9.84884 21.235 9.84384 21.235 9.84051 21.235Z" fill="white"/>
</g>
<path fill-rule="evenodd" clip-rule="evenodd" d="M33.925 29.2533L36.8145 30.2222C36.8145 30.2222 40.2879 27.0321 42.589 23.9091L37.0459 24.0908C37.0437 24.0886 35.1686 28.1178 33.925 29.2533Z" fill="#AFE3F9"/>
<path d="M36.8144 30.3844C36.7971 30.3844 36.7798 30.3822 36.7625 30.3758L33.8731 29.4068C33.819 29.3895 33.7779 29.342 33.765 29.2857C33.752 29.2295 33.7714 29.1711 33.8147 29.1322C34.8744 28.1654 36.4251 25.01 36.8772 24.067C36.9096 24 36.9355 23.9416 37.0221 23.9308L42.5825 23.7469C42.6474 23.7469 42.7014 23.7794 42.7317 23.8334C42.7598 23.8875 42.7555 23.9545 42.7187 24.0043C40.4349 27.1035 36.9572 30.3087 36.9226 30.3412C36.8923 30.3693 36.8534 30.3844 36.8144 30.3844ZM34.2235 29.1819L36.7733 30.0362C37.26 29.582 40.1775 26.8267 42.2559 24.08L37.1475 24.2465C36.6955 25.1981 35.294 28.0292 34.2235 29.1819Z" fill="#00396C"/>
<path fill-rule="evenodd" clip-rule="evenodd" d="M33.925 29.2532L36.1484 29.9993C36.1484 29.9993 39.0897 27.5446 40.9929 23.9609L39.2952 24.0172L33.925 29.2532Z" fill="#00529B"/>
<path fill-rule="evenodd" clip-rule="evenodd" d="M32.9778 29.515C32.9778 29.515 34.7599 27.1641 34.1478 23.6561C34.1478 23.6561 37.805 22.4514 39.9894 22.7326C39.9894 22.7326 39.3471 26.9046 35.8002 30.2395L32.9778 29.515Z" fill="#FFD370"/>
<path d="M35.8001 30.4017C35.7871 30.4017 35.772 30.3995 35.759 30.3974L32.9366 29.6728C32.8847 29.6599 32.8415 29.6209 32.8242 29.569C32.8069 29.5171 32.8155 29.4609 32.848 29.4176C32.8653 29.3938 34.5782 27.0775 33.9877 23.6842C33.9747 23.6042 34.0202 23.5285 34.0959 23.5025C34.2473 23.4528 37.8136 22.2914 40.0088 22.5725C40.0521 22.579 40.091 22.6006 40.117 22.6352C40.1429 22.6698 40.1537 22.7153 40.1472 22.7585C40.1408 22.8018 39.4552 27.0235 35.9083 30.3584C35.8801 30.3865 35.8412 30.4017 35.8001 30.4017ZM33.2416 29.4155L35.7525 30.06C38.7652 27.1878 39.6325 23.6734 39.7969 22.8731C37.8958 22.7044 34.9826 23.5631 34.3294 23.7664C34.7944 26.6926 33.6503 28.7818 33.2416 29.4155Z" fill="#00396C"/>
<path d="M35.0562 25.2846C34.9848 25.2846 34.9199 25.237 34.9026 25.1656C34.881 25.0813 34.9329 24.9948 35.0172 24.9753C35.1167 24.9515 37.4871 24.3719 38.4214 24.5276C38.5079 24.5406 38.5663 24.6228 38.5512 24.7093C38.5382 24.7958 38.456 24.8542 38.3695 24.8391C37.4958 24.6963 35.1146 25.2759 35.0908 25.2824C35.08 25.2824 35.067 25.2846 35.0562 25.2846Z" fill="white"/>
<path d="M34.8113 26.4028C34.7399 26.4028 34.675 26.3552 34.6577 26.2838C34.6361 26.1995 34.688 26.113 34.7724 26.0935C34.8719 26.0697 37.2401 25.4944 38.1765 25.6458C38.263 25.6588 38.3214 25.741 38.3063 25.8275C38.2912 25.914 38.2111 25.9724 38.1246 25.9572C37.2509 25.8167 34.8697 26.3941 34.8459 26.4006C34.8351 26.4006 34.8221 26.4028 34.8113 26.4028Z" fill="white"/>
<defs>
<clipPath id="clip0_50114_40546">
<rect width="36.2267" height="34.3433" fill="white" transform="translate(5.8335 6.83331)"/>
</clipPath>
</defs>
</svg>
