<svg width="48" height="48" viewBox="0 0 48 48" fill="none" xmlns="http://www.w3.org/2000/svg">
<rect width="48" height="48" rx="24" fill="#E6EEF5"/>
<g clip-path="url(#clip0_50114_40434)">
<path d="M5.35791 10.648H6.39791" stroke="#00396C" stroke-miterlimit="10" stroke-linecap="round" stroke-linejoin="round"/>
<path d="M8.67798 10.648H9.72598" stroke="#00396C" stroke-miterlimit="10" stroke-linecap="round" stroke-linejoin="round"/>
<path d="M7.54199 8.46402V9.51202" stroke="#00396C" stroke-miterlimit="10" stroke-linecap="round" stroke-linejoin="round"/>
<path d="M7.54199 11.792V12.84" stroke="#00396C" stroke-miterlimit="10" stroke-linecap="round" stroke-linejoin="round"/>
<path d="M38.4319 36.216H39.4799" stroke="#00396C" stroke-miterlimit="10" stroke-linecap="round" stroke-linejoin="round"/>
<path d="M41.7598 36.216H42.7998" stroke="#00396C" stroke-miterlimit="10" stroke-linecap="round" stroke-linejoin="round"/>
<path d="M40.616 34.024V35.072" stroke="#00396C" stroke-miterlimit="10" stroke-linecap="round" stroke-linejoin="round"/>
<path d="M40.616 37.352V38.4" stroke="#00396C" stroke-miterlimit="10" stroke-linecap="round" stroke-linejoin="round"/>
<path d="M15.5999 43.32H32.3439C33.7119 43.32 34.8239 42.208 34.8239 40.84V7.40001C34.8239 6.03201 33.7119 4.92001 32.3439 4.92001H15.5999C14.2319 4.92001 13.1199 6.03201 13.1199 7.40001V40.84C13.1279 42.216 14.2319 43.32 15.5999 43.32Z" fill="#00396C"/>
<path d="M15.3519 43.32H29.6879C30.6879 43.32 31.4959 42.512 31.4959 41.512V6.72801C31.4959 5.72801 30.6879 4.92001 29.6879 4.92001H15.3519C14.3519 4.92001 13.5439 5.72801 13.5439 6.72801V41.52C13.5439 42.512 14.3519 43.32 15.3519 43.32Z" fill="#00529A"/>
<path d="M14.7759 38.312H33.1759C34.0879 38.312 34.8319 37.576 34.8319 36.656V11.584C34.8319 10.672 34.0959 9.92801 33.1759 9.92801H14.7759C13.8639 9.92801 13.1199 10.664 13.1199 11.584V36.664C13.1279 37.576 13.8639 38.312 14.7759 38.312Z" fill="#BAC4D3"/>
<path d="M14.4479 38.312H30.5919C31.0879 38.312 31.4959 37.904 31.4959 37.408V10.832C31.4959 10.336 31.0879 9.92801 30.5919 9.92801H14.4479C13.9519 9.92801 13.5439 10.336 13.5439 10.832V37.408C13.5439 37.912 13.9439 38.312 14.4479 38.312Z" fill="white"/>
<path d="M34.8319 7.40001V40.84C34.8319 42.208 33.7199 43.32 32.3519 43.32H15.5999C14.2399 43.32 13.1199 42.216 13.1199 40.84V7.40001C13.1199 6.03201 14.2319 4.92001 15.5999 4.92001H32.3519C33.7199 4.92801 34.8319 6.03201 34.8319 7.40001Z" stroke="#00396C" stroke-width="0.5" stroke-miterlimit="10"/>
<path d="M24.5998 40.816C24.5998 41.16 24.3198 41.44 23.9758 41.44C23.6318 41.44 23.3518 41.16 23.3518 40.816C23.3518 40.472 23.6318 40.192 23.9758 40.192C24.3198 40.192 24.5998 40.472 24.5998 40.816Z" fill="#FF9051"/>
<path d="M29.6159 40.816C29.6159 41.16 29.3359 41.44 28.9919 41.44C28.6479 41.44 28.3679 41.16 28.3679 40.816C28.3679 40.472 28.6479 40.192 28.9919 40.192C29.3359 40.192 29.6159 40.472 29.6159 40.816Z" fill="#FF9051"/>
<path d="M29.6159 7.42402C29.6159 7.76802 29.3359 8.04802 28.9919 8.04802C28.6479 8.04802 28.3679 7.76802 28.3679 7.42402C28.3679 7.08002 28.6479 6.80002 28.9919 6.80002C29.3359 6.80002 29.6159 7.08002 29.6159 7.42402Z" fill="#00396C"/>
<path d="M19.592 40.816C19.592 41.16 19.312 41.44 18.968 41.44C18.624 41.44 18.344 41.16 18.344 40.816C18.344 40.472 18.624 40.192 18.968 40.192C19.312 40.192 19.592 40.472 19.592 40.816Z" fill="#FF9051"/>
<path d="M26.6079 7.42401H21.2639" stroke="#00396C" stroke-miterlimit="10" stroke-linecap="round"/>
<path d="M17.8736 26.45L17.9783 25.2583L17.0233 25.9489L16.5 25.001L17.5465 24.5L16.5 23.9989L17.0233 23.051L17.9783 23.7417L17.8736 22.55H18.9201L18.8155 23.7417L19.7705 23.051L20.2937 23.9989L19.2472 24.5L20.2937 25.001L19.7705 25.9489L18.8155 25.2583L18.9201 26.45H17.8736Z" fill="black"/>
<path d="M23.4767 26.45L23.5814 25.2583L22.6264 25.9489L22.1031 25.001L23.1497 24.5L22.1031 23.9989L22.6264 23.051L23.5814 23.7417L23.4767 22.55H24.5233L24.4186 23.7417L25.3736 23.051L25.8969 23.9989L24.8503 24.5L25.8969 25.001L25.3736 25.9489L24.4186 25.2583L24.5233 26.45H23.4767Z" fill="black"/>
<path d="M29.0799 26.45L29.1845 25.2583L28.2295 25.9489L27.7063 25.001L28.7528 24.5L27.7063 23.9989L28.2295 23.051L29.1845 23.7417L29.0799 22.55H30.1264L30.0217 23.7417L30.9767 23.051L31.5 23.9989L30.4535 24.5L31.5 25.001L30.9767 25.9489L30.0217 25.2583L30.1264 26.45H29.0799Z" fill="black"/>
<path d="M37.0158 39.706L36.5038 40.21L36.3358 40.378L34.4078 42.258L32.0638 39.89L31.4158 39.234L28.8398 36.642L28.2478 36.05L25.7998 33.586L26.4558 32.954L28.4158 31.042L29.2318 31.858L31.4318 34.074L33.9998 36.666L35.0318 37.706L37.0158 39.706Z" fill="#FF610E"/>
<path d="M37.2797 33.41L33.9997 36.666L31.4157 39.234L29.9037 40.73L28.6157 42.01L28.1117 41.498L27.9437 41.33L27.8157 41.202L26.4717 39.818L26.0637 39.402L28.0157 37.466L28.8397 36.642L31.4317 34.074L34.7357 30.794L35.3677 31.442L36.3837 32.498L37.2797 33.41Z" fill="#FF610E"/>
<path d="M29.2318 31.858C28.9598 32.826 28.5598 34.362 28.2478 36.05L25.7998 33.586L26.4558 32.954L28.4158 31.042L29.2318 31.858Z" fill="#FF9051"/>
<path d="M37.0158 39.706L36.5038 40.21L36.3358 40.378L34.4158 42.258L32.0718 39.898C33.4158 39.234 34.3678 38.45 35.0398 37.714L37.0158 39.706Z" fill="#E6570B"/>
<path d="M36.3837 32.498L26.4717 39.818L26.0637 39.402L28.0157 37.466L28.8397 36.642L31.4317 34.074L34.7357 30.794L35.3677 31.442L36.3837 32.498Z" fill="#FF9051"/>
<path d="M33.9998 36.666L37.2798 33.41L36.3838 32.498L35.3678 31.442L34.7358 30.794L31.4318 34.074L29.2318 31.858L28.4158 31.042L26.4558 32.954L25.7998 33.586L28.2478 36.05L28.8398 36.642L28.0158 37.466L26.0638 39.402L26.4718 39.818L27.8158 41.202L27.9438 41.33L28.1118 41.498L28.6158 42.01L29.9038 40.73L31.4158 39.234L32.0638 39.89L34.4078 42.258L36.3358 40.378L36.5038 40.21L37.0158 39.706L35.0318 37.706L33.9998 36.666Z" stroke="#00396C" stroke-width="0.5" stroke-miterlimit="10" stroke-linecap="round" stroke-linejoin="round"/>
</g>
<defs>
<clipPath id="clip0_50114_40434">
<rect width="40" height="40" fill="white" transform="translate(4 4)"/>
</clipPath>
</defs>
</svg>
