<svg width="48" height="48" viewBox="0 0 48 48" fill="none" xmlns="http://www.w3.org/2000/svg">
<rect width="48" height="48" rx="24" fill="#E6EEF5"/>
<path d="M37.176 11.352V23.64L27.552 30.056L19.536 24.712L17.936 23.64V11.352C20.008 11.352 21.672 9.672 21.672 7.616H33.432C33.432 8.192 33.56 8.736 33.8 9.216C34.4 10.48 35.688 11.352 37.176 11.352Z" fill="#FF9051"/>
<path d="M37.1761 11.352V23.64L27.5521 30.056L19.5361 24.712V12.952C21.5121 12.544 22.8561 11.152 23.2801 9.216H33.8001C34.4001 10.48 35.6881 11.352 37.1761 11.352Z" fill="#FF610E"/>
<path d="M33.976 14.016V22.032L27.56 26.304L22.216 22.744L21.144 22.032V14.016C22.912 14.016 24.352 12.584 24.352 10.808H30.76C30.76 11.192 30.832 11.56 30.952 11.896C31.4 13.136 32.584 14.016 33.976 14.016Z" fill="#4D8DBC"/>
<path d="M33.9761 14.016V22.032L27.5601 26.304L23.5121 23.608L22.2161 22.744V14.92C23.6481 14.848 25.1121 13.288 25.3361 11.936L30.9601 11.896C31.1681 12.472 31.5441 12.976 32.0241 13.344C32.5521 13.768 33.2401 14.016 33.9761 14.016Z" fill="#3375AE"/>
<path d="M33.976 14.016V16.152L23.512 23.608L22.216 22.744L21.144 22.032V21.496L22.216 20.696L32.024 13.344C32.552 13.768 33.24 14.016 33.976 14.016Z" fill="#7FBCE2"/>
<path d="M37.176 11.352V23.64L27.552 30.056L19.536 24.712L17.936 23.64V11.352C20.008 11.352 21.672 9.672 21.672 7.616H33.432C33.432 8.192 33.56 8.736 33.8 9.216C34.4 10.48 35.688 11.352 37.176 11.352Z" stroke="#00396C" stroke-miterlimit="10"/>
<path d="M33.976 14.016V22.032L27.56 26.304L22.216 22.744L21.144 22.032V14.016C22.912 14.016 24.352 12.584 24.352 10.808H30.76C30.76 11.192 30.832 11.56 30.952 11.896C31.4 13.136 32.584 14.016 33.976 14.016Z" stroke="#00396C" stroke-miterlimit="10"/>
<path d="M41.6161 32.496L31.2721 34.712V33.904C31.2721 33.456 30.9121 33.096 30.4641 33.096H24.0001L18.3441 29.864H11.8721V39.568L26.4241 42.8L42.1441 34.936C42.4161 34.8 42.5921 34.52 42.5921 34.216V33.288C42.5921 32.768 42.1201 32.384 41.6161 32.496Z" fill="#BAC4D3"/>
<path d="M41.6161 32.496L31.2721 34.712V33.904C31.2721 33.456 30.9121 33.096 30.4641 33.096H24.0001L18.3441 29.864H11.8721V37.136L25.6641 40.2C26.1601 40.312 26.6721 40.264 27.1361 40.064L42.5921 33.496V33.28C42.5921 32.768 42.1201 32.384 41.6161 32.496Z" fill="white"/>
<path d="M11.872 29.056H5.40796V40.376H11.872V29.056Z" fill="#00529A"/>
<path d="M11.872 29.056H5.40796V36.328H11.872V29.056Z" fill="#4D97CE"/>
<path d="M11.872 30.672H5.40796V37.944H11.872V30.672Z" fill="#3375AE"/>
<path d="M8.63998 38.552C8.30398 38.552 8.03198 38.28 8.03198 37.944V36.328C8.03198 35.992 8.30398 35.72 8.63998 35.72C8.97598 35.72 9.24798 35.992 9.24798 36.328V37.944C9.24798 38.28 8.97598 38.552 8.63998 38.552Z" fill="#00396C"/>
<path d="M11.8721 29.864H18.0321C18.2321 29.864 18.4321 29.92 18.6001 30.016L23.7281 32.944C23.9041 33.04 24.0961 33.096 24.2961 33.096H30.4561C31.3681 33.096 31.2641 33.904 31.2641 33.904V35.296C31.2641 35.88 30.8241 36.376 30.2401 36.44L24.2161 37.112C24.0641 37.128 23.9121 37.112 23.7601 37.072L18.2801 35.448" stroke="#00396C" stroke-miterlimit="10" stroke-linecap="round" stroke-linejoin="round"/>
<path d="M42.5921 33.288V34.216C42.5921 34.52 42.4241 34.8 42.1441 34.936L26.4241 42.792L11.8721 39.56V29.864H18.3441L24.0001 33.096H30.4721C30.9121 33.096 31.2801 33.456 31.2801 33.904V34.712L41.6161 32.496C42.1201 32.384 42.5921 32.768 42.5921 33.288Z" stroke="#00396C" stroke-miterlimit="10" stroke-linecap="round" stroke-linejoin="round"/>
<path d="M11.872 29.056H5.40796V40.376H11.872V29.056Z" stroke="#00396C" stroke-miterlimit="10" stroke-linecap="round" stroke-linejoin="round"/>
<path d="M37.072 28.496H38.056" stroke="#00396C" stroke-miterlimit="10" stroke-linecap="round" stroke-linejoin="round"/>
<path d="M40.1921 28.496H41.1761" stroke="#00396C" stroke-miterlimit="10" stroke-linecap="round" stroke-linejoin="round"/>
<path d="M39.1279 26.448V27.424" stroke="#00396C" stroke-miterlimit="10" stroke-linecap="round" stroke-linejoin="round"/>
<path d="M39.1279 29.568V30.544" stroke="#00396C" stroke-miterlimit="10" stroke-linecap="round" stroke-linejoin="round"/>
<path d="M10.8879 23.072H11.8719" stroke="#00396C" stroke-miterlimit="10" stroke-linecap="round" stroke-linejoin="round"/>
<path d="M14.0081 23.072H14.9921" stroke="#00396C" stroke-miterlimit="10" stroke-linecap="round" stroke-linejoin="round"/>
<path d="M12.936 21.016V22" stroke="#00396C" stroke-miterlimit="10" stroke-linecap="round" stroke-linejoin="round"/>
<path d="M12.936 24.136V25.12" stroke="#00396C" stroke-miterlimit="10" stroke-linecap="round" stroke-linejoin="round"/>
<path d="M12.936 8.224H13.92" stroke="#00396C" stroke-miterlimit="10" stroke-linecap="round" stroke-linejoin="round"/>
<path d="M16.0562 8.224H17.0402" stroke="#00396C" stroke-miterlimit="10" stroke-linecap="round" stroke-linejoin="round"/>
<path d="M14.9919 6.17599V7.15199" stroke="#00396C" stroke-miterlimit="10" stroke-linecap="round" stroke-linejoin="round"/>
<path d="M14.9919 9.29599V10.272" stroke="#00396C" stroke-miterlimit="10" stroke-linecap="round" stroke-linejoin="round"/>
</svg>
