<svg width="48" height="48" viewBox="0 0 48 48" fill="none" xmlns="http://www.w3.org/2000/svg">
<rect width="48" height="48" rx="24" fill="#E6EEF5"/>
<g clip-path="url(#clip0_50114_40841)">
<path d="M5.35791 10.648H6.39791" stroke="#00396C" stroke-miterlimit="10" stroke-linecap="round" stroke-linejoin="round"/>
<path d="M8.67798 10.648H9.72598" stroke="#00396C" stroke-miterlimit="10" stroke-linecap="round" stroke-linejoin="round"/>
<path d="M7.54199 8.46402V9.51202" stroke="#00396C" stroke-miterlimit="10" stroke-linecap="round" stroke-linejoin="round"/>
<path d="M7.54199 11.792V12.84" stroke="#00396C" stroke-miterlimit="10" stroke-linecap="round" stroke-linejoin="round"/>
<path d="M38.4319 36.216H39.4799" stroke="#00396C" stroke-miterlimit="10" stroke-linecap="round" stroke-linejoin="round"/>
<path d="M41.7598 36.216H42.7998" stroke="#00396C" stroke-miterlimit="10" stroke-linecap="round" stroke-linejoin="round"/>
<path d="M40.616 34.024V35.072" stroke="#00396C" stroke-miterlimit="10" stroke-linecap="round" stroke-linejoin="round"/>
<path d="M40.616 37.352V38.4" stroke="#00396C" stroke-miterlimit="10" stroke-linecap="round" stroke-linejoin="round"/>
<path d="M15.5999 43.32H32.3439C33.7119 43.32 34.8239 42.208 34.8239 40.84V7.40001C34.8239 6.03201 33.7119 4.92001 32.3439 4.92001H15.5999C14.2319 4.92001 13.1199 6.03201 13.1199 7.40001V40.84C13.1279 42.216 14.2319 43.32 15.5999 43.32Z" fill="#00396C"/>
<path d="M15.3519 43.32H29.6879C30.6879 43.32 31.4959 42.512 31.4959 41.512V6.72801C31.4959 5.72801 30.6879 4.92001 29.6879 4.92001H15.3519C14.3519 4.92001 13.5439 5.72801 13.5439 6.72801V41.52C13.5439 42.512 14.3519 43.32 15.3519 43.32Z" fill="#00529A"/>
<path d="M14.7759 38.312H33.1759C34.0879 38.312 34.8319 37.576 34.8319 36.656V11.584C34.8319 10.672 34.0959 9.92801 33.1759 9.92801H14.7759C13.8639 9.92801 13.1199 10.664 13.1199 11.584V36.664C13.1279 37.576 13.8639 38.312 14.7759 38.312Z" fill="#BAC4D3"/>
<path d="M14.4479 38.312H30.5919C31.0879 38.312 31.4959 37.904 31.4959 37.408V10.832C31.4959 10.336 31.0879 9.92801 30.5919 9.92801H14.4479C13.9519 9.92801 13.5439 10.336 13.5439 10.832V37.408C13.5439 37.912 13.9439 38.312 14.4479 38.312Z" fill="white"/>
<path d="M34.8319 7.40001V40.84C34.8319 42.208 33.7199 43.32 32.3519 43.32H15.5999C14.2399 43.32 13.1199 42.216 13.1199 40.84V7.40001C13.1199 6.03201 14.2319 4.92001 15.5999 4.92001H32.3519C33.7199 4.92801 34.8319 6.03201 34.8319 7.40001Z" stroke="#00396C" stroke-width="0.5" stroke-miterlimit="10"/>
<path d="M24.5998 40.816C24.5998 41.16 24.3198 41.44 23.9758 41.44C23.6318 41.44 23.3518 41.16 23.3518 40.816C23.3518 40.472 23.6318 40.192 23.9758 40.192C24.3198 40.192 24.5998 40.472 24.5998 40.816Z" fill="#FF9051"/>
<path d="M29.6159 40.816C29.6159 41.16 29.3359 41.44 28.9919 41.44C28.6479 41.44 28.3679 41.16 28.3679 40.816C28.3679 40.472 28.6479 40.192 28.9919 40.192C29.3359 40.192 29.6159 40.472 29.6159 40.816Z" fill="#FF9051"/>
<path d="M29.6159 7.42402C29.6159 7.76802 29.3359 8.04802 28.9919 8.04802C28.6479 8.04802 28.3679 7.76802 28.3679 7.42402C28.3679 7.08002 28.6479 6.80002 28.9919 6.80002C29.3359 6.80002 29.6159 7.08002 29.6159 7.42402Z" fill="#00396C"/>
<path d="M19.592 40.816C19.592 41.16 19.312 41.44 18.968 41.44C18.624 41.44 18.344 41.16 18.344 40.816C18.344 40.472 18.624 40.192 18.968 40.192C19.312 40.192 19.592 40.472 19.592 40.816Z" fill="#FF9051"/>
<path d="M26.6079 7.42401H21.2639" stroke="#00396C" stroke-miterlimit="10" stroke-linecap="round"/>
<path d="M32.0665 18.7749L15.8567 18.882C15.1745 18.8866 14.6204 19.4473 14.625 20.129L14.6832 29.1117C14.6879 29.7934 15.249 30.3471 15.9312 30.3425L32.141 30.2355C32.8232 30.2308 33.3774 29.6701 33.3727 28.9884L33.3145 20.0057C33.3122 19.324 32.7487 18.7703 32.0665 18.7749Z" fill="#107DD7"/>
<path d="M29.9105 18.7889L16.1384 18.8796C15.3002 18.8843 14.6204 19.5753 14.625 20.4105L14.6669 26.8597C18.7694 26.4572 25.6892 24.8472 29.9105 18.7889Z" fill="#37A7F4"/>
<path d="M33.3261 21.6319C27.8662 22.4788 24.4016 26.9574 22.5366 30.3029L31.8616 30.2424C32.6998 30.2378 33.3796 29.5468 33.375 28.7116L33.3261 21.6319Z" fill="#0A5C99"/>
<path d="M22.5366 30.4751C22.5134 30.4751 22.4877 30.4704 22.4645 30.4588C22.376 30.4193 22.3387 30.3146 22.3783 30.2285C22.3969 30.1889 24.206 26.2757 27.8569 23.7561C27.936 23.7002 28.0455 23.7212 28.099 23.8003C28.1549 23.8794 28.1339 23.9887 28.0548 24.0422C24.4854 26.5037 22.7136 30.3332 22.6973 30.3704C22.667 30.4379 22.6018 30.4751 22.5366 30.4751Z" fill="white"/>
<path d="M28.0811 20.3589V22.5887H27.5417V20.3589H28.0811Z" fill="white"/>
<path d="M25.51 22.5887V20.3589H26.4318C26.5989 20.3589 26.7431 20.389 26.8644 20.4493C26.9864 20.5088 27.0805 20.5945 27.1466 20.7062C27.2127 20.8173 27.2458 20.949 27.2458 21.1015C27.2458 21.2561 27.212 21.3874 27.1444 21.4956C27.0769 21.603 26.981 21.685 26.8568 21.7417C26.7326 21.7976 26.5855 21.8255 26.4155 21.8255H25.8325V21.4009H26.3152C26.3966 21.4009 26.4645 21.3904 26.519 21.3693C26.5742 21.3475 26.616 21.3149 26.6443 21.2713C26.6726 21.227 26.6868 21.1704 26.6868 21.1015C26.6868 21.0325 26.6726 20.9755 26.6443 20.9305C26.616 20.8848 26.5742 20.8507 26.519 20.8282C26.4638 20.805 26.3959 20.7933 26.3152 20.7933H26.0494V22.5887H25.51ZM26.7663 21.5696L27.322 22.5887H26.7336L26.1888 21.5696H26.7663Z" fill="white"/>
<path d="M23.4724 22.5887V20.3589H24.4029C24.57 20.3589 24.7099 20.3825 24.8224 20.4297C24.9358 20.4769 25.0208 20.5429 25.0774 20.6278C25.1348 20.7128 25.1635 20.8111 25.1635 20.9229C25.1635 21.0078 25.1457 21.0837 25.1101 21.1505C25.0745 21.2165 25.0255 21.2713 24.963 21.3149C24.9005 21.3584 24.8283 21.3889 24.7462 21.4063V21.4281C24.8362 21.4325 24.9194 21.4568 24.9957 21.501C25.0727 21.5453 25.1344 21.607 25.1809 21.6861C25.2274 21.7645 25.2507 21.8574 25.2507 21.9649C25.2507 22.0846 25.2202 22.1917 25.1591 22.2861C25.0981 22.3797 25.0099 22.4537 24.8944 22.5082C24.7789 22.5619 24.6387 22.5887 24.4738 22.5887H23.4724ZM24.0118 22.1543H24.3452C24.4621 22.1543 24.5482 22.1322 24.6034 22.0879C24.6594 22.0436 24.6873 21.9819 24.6873 21.9028C24.6873 21.8455 24.6739 21.7961 24.647 21.7547C24.6201 21.7126 24.582 21.6803 24.5326 21.6578C24.4832 21.6346 24.424 21.623 24.355 21.623H24.0118V22.1543ZM24.0118 21.2757H24.3103C24.3692 21.2757 24.4215 21.2659 24.4672 21.2463C24.513 21.2267 24.5486 21.1984 24.574 21.1613C24.6002 21.1243 24.6132 21.0797 24.6132 21.0274C24.6132 20.9527 24.5867 20.8939 24.5337 20.851C24.4807 20.8082 24.4091 20.7868 24.319 20.7868H24.0118V21.2757Z" fill="white"/>
<path d="M19.9817 20.3589H20.6496L21.2162 21.7395H21.2424L21.809 20.3589H22.4769V22.5887H21.9517V21.2191H21.9332L21.3971 22.5746H21.0615L20.5254 21.2114H20.5069V22.5887H19.9817V20.3589Z" fill="white"/>
<path d="M17.8323 20.7966V20.3589H19.7184V20.7966H19.0417V22.5887H18.51V20.7966H17.8323Z" fill="white"/>
<path d="M16.2994 22.5887H15.7197L16.4727 20.3589H17.1907L17.9436 22.5887H17.364L16.8399 20.9207H16.8224L16.2994 22.5887ZM16.222 21.7112H17.4337V22.1206H16.222V21.7112Z" fill="white"/>
</g>
<defs>
<clipPath id="clip0_50114_40841">
<rect width="40" height="40" fill="white" transform="translate(4 4)"/>
</clipPath>
</defs>
</svg>
