<svg width="32" height="32" viewBox="0 0 32 32" fill="none" xmlns="http://www.w3.org/2000/svg">
<path d="M16 2.5C8.556 2.5 2.5 8.556 2.5 16C2.5 23.444 8.556 29.5 16 29.5C23.444 29.5 29.5 23.444 29.5 16C29.5 8.556 23.444 2.5 16 2.5Z" fill="#E6EEF5"/>
<path d="M21.9999 21.0573V12.6666H19.9999V10.6666C19.9999 10.313 19.8594 9.97389 19.6094 9.72384C19.3593 9.47379 19.0202 9.33331 18.6666 9.33331H13.3332C12.9796 9.33331 12.6405 9.47379 12.3904 9.72384C12.1404 9.97389 11.9999 10.313 11.9999 10.6666V11.0573L10.4712 9.52865L9.52856 10.4713L11.7239 12.6666H9.9999V22H21.0572L21.5286 22.4713L22.4712 21.5286L21.9999 21.0573ZM20.6666 19.724L17.2906 16.348C17.2321 16.113 17.1107 15.8983 16.9395 15.7271C16.7682 15.5558 16.5536 15.4344 16.3186 15.376L14.9426 14H20.6666V19.724ZM13.3332 10.6666H18.6666V12.6666H13.6092L13.3332 12.3906V10.6666ZM11.3332 20.6666V14H13.0572L14.9332 15.8753C14.8202 16.0249 14.7405 16.1968 14.6992 16.3796C14.658 16.5625 14.6563 16.752 14.6941 16.9356C14.732 17.1191 14.8086 17.2925 14.9188 17.4441C15.029 17.5957 15.1703 17.722 15.3332 17.8146V19.3333H16.6666V17.8146C16.7095 17.7899 16.7511 17.763 16.7912 17.734L19.7246 20.6673L11.3332 20.6666Z" fill="#00529C"/>
</svg>
